<?xml version="1.0" encoding="utf-8"?>
<svg xmlns="http://www.w3.org/2000/svg" xmlns:xlink="http://www.w3.org/1999/xlink" width="600" height="400" viewBox="0 0 2400 1600">
<defs>
  <clipPath id="clip010">
    <rect x="0" y="0" width="2400" height="1600"/>
  </clipPath>
</defs>
<path clip-path="url(#clip010)" d="M0 1600 L2400 1600 L2400 0 L0 0  Z" fill="#ffffff" fill-rule="evenodd" fill-opacity="1"/>
<defs>
  <clipPath id="clip011">
    <rect x="480" y="0" width="1681" height="1600"/>
  </clipPath>
</defs>
<path clip-path="url(#clip010)" d="M235.283 1423.18 L2352.76 1423.18 L2352.76 47.2441 L235.283 47.2441  Z" fill="#ffffff" fill-rule="evenodd" fill-opacity="1"/>
<defs>
  <clipPath id="clip012">
    <rect x="235" y="47" width="2118" height="1377"/>
  </clipPath>
</defs>
<polyline clip-path="url(#clip012)" style="stroke:#000000; stroke-linecap:round; stroke-linejoin:round; stroke-width:2; stroke-opacity:0.1; fill:none" points="404.426,1423.18 404.426,47.2441 "/>
<polyline clip-path="url(#clip012)" style="stroke:#000000; stroke-linecap:round; stroke-linejoin:round; stroke-width:2; stroke-opacity:0.1; fill:none" points="541.287,1423.18 541.287,47.2441 "/>
<polyline clip-path="url(#clip012)" style="stroke:#000000; stroke-linecap:round; stroke-linejoin:round; stroke-width:2; stroke-opacity:0.1; fill:none" points="678.147,1423.18 678.147,47.2441 "/>
<polyline clip-path="url(#clip012)" style="stroke:#000000; stroke-linecap:round; stroke-linejoin:round; stroke-width:2; stroke-opacity:0.1; fill:none" points="815.008,1423.18 815.008,47.2441 "/>
<polyline clip-path="url(#clip012)" style="stroke:#000000; stroke-linecap:round; stroke-linejoin:round; stroke-width:2; stroke-opacity:0.1; fill:none" points="951.868,1423.18 951.868,47.2441 "/>
<polyline clip-path="url(#clip012)" style="stroke:#000000; stroke-linecap:round; stroke-linejoin:round; stroke-width:2; stroke-opacity:0.1; fill:none" points="1088.73,1423.18 1088.73,47.2441 "/>
<polyline clip-path="url(#clip012)" style="stroke:#000000; stroke-linecap:round; stroke-linejoin:round; stroke-width:2; stroke-opacity:0.1; fill:none" points="1225.59,1423.18 1225.59,47.2441 "/>
<polyline clip-path="url(#clip012)" style="stroke:#000000; stroke-linecap:round; stroke-linejoin:round; stroke-width:2; stroke-opacity:0.1; fill:none" points="1362.45,1423.18 1362.45,47.2441 "/>
<polyline clip-path="url(#clip012)" style="stroke:#000000; stroke-linecap:round; stroke-linejoin:round; stroke-width:2; stroke-opacity:0.1; fill:none" points="1499.31,1423.18 1499.31,47.2441 "/>
<polyline clip-path="url(#clip012)" style="stroke:#000000; stroke-linecap:round; stroke-linejoin:round; stroke-width:2; stroke-opacity:0.1; fill:none" points="1636.17,1423.18 1636.17,47.2441 "/>
<polyline clip-path="url(#clip012)" style="stroke:#000000; stroke-linecap:round; stroke-linejoin:round; stroke-width:2; stroke-opacity:0.1; fill:none" points="1773.03,1423.18 1773.03,47.2441 "/>
<polyline clip-path="url(#clip012)" style="stroke:#000000; stroke-linecap:round; stroke-linejoin:round; stroke-width:2; stroke-opacity:0.1; fill:none" points="1909.89,1423.18 1909.89,47.2441 "/>
<polyline clip-path="url(#clip012)" style="stroke:#000000; stroke-linecap:round; stroke-linejoin:round; stroke-width:2; stroke-opacity:0.1; fill:none" points="2046.75,1423.18 2046.75,47.2441 "/>
<polyline clip-path="url(#clip012)" style="stroke:#000000; stroke-linecap:round; stroke-linejoin:round; stroke-width:2; stroke-opacity:0.1; fill:none" points="2183.61,1423.18 2183.61,47.2441 "/>
<polyline clip-path="url(#clip010)" style="stroke:#000000; stroke-linecap:round; stroke-linejoin:round; stroke-width:4; stroke-opacity:1; fill:none" points="235.283,1423.18 2352.76,1423.18 "/>
<polyline clip-path="url(#clip010)" style="stroke:#000000; stroke-linecap:round; stroke-linejoin:round; stroke-width:4; stroke-opacity:1; fill:none" points="404.426,1423.18 404.426,1404.28 "/>
<polyline clip-path="url(#clip010)" style="stroke:#000000; stroke-linecap:round; stroke-linejoin:round; stroke-width:4; stroke-opacity:1; fill:none" points="541.287,1423.18 541.287,1404.28 "/>
<polyline clip-path="url(#clip010)" style="stroke:#000000; stroke-linecap:round; stroke-linejoin:round; stroke-width:4; stroke-opacity:1; fill:none" points="678.147,1423.18 678.147,1404.28 "/>
<polyline clip-path="url(#clip010)" style="stroke:#000000; stroke-linecap:round; stroke-linejoin:round; stroke-width:4; stroke-opacity:1; fill:none" points="815.008,1423.18 815.008,1404.28 "/>
<polyline clip-path="url(#clip010)" style="stroke:#000000; stroke-linecap:round; stroke-linejoin:round; stroke-width:4; stroke-opacity:1; fill:none" points="951.868,1423.18 951.868,1404.28 "/>
<polyline clip-path="url(#clip010)" style="stroke:#000000; stroke-linecap:round; stroke-linejoin:round; stroke-width:4; stroke-opacity:1; fill:none" points="1088.73,1423.18 1088.73,1404.28 "/>
<polyline clip-path="url(#clip010)" style="stroke:#000000; stroke-linecap:round; stroke-linejoin:round; stroke-width:4; stroke-opacity:1; fill:none" points="1225.59,1423.18 1225.59,1404.28 "/>
<polyline clip-path="url(#clip010)" style="stroke:#000000; stroke-linecap:round; stroke-linejoin:round; stroke-width:4; stroke-opacity:1; fill:none" points="1362.45,1423.18 1362.45,1404.28 "/>
<polyline clip-path="url(#clip010)" style="stroke:#000000; stroke-linecap:round; stroke-linejoin:round; stroke-width:4; stroke-opacity:1; fill:none" points="1499.31,1423.18 1499.31,1404.28 "/>
<polyline clip-path="url(#clip010)" style="stroke:#000000; stroke-linecap:round; stroke-linejoin:round; stroke-width:4; stroke-opacity:1; fill:none" points="1636.17,1423.18 1636.17,1404.28 "/>
<polyline clip-path="url(#clip010)" style="stroke:#000000; stroke-linecap:round; stroke-linejoin:round; stroke-width:4; stroke-opacity:1; fill:none" points="1773.03,1423.18 1773.03,1404.28 "/>
<polyline clip-path="url(#clip010)" style="stroke:#000000; stroke-linecap:round; stroke-linejoin:round; stroke-width:4; stroke-opacity:1; fill:none" points="1909.89,1423.18 1909.89,1404.28 "/>
<polyline clip-path="url(#clip010)" style="stroke:#000000; stroke-linecap:round; stroke-linejoin:round; stroke-width:4; stroke-opacity:1; fill:none" points="2046.75,1423.18 2046.75,1404.28 "/>
<polyline clip-path="url(#clip010)" style="stroke:#000000; stroke-linecap:round; stroke-linejoin:round; stroke-width:4; stroke-opacity:1; fill:none" points="2183.61,1423.18 2183.61,1404.28 "/>
<path clip-path="url(#clip010)" d="M394.808 1481.64 L402.447 1481.64 L402.447 1455.28 L394.137 1456.95 L394.137 1452.69 L402.401 1451.02 L407.076 1451.02 L407.076 1481.64 L414.715 1481.64 L414.715 1485.58 L394.808 1485.58 L394.808 1481.64 Z" fill="#000000" fill-rule="nonzero" fill-opacity="1" /><path clip-path="url(#clip010)" d="M535.939 1481.64 L552.259 1481.64 L552.259 1485.58 L530.314 1485.58 L530.314 1481.64 Q532.976 1478.89 537.56 1474.26 Q542.166 1469.61 543.347 1468.27 Q545.592 1465.74 546.472 1464.01 Q547.374 1462.25 547.374 1460.56 Q547.374 1457.8 545.43 1456.07 Q543.509 1454.33 540.407 1454.33 Q538.208 1454.33 535.754 1455.09 Q533.324 1455.86 530.546 1457.41 L530.546 1452.69 Q533.37 1451.55 535.824 1450.97 Q538.277 1450.39 540.314 1450.39 Q545.685 1450.39 548.879 1453.08 Q552.074 1455.77 552.074 1460.26 Q552.074 1462.39 551.263 1464.31 Q550.476 1466.2 548.37 1468.8 Q547.791 1469.47 544.689 1472.69 Q541.587 1475.88 535.939 1481.64 Z" fill="#000000" fill-rule="nonzero" fill-opacity="1" /><path clip-path="url(#clip010)" d="M682.395 1466.95 Q685.751 1467.66 687.626 1469.93 Q689.524 1472.2 689.524 1475.53 Q689.524 1480.65 686.006 1483.45 Q682.487 1486.25 676.006 1486.25 Q673.83 1486.25 671.515 1485.81 Q669.223 1485.39 666.77 1484.54 L666.77 1480.02 Q668.714 1481.16 671.029 1481.74 Q673.344 1482.32 675.867 1482.32 Q680.265 1482.32 682.557 1480.58 Q684.872 1478.84 684.872 1475.53 Q684.872 1472.48 682.719 1470.77 Q680.589 1469.03 676.77 1469.03 L672.742 1469.03 L672.742 1465.19 L676.955 1465.19 Q680.404 1465.19 682.233 1463.82 Q684.061 1462.43 684.061 1459.84 Q684.061 1457.18 682.163 1455.77 Q680.288 1454.33 676.77 1454.33 Q674.848 1454.33 672.649 1454.75 Q670.45 1455.16 667.811 1456.04 L667.811 1451.88 Q670.473 1451.14 672.788 1450.77 Q675.126 1450.39 677.186 1450.39 Q682.51 1450.39 685.612 1452.83 Q688.714 1455.23 688.714 1459.35 Q688.714 1462.22 687.071 1464.21 Q685.427 1466.18 682.395 1466.95 Z" fill="#000000" fill-rule="nonzero" fill-opacity="1" /><path clip-path="url(#clip010)" d="M818.017 1455.09 L806.211 1473.54 L818.017 1473.54 L818.017 1455.09 M816.79 1451.02 L822.67 1451.02 L822.67 1473.54 L827.6 1473.54 L827.6 1477.43 L822.67 1477.43 L822.67 1485.58 L818.017 1485.58 L818.017 1477.43 L802.415 1477.43 L802.415 1472.92 L816.79 1451.02 Z" fill="#000000" fill-rule="nonzero" fill-opacity="1" /><path clip-path="url(#clip010)" d="M942.146 1451.02 L960.502 1451.02 L960.502 1454.96 L946.428 1454.96 L946.428 1463.43 Q947.447 1463.08 948.465 1462.92 Q949.484 1462.73 950.502 1462.73 Q956.289 1462.73 959.669 1465.9 Q963.049 1469.08 963.049 1474.49 Q963.049 1480.07 959.576 1483.17 Q956.104 1486.25 949.785 1486.25 Q947.609 1486.25 945.34 1485.88 Q943.095 1485.51 940.688 1484.77 L940.688 1480.07 Q942.771 1481.2 944.993 1481.76 Q947.215 1482.32 949.692 1482.32 Q953.697 1482.32 956.035 1480.21 Q958.373 1478.1 958.373 1474.49 Q958.373 1470.88 956.035 1468.77 Q953.697 1466.67 949.692 1466.67 Q947.817 1466.67 945.942 1467.08 Q944.09 1467.5 942.146 1468.38 L942.146 1451.02 Z" fill="#000000" fill-rule="nonzero" fill-opacity="1" /><path clip-path="url(#clip010)" d="M1089.13 1466.44 Q1085.99 1466.44 1084.13 1468.59 Q1082.31 1470.74 1082.31 1474.49 Q1082.31 1478.22 1084.13 1480.39 Q1085.99 1482.55 1089.13 1482.55 Q1092.28 1482.55 1094.11 1480.39 Q1095.96 1478.22 1095.96 1474.49 Q1095.96 1470.74 1094.11 1468.59 Q1092.28 1466.44 1089.13 1466.44 M1098.42 1451.78 L1098.42 1456.04 Q1096.66 1455.21 1094.85 1454.77 Q1093.07 1454.33 1091.31 1454.33 Q1086.68 1454.33 1084.23 1457.45 Q1081.8 1460.58 1081.45 1466.9 Q1082.81 1464.89 1084.87 1463.82 Q1086.93 1462.73 1089.41 1462.73 Q1094.62 1462.73 1097.63 1465.9 Q1100.66 1469.05 1100.66 1474.49 Q1100.66 1479.82 1097.51 1483.03 Q1094.37 1486.25 1089.13 1486.25 Q1083.14 1486.25 1079.97 1481.67 Q1076.8 1477.06 1076.8 1468.33 Q1076.8 1460.14 1080.68 1455.28 Q1084.57 1450.39 1091.12 1450.39 Q1092.88 1450.39 1094.67 1450.74 Q1096.47 1451.09 1098.42 1451.78 Z" fill="#000000" fill-rule="nonzero" fill-opacity="1" /><path clip-path="url(#clip010)" d="M1214.48 1451.02 L1236.7 1451.02 L1236.7 1453.01 L1224.15 1485.58 L1219.27 1485.58 L1231.08 1454.96 L1214.48 1454.96 L1214.48 1451.02 Z" fill="#000000" fill-rule="nonzero" fill-opacity="1" /><path clip-path="url(#clip010)" d="M1362.45 1469.17 Q1359.12 1469.17 1357.2 1470.95 Q1355.3 1472.73 1355.3 1475.86 Q1355.3 1478.98 1357.2 1480.77 Q1359.12 1482.55 1362.45 1482.55 Q1365.78 1482.55 1367.7 1480.77 Q1369.63 1478.96 1369.63 1475.86 Q1369.63 1472.73 1367.7 1470.95 Q1365.81 1469.17 1362.45 1469.17 M1357.77 1467.18 Q1354.76 1466.44 1353.07 1464.38 Q1351.41 1462.32 1351.41 1459.35 Q1351.41 1455.21 1354.35 1452.8 Q1357.31 1450.39 1362.45 1450.39 Q1367.61 1450.39 1370.55 1452.8 Q1373.49 1455.21 1373.49 1459.35 Q1373.49 1462.32 1371.8 1464.38 Q1370.13 1466.44 1367.15 1467.18 Q1370.53 1467.96 1372.4 1470.26 Q1374.3 1472.55 1374.3 1475.86 Q1374.3 1480.88 1371.22 1483.57 Q1368.17 1486.25 1362.45 1486.25 Q1356.73 1486.25 1353.65 1483.57 Q1350.6 1480.88 1350.6 1475.86 Q1350.6 1472.55 1352.5 1470.26 Q1354.39 1467.96 1357.77 1467.18 M1356.06 1459.79 Q1356.06 1462.48 1357.73 1463.98 Q1359.42 1465.49 1362.45 1465.49 Q1365.46 1465.49 1367.15 1463.98 Q1368.86 1462.48 1368.86 1459.79 Q1368.86 1457.11 1367.15 1455.6 Q1365.46 1454.1 1362.45 1454.1 Q1359.42 1454.1 1357.73 1455.6 Q1356.06 1457.11 1356.06 1459.79 Z" fill="#000000" fill-rule="nonzero" fill-opacity="1" /><path clip-path="url(#clip010)" d="M1489.61 1484.86 L1489.61 1480.6 Q1491.37 1481.44 1493.18 1481.88 Q1494.98 1482.32 1496.72 1482.32 Q1501.35 1482.32 1503.78 1479.21 Q1506.23 1476.09 1506.58 1469.75 Q1505.24 1471.74 1503.18 1472.8 Q1501.12 1473.87 1498.62 1473.87 Q1493.43 1473.87 1490.4 1470.74 Q1487.39 1467.59 1487.39 1462.15 Q1487.39 1456.83 1490.54 1453.61 Q1493.69 1450.39 1498.92 1450.39 Q1504.91 1450.39 1508.06 1455 Q1511.23 1459.58 1511.23 1468.33 Q1511.23 1476.51 1507.34 1481.39 Q1503.48 1486.25 1496.93 1486.25 Q1495.17 1486.25 1493.36 1485.9 Q1491.56 1485.56 1489.61 1484.86 M1498.92 1470.21 Q1502.06 1470.21 1503.89 1468.06 Q1505.75 1465.9 1505.75 1462.15 Q1505.75 1458.43 1503.89 1456.27 Q1502.06 1454.1 1498.92 1454.1 Q1495.77 1454.1 1493.92 1456.27 Q1492.09 1458.43 1492.09 1462.15 Q1492.09 1465.9 1493.92 1468.06 Q1495.77 1470.21 1498.92 1470.21 Z" fill="#000000" fill-rule="nonzero" fill-opacity="1" /><path clip-path="url(#clip010)" d="M1610.86 1481.64 L1618.5 1481.64 L1618.5 1455.28 L1610.19 1456.95 L1610.19 1452.69 L1618.45 1451.02 L1623.13 1451.02 L1623.13 1481.64 L1630.77 1481.64 L1630.77 1485.58 L1610.86 1485.58 L1610.86 1481.64 Z" fill="#000000" fill-rule="nonzero" fill-opacity="1" /><path clip-path="url(#clip010)" d="M1650.21 1454.1 Q1646.6 1454.1 1644.77 1457.66 Q1642.96 1461.2 1642.96 1468.33 Q1642.96 1475.44 1644.77 1479.01 Q1646.6 1482.55 1650.21 1482.55 Q1653.84 1482.55 1655.65 1479.01 Q1657.48 1475.44 1657.48 1468.33 Q1657.48 1461.2 1655.65 1457.66 Q1653.84 1454.1 1650.21 1454.1 M1650.21 1450.39 Q1656.02 1450.39 1659.08 1455 Q1662.15 1459.58 1662.15 1468.33 Q1662.15 1477.06 1659.08 1481.67 Q1656.02 1486.25 1650.21 1486.25 Q1644.4 1486.25 1641.32 1481.67 Q1638.27 1477.06 1638.27 1468.33 Q1638.27 1459.58 1641.32 1455 Q1644.4 1450.39 1650.21 1450.39 Z" fill="#000000" fill-rule="nonzero" fill-opacity="1" /><path clip-path="url(#clip010)" d="M1748.33 1481.64 L1755.97 1481.64 L1755.97 1455.28 L1747.66 1456.95 L1747.66 1452.69 L1755.92 1451.02 L1760.6 1451.02 L1760.6 1481.64 L1768.24 1481.64 L1768.24 1485.58 L1748.33 1485.58 L1748.33 1481.64 Z" fill="#000000" fill-rule="nonzero" fill-opacity="1" /><path clip-path="url(#clip010)" d="M1778.49 1481.64 L1786.13 1481.64 L1786.13 1455.28 L1777.82 1456.95 L1777.82 1452.69 L1786.09 1451.02 L1790.76 1451.02 L1790.76 1481.64 L1798.4 1481.64 L1798.4 1485.58 L1778.49 1485.58 L1778.49 1481.64 Z" fill="#000000" fill-rule="nonzero" fill-opacity="1" /><path clip-path="url(#clip010)" d="M1885.38 1481.64 L1893.02 1481.64 L1893.02 1455.28 L1884.71 1456.95 L1884.71 1452.69 L1892.97 1451.02 L1897.65 1451.02 L1897.65 1481.64 L1905.29 1481.64 L1905.29 1485.58 L1885.38 1485.58 L1885.38 1481.64 Z" fill="#000000" fill-rule="nonzero" fill-opacity="1" /><path clip-path="url(#clip010)" d="M1918.76 1481.64 L1935.08 1481.64 L1935.08 1485.58 L1913.13 1485.58 L1913.13 1481.64 Q1915.79 1478.89 1920.38 1474.26 Q1924.98 1469.61 1926.16 1468.27 Q1928.41 1465.74 1929.29 1464.01 Q1930.19 1462.25 1930.19 1460.56 Q1930.19 1457.8 1928.25 1456.07 Q1926.33 1454.33 1923.22 1454.33 Q1921.03 1454.33 1918.57 1455.09 Q1916.14 1455.86 1913.36 1457.41 L1913.36 1452.69 Q1916.19 1451.55 1918.64 1450.97 Q1921.1 1450.39 1923.13 1450.39 Q1928.5 1450.39 1931.7 1453.08 Q1934.89 1455.77 1934.89 1460.26 Q1934.89 1462.39 1934.08 1464.31 Q1933.29 1466.2 1931.19 1468.8 Q1930.61 1469.47 1927.51 1472.69 Q1924.41 1475.88 1918.76 1481.64 Z" fill="#000000" fill-rule="nonzero" fill-opacity="1" /><path clip-path="url(#clip010)" d="M2021.76 1481.64 L2029.4 1481.64 L2029.4 1455.28 L2021.09 1456.95 L2021.09 1452.69 L2029.36 1451.02 L2034.03 1451.02 L2034.03 1481.64 L2041.67 1481.64 L2041.67 1485.58 L2021.76 1485.58 L2021.76 1481.64 Z" fill="#000000" fill-rule="nonzero" fill-opacity="1" /><path clip-path="url(#clip010)" d="M2065.28 1466.95 Q2068.64 1467.66 2070.51 1469.93 Q2072.41 1472.2 2072.41 1475.53 Q2072.41 1480.65 2068.89 1483.45 Q2065.37 1486.25 2058.89 1486.25 Q2056.72 1486.25 2054.4 1485.81 Q2052.11 1485.39 2049.66 1484.54 L2049.66 1480.02 Q2051.6 1481.16 2053.92 1481.74 Q2056.23 1482.32 2058.75 1482.32 Q2063.15 1482.32 2065.44 1480.58 Q2067.76 1478.84 2067.76 1475.53 Q2067.76 1472.48 2065.61 1470.77 Q2063.48 1469.03 2059.66 1469.03 L2055.63 1469.03 L2055.63 1465.19 L2059.84 1465.19 Q2063.29 1465.19 2065.12 1463.82 Q2066.95 1462.43 2066.95 1459.84 Q2066.95 1457.18 2065.05 1455.77 Q2063.18 1454.33 2059.66 1454.33 Q2057.74 1454.33 2055.54 1454.75 Q2053.34 1455.16 2050.7 1456.04 L2050.7 1451.88 Q2053.36 1451.14 2055.68 1450.77 Q2058.01 1450.39 2060.07 1450.39 Q2065.4 1450.39 2068.5 1452.83 Q2071.6 1455.23 2071.6 1459.35 Q2071.6 1462.22 2069.96 1464.21 Q2068.31 1466.18 2065.28 1466.95 Z" fill="#000000" fill-rule="nonzero" fill-opacity="1" /><path clip-path="url(#clip010)" d="M2158.06 1481.64 L2165.7 1481.64 L2165.7 1455.28 L2157.39 1456.95 L2157.39 1452.69 L2165.65 1451.02 L2170.33 1451.02 L2170.33 1481.64 L2177.96 1481.64 L2177.96 1485.58 L2158.06 1485.58 L2158.06 1481.64 Z" fill="#000000" fill-rule="nonzero" fill-opacity="1" /><path clip-path="url(#clip010)" d="M2200.26 1455.09 L2188.45 1473.54 L2200.26 1473.54 L2200.26 1455.09 M2199.03 1451.02 L2204.91 1451.02 L2204.91 1473.54 L2209.84 1473.54 L2209.84 1477.43 L2204.91 1477.43 L2204.91 1485.58 L2200.26 1485.58 L2200.26 1477.43 L2184.65 1477.43 L2184.65 1472.92 L2199.03 1451.02 Z" fill="#000000" fill-rule="nonzero" fill-opacity="1" /><path clip-path="url(#clip010)" d="M1001.12 1524.18 L1001.12 1530.96 Q997.871 1527.94 994.179 1526.44 Q990.518 1524.95 986.381 1524.95 Q978.233 1524.95 973.904 1529.95 Q969.575 1534.91 969.575 1544.33 Q969.575 1553.72 973.904 1558.72 Q978.233 1563.68 986.381 1563.68 Q990.518 1563.68 994.179 1562.19 Q997.871 1560.69 1001.12 1557.67 L1001.12 1564.38 Q997.743 1566.68 993.956 1567.82 Q990.2 1568.97 985.999 1568.97 Q975.209 1568.97 969.002 1562.38 Q962.796 1555.76 962.796 1544.33 Q962.796 1532.87 969.002 1526.28 Q975.209 1519.66 985.999 1519.66 Q990.264 1519.66 994.02 1520.81 Q997.807 1521.92 1001.12 1524.18 Z" fill="#000000" fill-rule="nonzero" fill-opacity="1" /><path clip-path="url(#clip010)" d="M1024.61 1536.5 Q1019.9 1536.5 1017.16 1540.19 Q1014.42 1543.85 1014.42 1550.25 Q1014.42 1556.65 1017.13 1560.34 Q1019.86 1564 1024.61 1564 Q1029.29 1564 1032.02 1560.31 Q1034.76 1556.62 1034.76 1550.25 Q1034.76 1543.92 1032.02 1540.23 Q1029.29 1536.5 1024.61 1536.5 M1024.61 1531.54 Q1032.25 1531.54 1036.61 1536.5 Q1040.97 1541.47 1040.97 1550.25 Q1040.97 1559 1036.61 1564 Q1032.25 1568.97 1024.61 1568.97 Q1016.94 1568.97 1012.58 1564 Q1008.25 1559 1008.25 1550.25 Q1008.25 1541.47 1012.58 1536.5 Q1016.94 1531.54 1024.61 1531.54 Z" fill="#000000" fill-rule="nonzero" fill-opacity="1" /><path clip-path="url(#clip010)" d="M1078.43 1539.24 Q1080.62 1535.29 1083.68 1533.41 Q1086.74 1531.54 1090.87 1531.54 Q1096.44 1531.54 1099.47 1535.45 Q1102.49 1539.33 1102.49 1546.53 L1102.49 1568.04 L1096.6 1568.04 L1096.6 1546.72 Q1096.6 1541.59 1094.79 1539.11 Q1092.97 1536.63 1089.25 1536.63 Q1084.7 1536.63 1082.06 1539.65 Q1079.42 1542.68 1079.42 1547.9 L1079.42 1568.04 L1073.53 1568.04 L1073.53 1546.72 Q1073.53 1541.56 1071.71 1539.11 Q1069.9 1536.63 1066.11 1536.63 Q1061.62 1536.63 1058.98 1539.68 Q1056.34 1542.71 1056.34 1547.9 L1056.34 1568.04 L1050.45 1568.04 L1050.45 1532.4 L1056.34 1532.4 L1056.34 1537.93 Q1058.35 1534.66 1061.15 1533.1 Q1063.95 1531.54 1067.8 1531.54 Q1071.68 1531.54 1074.39 1533.51 Q1077.12 1535.48 1078.43 1539.24 Z" fill="#000000" fill-rule="nonzero" fill-opacity="1" /><path clip-path="url(#clip010)" d="M1141.93 1539.24 Q1144.12 1535.29 1147.18 1533.41 Q1150.23 1531.54 1154.37 1531.54 Q1159.94 1531.54 1162.97 1535.45 Q1165.99 1539.33 1165.99 1546.53 L1165.99 1568.04 L1160.1 1568.04 L1160.1 1546.72 Q1160.1 1541.59 1158.29 1539.11 Q1156.47 1536.63 1152.75 1536.63 Q1148.2 1536.63 1145.56 1539.65 Q1142.91 1542.68 1142.91 1547.9 L1142.91 1568.04 L1137.03 1568.04 L1137.03 1546.72 Q1137.03 1541.56 1135.21 1539.11 Q1133.4 1536.63 1129.61 1536.63 Q1125.12 1536.63 1122.48 1539.68 Q1119.84 1542.71 1119.84 1547.9 L1119.84 1568.04 L1113.95 1568.04 L1113.95 1532.4 L1119.84 1532.4 L1119.84 1537.93 Q1121.84 1534.66 1124.64 1533.1 Q1127.44 1531.54 1131.3 1531.54 Q1135.18 1531.54 1137.88 1533.51 Q1140.62 1535.48 1141.93 1539.24 Z" fill="#000000" fill-rule="nonzero" fill-opacity="1" /><path clip-path="url(#clip010)" d="M1177.07 1553.98 L1177.07 1532.4 L1182.92 1532.4 L1182.92 1553.75 Q1182.92 1558.81 1184.9 1561.36 Q1186.87 1563.87 1190.82 1563.87 Q1195.56 1563.87 1198.3 1560.85 Q1201.06 1557.83 1201.06 1552.61 L1201.06 1532.4 L1206.92 1532.4 L1206.92 1568.04 L1201.06 1568.04 L1201.06 1562.57 Q1198.93 1565.82 1196.1 1567.41 Q1193.3 1568.97 1189.57 1568.97 Q1183.43 1568.97 1180.25 1565.15 Q1177.07 1561.33 1177.07 1553.98 M1191.8 1531.54 L1191.8 1531.54 Z" fill="#000000" fill-rule="nonzero" fill-opacity="1" /><path clip-path="url(#clip010)" d="M1248.62 1546.53 L1248.62 1568.04 L1242.76 1568.04 L1242.76 1546.72 Q1242.76 1541.66 1240.79 1539.14 Q1238.81 1536.63 1234.87 1536.63 Q1230.12 1536.63 1227.39 1539.65 Q1224.65 1542.68 1224.65 1547.9 L1224.65 1568.04 L1218.76 1568.04 L1218.76 1532.4 L1224.65 1532.4 L1224.65 1537.93 Q1226.75 1534.72 1229.58 1533.13 Q1232.45 1531.54 1236.17 1531.54 Q1242.31 1531.54 1245.46 1535.36 Q1248.62 1539.14 1248.62 1546.53 Z" fill="#000000" fill-rule="nonzero" fill-opacity="1" /><path clip-path="url(#clip010)" d="M1260.3 1532.4 L1266.15 1532.4 L1266.15 1568.04 L1260.3 1568.04 L1260.3 1532.4 M1260.3 1518.52 L1266.15 1518.52 L1266.15 1525.93 L1260.3 1525.93 L1260.3 1518.52 Z" fill="#000000" fill-rule="nonzero" fill-opacity="1" /><path clip-path="url(#clip010)" d="M1284.2 1522.27 L1284.2 1532.4 L1296.26 1532.4 L1296.26 1536.95 L1284.2 1536.95 L1284.2 1556.3 Q1284.2 1560.66 1285.38 1561.9 Q1286.59 1563.14 1290.25 1563.14 L1296.26 1563.14 L1296.26 1568.04 L1290.25 1568.04 Q1283.47 1568.04 1280.89 1565.53 Q1278.31 1562.98 1278.31 1556.3 L1278.31 1536.95 L1274.02 1536.95 L1274.02 1532.4 L1278.31 1532.4 L1278.31 1522.27 L1284.2 1522.27 Z" fill="#000000" fill-rule="nonzero" fill-opacity="1" /><path clip-path="url(#clip010)" d="M1318.8 1571.35 Q1316.32 1577.72 1313.96 1579.66 Q1311.6 1581.6 1307.66 1581.6 L1302.98 1581.6 L1302.98 1576.7 L1306.42 1576.7 Q1308.84 1576.7 1310.17 1575.56 Q1311.51 1574.41 1313.13 1570.14 L1314.18 1567.47 L1299.76 1532.4 L1305.97 1532.4 L1317.11 1560.28 L1328.25 1532.4 L1334.46 1532.4 L1318.8 1571.35 Z" fill="#000000" fill-rule="nonzero" fill-opacity="1" /><path clip-path="url(#clip010)" d="M1363.52 1520.52 L1373.1 1520.52 L1385.22 1552.86 L1397.41 1520.52 L1406.99 1520.52 L1406.99 1568.04 L1400.72 1568.04 L1400.72 1526.32 L1388.47 1558.91 L1382.01 1558.91 L1369.76 1526.32 L1369.76 1568.04 L1363.52 1568.04 L1363.52 1520.52 Z" fill="#000000" fill-rule="nonzero" fill-opacity="1" /><path clip-path="url(#clip010)" d="M1450 1548.76 L1450 1551.62 L1423.07 1551.62 Q1423.45 1557.67 1426.7 1560.85 Q1429.97 1564 1435.8 1564 Q1439.17 1564 1442.32 1563.17 Q1445.51 1562.35 1448.63 1560.69 L1448.63 1566.23 Q1445.48 1567.57 1442.17 1568.27 Q1438.86 1568.97 1435.45 1568.97 Q1426.92 1568.97 1421.92 1564 Q1416.96 1559.04 1416.96 1550.57 Q1416.96 1541.82 1421.67 1536.69 Q1426.41 1531.54 1434.43 1531.54 Q1441.62 1531.54 1445.79 1536.18 Q1450 1540.8 1450 1548.76 M1444.14 1547.04 Q1444.07 1542.23 1441.43 1539.37 Q1438.82 1536.5 1434.49 1536.5 Q1429.59 1536.5 1426.63 1539.27 Q1423.7 1542.04 1423.26 1547.07 L1444.14 1547.04 Z" fill="#000000" fill-rule="nonzero" fill-opacity="1" /><path clip-path="url(#clip010)" d="M1487.36 1539.24 Q1489.56 1535.29 1492.61 1533.41 Q1495.67 1531.54 1499.81 1531.54 Q1505.38 1531.54 1508.4 1535.45 Q1511.42 1539.33 1511.42 1546.53 L1511.42 1568.04 L1505.54 1568.04 L1505.54 1546.72 Q1505.54 1541.59 1503.72 1539.11 Q1501.91 1536.63 1498.18 1536.63 Q1493.63 1536.63 1490.99 1539.65 Q1488.35 1542.68 1488.35 1547.9 L1488.35 1568.04 L1482.46 1568.04 L1482.46 1546.72 Q1482.46 1541.56 1480.65 1539.11 Q1478.83 1536.63 1475.04 1536.63 Q1470.56 1536.63 1467.91 1539.68 Q1465.27 1542.71 1465.27 1547.9 L1465.27 1568.04 L1459.38 1568.04 L1459.38 1532.4 L1465.27 1532.4 L1465.27 1537.93 Q1467.28 1534.66 1470.08 1533.1 Q1472.88 1531.54 1476.73 1531.54 Q1480.61 1531.54 1483.32 1533.51 Q1486.06 1535.48 1487.36 1539.24 Z" fill="#000000" fill-rule="nonzero" fill-opacity="1" /><path clip-path="url(#clip010)" d="M1548.7 1550.25 Q1548.7 1543.79 1546.02 1540.13 Q1543.38 1536.44 1538.73 1536.44 Q1534.09 1536.44 1531.41 1540.13 Q1528.77 1543.79 1528.77 1550.25 Q1528.77 1556.71 1531.41 1560.4 Q1534.09 1564.07 1538.73 1564.07 Q1543.38 1564.07 1546.02 1560.4 Q1548.7 1556.71 1548.7 1550.25 M1528.77 1537.81 Q1530.62 1534.62 1533.42 1533.1 Q1536.25 1531.54 1540.17 1531.54 Q1546.66 1531.54 1550.7 1536.69 Q1554.77 1541.85 1554.77 1550.25 Q1554.77 1558.65 1550.7 1563.81 Q1546.66 1568.97 1540.17 1568.97 Q1536.25 1568.97 1533.42 1567.44 Q1530.62 1565.88 1528.77 1562.7 L1528.77 1568.04 L1522.88 1568.04 L1522.88 1518.52 L1528.77 1518.52 L1528.77 1537.81 Z" fill="#000000" fill-rule="nonzero" fill-opacity="1" /><path clip-path="url(#clip010)" d="M1594.97 1548.76 L1594.97 1551.62 L1568.05 1551.62 Q1568.43 1557.67 1571.68 1560.85 Q1574.95 1564 1580.78 1564 Q1584.15 1564 1587.3 1563.17 Q1590.49 1562.35 1593.61 1560.69 L1593.61 1566.23 Q1590.45 1567.57 1587.14 1568.27 Q1583.83 1568.97 1580.43 1568.97 Q1571.9 1568.97 1566.9 1564 Q1561.94 1559.04 1561.94 1550.57 Q1561.94 1541.82 1566.65 1536.69 Q1571.39 1531.54 1579.41 1531.54 Q1586.6 1531.54 1590.77 1536.18 Q1594.97 1540.8 1594.97 1548.76 M1589.12 1547.04 Q1589.05 1542.23 1586.41 1539.37 Q1583.8 1536.5 1579.47 1536.5 Q1574.57 1536.5 1571.61 1539.27 Q1568.68 1542.04 1568.24 1547.07 L1589.12 1547.04 Z" fill="#000000" fill-rule="nonzero" fill-opacity="1" /><path clip-path="url(#clip010)" d="M1625.24 1537.87 Q1624.26 1537.3 1623.08 1537.04 Q1621.93 1536.76 1620.53 1536.76 Q1615.57 1536.76 1612.89 1540 Q1610.25 1543.22 1610.25 1549.27 L1610.25 1568.04 L1604.36 1568.04 L1604.36 1532.4 L1610.25 1532.4 L1610.25 1537.93 Q1612.1 1534.69 1615.06 1533.13 Q1618.02 1531.54 1622.25 1531.54 Q1622.86 1531.54 1623.59 1531.63 Q1624.32 1531.7 1625.21 1531.85 L1625.24 1537.87 Z" fill="#000000" fill-rule="nonzero" fill-opacity="1" /><polyline clip-path="url(#clip012)" style="stroke:#000000; stroke-linecap:round; stroke-linejoin:round; stroke-width:2; stroke-opacity:0.1; fill:none" points="235.283,1423.18 2352.76,1423.18 "/>
<polyline clip-path="url(#clip012)" style="stroke:#000000; stroke-linecap:round; stroke-linejoin:round; stroke-width:2; stroke-opacity:0.1; fill:none" points="235.283,1187.81 2352.76,1187.81 "/>
<polyline clip-path="url(#clip012)" style="stroke:#000000; stroke-linecap:round; stroke-linejoin:round; stroke-width:2; stroke-opacity:0.1; fill:none" points="235.283,952.442 2352.76,952.442 "/>
<polyline clip-path="url(#clip012)" style="stroke:#000000; stroke-linecap:round; stroke-linejoin:round; stroke-width:2; stroke-opacity:0.1; fill:none" points="235.283,717.072 2352.76,717.072 "/>
<polyline clip-path="url(#clip012)" style="stroke:#000000; stroke-linecap:round; stroke-linejoin:round; stroke-width:2; stroke-opacity:0.1; fill:none" points="235.283,481.703 2352.76,481.703 "/>
<polyline clip-path="url(#clip012)" style="stroke:#000000; stroke-linecap:round; stroke-linejoin:round; stroke-width:2; stroke-opacity:0.1; fill:none" points="235.283,246.334 2352.76,246.334 "/>
<polyline clip-path="url(#clip010)" style="stroke:#000000; stroke-linecap:round; stroke-linejoin:round; stroke-width:4; stroke-opacity:1; fill:none" points="235.283,1423.18 235.283,47.2441 "/>
<polyline clip-path="url(#clip010)" style="stroke:#000000; stroke-linecap:round; stroke-linejoin:round; stroke-width:4; stroke-opacity:1; fill:none" points="235.283,1423.18 254.18,1423.18 "/>
<polyline clip-path="url(#clip010)" style="stroke:#000000; stroke-linecap:round; stroke-linejoin:round; stroke-width:4; stroke-opacity:1; fill:none" points="235.283,1187.81 254.18,1187.81 "/>
<polyline clip-path="url(#clip010)" style="stroke:#000000; stroke-linecap:round; stroke-linejoin:round; stroke-width:4; stroke-opacity:1; fill:none" points="235.283,952.442 254.18,952.442 "/>
<polyline clip-path="url(#clip010)" style="stroke:#000000; stroke-linecap:round; stroke-linejoin:round; stroke-width:4; stroke-opacity:1; fill:none" points="235.283,717.072 254.18,717.072 "/>
<polyline clip-path="url(#clip010)" style="stroke:#000000; stroke-linecap:round; stroke-linejoin:round; stroke-width:4; stroke-opacity:1; fill:none" points="235.283,481.703 254.18,481.703 "/>
<polyline clip-path="url(#clip010)" style="stroke:#000000; stroke-linecap:round; stroke-linejoin:round; stroke-width:4; stroke-opacity:1; fill:none" points="235.283,246.334 254.18,246.334 "/>
<path clip-path="url(#clip010)" d="M187.338 1408.98 Q183.727 1408.98 181.899 1412.54 Q180.093 1416.08 180.093 1423.21 Q180.093 1430.32 181.899 1433.89 Q183.727 1437.43 187.338 1437.43 Q190.973 1437.43 192.778 1433.89 Q194.607 1430.32 194.607 1423.21 Q194.607 1416.08 192.778 1412.54 Q190.973 1408.98 187.338 1408.98 M187.338 1405.27 Q193.149 1405.27 196.204 1409.88 Q199.283 1414.46 199.283 1423.21 Q199.283 1431.94 196.204 1436.55 Q193.149 1441.13 187.338 1441.13 Q181.528 1441.13 178.45 1436.55 Q175.394 1431.94 175.394 1423.21 Q175.394 1414.46 178.45 1409.88 Q181.528 1405.27 187.338 1405.27 Z" fill="#000000" fill-rule="nonzero" fill-opacity="1" /><path clip-path="url(#clip010)" d="M117.825 1201.16 L125.464 1201.16 L125.464 1174.79 L117.154 1176.46 L117.154 1172.2 L125.418 1170.53 L130.093 1170.53 L130.093 1201.16 L137.732 1201.16 L137.732 1205.09 L117.825 1205.09 L117.825 1201.16 Z" fill="#000000" fill-rule="nonzero" fill-opacity="1" /><path clip-path="url(#clip010)" d="M157.177 1173.61 Q153.566 1173.61 151.737 1177.17 Q149.931 1180.72 149.931 1187.85 Q149.931 1194.95 151.737 1198.52 Q153.566 1202.06 157.177 1202.06 Q160.811 1202.06 162.616 1198.52 Q164.445 1194.95 164.445 1187.85 Q164.445 1180.72 162.616 1177.17 Q160.811 1173.61 157.177 1173.61 M157.177 1169.91 Q162.987 1169.91 166.042 1174.51 Q169.121 1179.1 169.121 1187.85 Q169.121 1196.57 166.042 1201.18 Q162.987 1205.76 157.177 1205.76 Q151.366 1205.76 148.288 1201.18 Q145.232 1196.57 145.232 1187.85 Q145.232 1179.1 148.288 1174.51 Q151.366 1169.91 157.177 1169.91 Z" fill="#000000" fill-rule="nonzero" fill-opacity="1" /><path clip-path="url(#clip010)" d="M187.338 1173.61 Q183.727 1173.61 181.899 1177.17 Q180.093 1180.72 180.093 1187.85 Q180.093 1194.95 181.899 1198.52 Q183.727 1202.06 187.338 1202.06 Q190.973 1202.06 192.778 1198.52 Q194.607 1194.95 194.607 1187.85 Q194.607 1180.72 192.778 1177.17 Q190.973 1173.61 187.338 1173.61 M187.338 1169.91 Q193.149 1169.91 196.204 1174.51 Q199.283 1179.1 199.283 1187.85 Q199.283 1196.57 196.204 1201.18 Q193.149 1205.76 187.338 1205.76 Q181.528 1205.76 178.45 1201.18 Q175.394 1196.57 175.394 1187.85 Q175.394 1179.1 178.45 1174.51 Q181.528 1169.91 187.338 1169.91 Z" fill="#000000" fill-rule="nonzero" fill-opacity="1" /><path clip-path="url(#clip010)" d="M121.043 965.786 L137.362 965.786 L137.362 969.722 L115.418 969.722 L115.418 965.786 Q118.08 963.032 122.663 958.402 Q127.269 953.749 128.45 952.407 Q130.695 949.884 131.575 948.148 Q132.478 946.388 132.478 944.698 Q132.478 941.944 130.533 940.208 Q128.612 938.472 125.51 938.472 Q123.311 938.472 120.857 939.236 Q118.427 939.999 115.649 941.55 L115.649 936.828 Q118.473 935.694 120.927 935.115 Q123.38 934.537 125.418 934.537 Q130.788 934.537 133.982 937.222 Q137.177 939.907 137.177 944.398 Q137.177 946.527 136.367 948.448 Q135.579 950.347 133.473 952.939 Q132.894 953.61 129.792 956.828 Q126.691 960.022 121.043 965.786 Z" fill="#000000" fill-rule="nonzero" fill-opacity="1" /><path clip-path="url(#clip010)" d="M157.177 938.24 Q153.566 938.24 151.737 941.805 Q149.931 945.347 149.931 952.476 Q149.931 959.583 151.737 963.147 Q153.566 966.689 157.177 966.689 Q160.811 966.689 162.616 963.147 Q164.445 959.583 164.445 952.476 Q164.445 945.347 162.616 941.805 Q160.811 938.24 157.177 938.24 M157.177 934.537 Q162.987 934.537 166.042 939.143 Q169.121 943.726 169.121 952.476 Q169.121 961.203 166.042 965.809 Q162.987 970.393 157.177 970.393 Q151.366 970.393 148.288 965.809 Q145.232 961.203 145.232 952.476 Q145.232 943.726 148.288 939.143 Q151.366 934.537 157.177 934.537 Z" fill="#000000" fill-rule="nonzero" fill-opacity="1" /><path clip-path="url(#clip010)" d="M187.338 938.24 Q183.727 938.24 181.899 941.805 Q180.093 945.347 180.093 952.476 Q180.093 959.583 181.899 963.147 Q183.727 966.689 187.338 966.689 Q190.973 966.689 192.778 963.147 Q194.607 959.583 194.607 952.476 Q194.607 945.347 192.778 941.805 Q190.973 938.24 187.338 938.24 M187.338 934.537 Q193.149 934.537 196.204 939.143 Q199.283 943.726 199.283 952.476 Q199.283 961.203 196.204 965.809 Q193.149 970.393 187.338 970.393 Q181.528 970.393 178.45 965.809 Q175.394 961.203 175.394 952.476 Q175.394 943.726 178.45 939.143 Q181.528 934.537 187.338 934.537 Z" fill="#000000" fill-rule="nonzero" fill-opacity="1" /><path clip-path="url(#clip010)" d="M131.181 715.718 Q134.538 716.436 136.413 718.704 Q138.311 720.973 138.311 724.306 Q138.311 729.422 134.792 732.223 Q131.274 735.024 124.793 735.024 Q122.617 735.024 120.302 734.584 Q118.01 734.167 115.556 733.311 L115.556 728.797 Q117.501 729.931 119.816 730.51 Q122.13 731.088 124.654 731.088 Q129.052 731.088 131.343 729.352 Q133.658 727.616 133.658 724.306 Q133.658 721.251 131.505 719.538 Q129.376 717.801 125.556 717.801 L121.529 717.801 L121.529 713.959 L125.742 713.959 Q129.191 713.959 131.019 712.593 Q132.848 711.204 132.848 708.612 Q132.848 705.95 130.95 704.538 Q129.075 703.102 125.556 703.102 Q123.635 703.102 121.436 703.519 Q119.237 703.936 116.598 704.815 L116.598 700.649 Q119.26 699.908 121.575 699.538 Q123.913 699.167 125.973 699.167 Q131.297 699.167 134.399 701.598 Q137.501 704.005 137.501 708.126 Q137.501 710.996 135.857 712.987 Q134.214 714.954 131.181 715.718 Z" fill="#000000" fill-rule="nonzero" fill-opacity="1" /><path clip-path="url(#clip010)" d="M157.177 702.871 Q153.566 702.871 151.737 706.436 Q149.931 709.977 149.931 717.107 Q149.931 724.213 151.737 727.778 Q153.566 731.32 157.177 731.32 Q160.811 731.32 162.616 727.778 Q164.445 724.213 164.445 717.107 Q164.445 709.977 162.616 706.436 Q160.811 702.871 157.177 702.871 M157.177 699.167 Q162.987 699.167 166.042 703.774 Q169.121 708.357 169.121 717.107 Q169.121 725.834 166.042 730.44 Q162.987 735.024 157.177 735.024 Q151.366 735.024 148.288 730.44 Q145.232 725.834 145.232 717.107 Q145.232 708.357 148.288 703.774 Q151.366 699.167 157.177 699.167 Z" fill="#000000" fill-rule="nonzero" fill-opacity="1" /><path clip-path="url(#clip010)" d="M187.338 702.871 Q183.727 702.871 181.899 706.436 Q180.093 709.977 180.093 717.107 Q180.093 724.213 181.899 727.778 Q183.727 731.32 187.338 731.32 Q190.973 731.32 192.778 727.778 Q194.607 724.213 194.607 717.107 Q194.607 709.977 192.778 706.436 Q190.973 702.871 187.338 702.871 M187.338 699.167 Q193.149 699.167 196.204 703.774 Q199.283 708.357 199.283 717.107 Q199.283 725.834 196.204 730.44 Q193.149 735.024 187.338 735.024 Q181.528 735.024 178.45 730.44 Q175.394 725.834 175.394 717.107 Q175.394 708.357 178.45 703.774 Q181.528 699.167 187.338 699.167 Z" fill="#000000" fill-rule="nonzero" fill-opacity="1" /><path clip-path="url(#clip010)" d="M129.862 468.497 L118.056 486.946 L129.862 486.946 L129.862 468.497 M128.635 464.423 L134.515 464.423 L134.515 486.946 L139.445 486.946 L139.445 490.835 L134.515 490.835 L134.515 498.983 L129.862 498.983 L129.862 490.835 L114.26 490.835 L114.26 486.321 L128.635 464.423 Z" fill="#000000" fill-rule="nonzero" fill-opacity="1" /><path clip-path="url(#clip010)" d="M157.177 467.502 Q153.566 467.502 151.737 471.067 Q149.931 474.608 149.931 481.738 Q149.931 488.844 151.737 492.409 Q153.566 495.951 157.177 495.951 Q160.811 495.951 162.616 492.409 Q164.445 488.844 164.445 481.738 Q164.445 474.608 162.616 471.067 Q160.811 467.502 157.177 467.502 M157.177 463.798 Q162.987 463.798 166.042 468.405 Q169.121 472.988 169.121 481.738 Q169.121 490.465 166.042 495.071 Q162.987 499.654 157.177 499.654 Q151.366 499.654 148.288 495.071 Q145.232 490.465 145.232 481.738 Q145.232 472.988 148.288 468.405 Q151.366 463.798 157.177 463.798 Z" fill="#000000" fill-rule="nonzero" fill-opacity="1" /><path clip-path="url(#clip010)" d="M187.338 467.502 Q183.727 467.502 181.899 471.067 Q180.093 474.608 180.093 481.738 Q180.093 488.844 181.899 492.409 Q183.727 495.951 187.338 495.951 Q190.973 495.951 192.778 492.409 Q194.607 488.844 194.607 481.738 Q194.607 474.608 192.778 471.067 Q190.973 467.502 187.338 467.502 M187.338 463.798 Q193.149 463.798 196.204 468.405 Q199.283 472.988 199.283 481.738 Q199.283 490.465 196.204 495.071 Q193.149 499.654 187.338 499.654 Q181.528 499.654 178.45 495.071 Q175.394 490.465 175.394 481.738 Q175.394 472.988 178.45 468.405 Q181.528 463.798 187.338 463.798 Z" fill="#000000" fill-rule="nonzero" fill-opacity="1" /><path clip-path="url(#clip010)" d="M117.061 229.054 L135.417 229.054 L135.417 232.989 L121.343 232.989 L121.343 241.461 Q122.362 241.114 123.38 240.952 Q124.399 240.767 125.418 240.767 Q131.205 240.767 134.584 243.938 Q137.964 247.109 137.964 252.526 Q137.964 258.105 134.492 261.207 Q131.019 264.285 124.7 264.285 Q122.524 264.285 120.255 263.915 Q118.01 263.545 115.603 262.804 L115.603 258.105 Q117.686 259.239 119.908 259.795 Q122.13 260.35 124.607 260.35 Q128.612 260.35 130.95 258.244 Q133.288 256.137 133.288 252.526 Q133.288 248.915 130.95 246.809 Q128.612 244.702 124.607 244.702 Q122.732 244.702 120.857 245.119 Q119.006 245.535 117.061 246.415 L117.061 229.054 Z" fill="#000000" fill-rule="nonzero" fill-opacity="1" /><path clip-path="url(#clip010)" d="M157.177 232.133 Q153.566 232.133 151.737 235.697 Q149.931 239.239 149.931 246.369 Q149.931 253.475 151.737 257.04 Q153.566 260.582 157.177 260.582 Q160.811 260.582 162.616 257.04 Q164.445 253.475 164.445 246.369 Q164.445 239.239 162.616 235.697 Q160.811 232.133 157.177 232.133 M157.177 228.429 Q162.987 228.429 166.042 233.035 Q169.121 237.619 169.121 246.369 Q169.121 255.096 166.042 259.702 Q162.987 264.285 157.177 264.285 Q151.366 264.285 148.288 259.702 Q145.232 255.096 145.232 246.369 Q145.232 237.619 148.288 233.035 Q151.366 228.429 157.177 228.429 Z" fill="#000000" fill-rule="nonzero" fill-opacity="1" /><path clip-path="url(#clip010)" d="M187.338 232.133 Q183.727 232.133 181.899 235.697 Q180.093 239.239 180.093 246.369 Q180.093 253.475 181.899 257.04 Q183.727 260.582 187.338 260.582 Q190.973 260.582 192.778 257.04 Q194.607 253.475 194.607 246.369 Q194.607 239.239 192.778 235.697 Q190.973 232.133 187.338 232.133 M187.338 228.429 Q193.149 228.429 196.204 233.035 Q199.283 237.619 199.283 246.369 Q199.283 255.096 196.204 259.702 Q193.149 264.285 187.338 264.285 Q181.528 264.285 178.45 259.702 Q175.394 255.096 175.394 246.369 Q175.394 237.619 178.45 233.035 Q181.528 228.429 187.338 228.429 Z" fill="#000000" fill-rule="nonzero" fill-opacity="1" /><path clip-path="url(#clip010)" d="M41.3104 1355.98 L58.7206 1355.98 L58.7206 1345.67 Q58.7206 1340.48 56.5881 1338 Q54.4238 1335.48 49.9996 1335.48 Q45.5436 1335.48 43.4429 1338 Q41.3104 1340.48 41.3104 1345.67 L41.3104 1355.98 M21.7677 1355.98 L36.0905 1355.98 L36.0905 1346.46 Q36.0905 1341.75 34.34 1339.46 Q32.5576 1337.14 28.9291 1337.14 Q25.3325 1337.14 23.5501 1339.46 Q21.7677 1341.75 21.7677 1346.46 L21.7677 1355.98 M16.4842 1362.41 L16.4842 1345.99 Q16.4842 1338.63 19.5397 1334.65 Q22.5952 1330.68 28.2289 1330.68 Q32.5894 1330.68 35.1675 1332.71 Q37.7456 1334.75 38.3822 1338.7 Q39.4007 1333.95 42.6472 1331.34 Q45.8619 1328.7 50.6998 1328.7 Q57.0655 1328.7 60.5348 1333.03 Q64.0042 1337.36 64.0042 1345.35 L64.0042 1362.41 L16.4842 1362.41 Z" fill="#000000" fill-rule="nonzero" fill-opacity="1" /><path clip-path="url(#clip010)" d="M44.7161 1287.45 L47.5806 1287.45 L47.5806 1314.38 Q53.6281 1314 56.8109 1310.75 Q59.9619 1307.47 59.9619 1301.65 Q59.9619 1298.27 59.1344 1295.12 Q58.3069 1291.94 56.6518 1288.82 L62.1899 1288.82 Q63.5267 1291.97 64.227 1295.28 Q64.9272 1298.59 64.9272 1302 Q64.9272 1310.53 59.9619 1315.53 Q54.9967 1320.49 46.5303 1320.49 Q37.7774 1320.49 32.6531 1315.78 Q27.4968 1311.04 27.4968 1303.02 Q27.4968 1295.82 32.1438 1291.65 Q36.7589 1287.45 44.7161 1287.45 M42.9973 1293.31 Q38.1912 1293.37 35.3266 1296.01 Q32.4621 1298.62 32.4621 1302.95 Q32.4621 1307.86 35.2312 1310.82 Q38.0002 1313.74 43.0292 1314.19 L42.9973 1293.31 Z" fill="#000000" fill-rule="nonzero" fill-opacity="1" /><path clip-path="url(#clip010)" d="M42.4881 1248.21 L64.0042 1248.21 L64.0042 1254.06 L42.679 1254.06 Q37.6183 1254.06 35.1038 1256.04 Q32.5894 1258.01 32.5894 1261.96 Q32.5894 1266.7 35.6131 1269.44 Q38.6368 1272.18 43.8567 1272.18 L64.0042 1272.18 L64.0042 1278.06 L28.3562 1278.06 L28.3562 1272.18 L33.8944 1272.18 Q30.6797 1270.07 29.0883 1267.24 Q27.4968 1264.38 27.4968 1260.65 Q27.4968 1254.51 31.3163 1251.36 Q35.1038 1248.21 42.4881 1248.21 Z" fill="#000000" fill-rule="nonzero" fill-opacity="1" /><path clip-path="url(#clip010)" d="M44.7161 1206.04 L47.5806 1206.04 L47.5806 1232.96 Q53.6281 1232.58 56.8109 1229.33 Q59.9619 1226.06 59.9619 1220.23 Q59.9619 1216.86 59.1344 1213.71 Q58.3069 1210.52 56.6518 1207.4 L62.1899 1207.4 Q63.5267 1210.56 64.227 1213.87 Q64.9272 1217.18 64.9272 1220.58 Q64.9272 1229.11 59.9619 1234.11 Q54.9967 1239.07 46.5303 1239.07 Q37.7774 1239.07 32.6531 1234.36 Q27.4968 1229.62 27.4968 1221.6 Q27.4968 1214.41 32.1438 1210.24 Q36.7589 1206.04 44.7161 1206.04 M42.9973 1211.89 Q38.1912 1211.96 35.3266 1214.6 Q32.4621 1217.21 32.4621 1221.54 Q32.4621 1226.44 35.2312 1229.4 Q38.0002 1232.33 43.0292 1232.77 L42.9973 1211.89 Z" fill="#000000" fill-rule="nonzero" fill-opacity="1" /><path clip-path="url(#clip010)" d="M14.479 1178.38 L19.3487 1178.38 L19.3487 1183.98 Q19.3487 1187.13 20.6219 1188.37 Q21.895 1189.58 25.2052 1189.58 L28.3562 1189.58 L28.3562 1179.94 L32.9077 1179.94 L32.9077 1189.58 L64.0042 1189.58 L64.0042 1195.47 L32.9077 1195.47 L32.9077 1201.07 L28.3562 1201.07 L28.3562 1195.47 L25.8736 1195.47 Q19.9216 1195.47 17.2162 1192.7 Q14.479 1189.93 14.479 1183.91 L14.479 1178.38 Z" fill="#000000" fill-rule="nonzero" fill-opacity="1" /><path clip-path="url(#clip010)" d="M28.3562 1173.47 L28.3562 1167.62 L64.0042 1167.62 L64.0042 1173.47 L28.3562 1173.47 M14.479 1173.47 L14.479 1167.62 L21.895 1167.62 L21.895 1173.47 L14.479 1173.47 Z" fill="#000000" fill-rule="nonzero" fill-opacity="1" /><path clip-path="url(#clip010)" d="M18.2347 1149.57 L28.3562 1149.57 L28.3562 1137.51 L32.9077 1137.51 L32.9077 1149.57 L52.2594 1149.57 Q56.6199 1149.57 57.8613 1148.39 Q59.1026 1147.18 59.1026 1143.52 L59.1026 1137.51 L64.0042 1137.51 L64.0042 1143.52 Q64.0042 1150.3 61.4897 1152.88 Q58.9434 1155.46 52.2594 1155.46 L32.9077 1155.46 L32.9077 1159.76 L28.3562 1159.76 L28.3562 1155.46 L18.2347 1155.46 L18.2347 1149.57 Z" fill="#000000" fill-rule="nonzero" fill-opacity="1" /><path clip-path="url(#clip010)" d="M29.7248 1083.43 L35.1993 1083.43 Q33.8307 1085.91 33.1623 1088.43 Q32.4621 1090.91 32.4621 1093.46 Q32.4621 1099.16 36.0905 1102.31 Q39.6872 1105.46 46.212 1105.46 Q52.7369 1105.46 56.3653 1102.31 Q59.9619 1099.16 59.9619 1093.46 Q59.9619 1090.91 59.2935 1088.43 Q58.5933 1085.91 57.2247 1083.43 L62.6355 1083.43 Q63.7814 1085.88 64.3543 1088.52 Q64.9272 1091.13 64.9272 1094.09 Q64.9272 1102.15 59.8664 1106.89 Q54.8057 1111.63 46.212 1111.63 Q37.491 1111.63 32.4939 1106.86 Q27.4968 1102.05 27.4968 1093.71 Q27.4968 1091.01 28.0697 1088.43 Q28.6108 1085.85 29.7248 1083.43 Z" fill="#000000" fill-rule="nonzero" fill-opacity="1" /><path clip-path="url(#clip010)" d="M32.4621 1059.43 Q32.4621 1064.14 36.1542 1066.88 Q39.8145 1069.62 46.212 1069.62 Q52.6095 1069.62 56.3017 1066.91 Q59.9619 1064.18 59.9619 1059.43 Q59.9619 1054.75 56.2698 1052.02 Q52.5777 1049.28 46.212 1049.28 Q39.8781 1049.28 36.186 1052.02 Q32.4621 1054.75 32.4621 1059.43 M27.4968 1059.43 Q27.4968 1051.79 32.4621 1047.43 Q37.4273 1043.07 46.212 1043.07 Q54.9649 1043.07 59.9619 1047.43 Q64.9272 1051.79 64.9272 1059.43 Q64.9272 1067.1 59.9619 1071.46 Q54.9649 1075.79 46.212 1075.79 Q37.4273 1075.79 32.4621 1071.46 Q27.4968 1067.1 27.4968 1059.43 Z" fill="#000000" fill-rule="nonzero" fill-opacity="1" /><path clip-path="url(#clip010)" d="M35.1993 1005.61 Q31.2526 1003.42 29.3747 1000.36 Q27.4968 997.304 27.4968 993.166 Q27.4968 987.596 31.4117 984.573 Q35.2948 981.549 42.4881 981.549 L64.0042 981.549 L64.0042 987.437 L42.679 987.437 Q37.5546 987.437 35.072 989.251 Q32.5894 991.066 32.5894 994.79 Q32.5894 999.341 35.6131 1001.98 Q38.6368 1004.62 43.8567 1004.62 L64.0042 1004.62 L64.0042 1010.51 L42.679 1010.51 Q37.5228 1010.51 35.072 1012.33 Q32.5894 1014.14 32.5894 1017.93 Q32.5894 1022.42 35.6449 1025.06 Q38.6686 1027.7 43.8567 1027.7 L64.0042 1027.7 L64.0042 1033.59 L28.3562 1033.59 L28.3562 1027.7 L33.8944 1027.7 Q30.616 1025.7 29.0564 1022.89 Q27.4968 1020.09 27.4968 1016.24 Q27.4968 1012.36 29.4702 1009.65 Q31.4436 1006.92 35.1993 1005.61 Z" fill="#000000" fill-rule="nonzero" fill-opacity="1" /><path clip-path="url(#clip010)" d="M58.657 964.202 L77.5631 964.202 L77.5631 970.091 L28.3562 970.091 L28.3562 964.202 L33.7671 964.202 Q30.5842 962.356 29.0564 959.555 Q27.4968 956.723 27.4968 952.808 Q27.4968 946.315 32.6531 942.272 Q37.8093 938.198 46.212 938.198 Q54.6147 938.198 59.771 942.272 Q64.9272 946.315 64.9272 952.808 Q64.9272 956.723 63.3994 959.555 Q61.8398 962.356 58.657 964.202 M46.212 944.278 Q39.7508 944.278 36.0905 946.951 Q32.3984 949.593 32.3984 954.24 Q32.3984 958.887 36.0905 961.561 Q39.7508 964.202 46.212 964.202 Q52.6732 964.202 56.3653 961.561 Q60.0256 958.887 60.0256 954.24 Q60.0256 949.593 56.3653 946.951 Q52.6732 944.278 46.212 944.278 Z" fill="#000000" fill-rule="nonzero" fill-opacity="1" /><path clip-path="url(#clip010)" d="M46.0847 912.29 Q46.0847 919.388 47.7079 922.125 Q49.3312 924.862 53.2461 924.862 Q56.3653 924.862 58.2114 922.825 Q60.0256 920.756 60.0256 917.223 Q60.0256 912.354 56.5881 909.425 Q53.1188 906.465 47.3897 906.465 L46.0847 906.465 L46.0847 912.29 M43.6657 900.609 L64.0042 900.609 L64.0042 906.465 L58.5933 906.465 Q61.8398 908.471 63.3994 911.462 Q64.9272 914.454 64.9272 918.783 Q64.9272 924.258 61.8716 927.504 Q58.7843 930.719 53.6281 930.719 Q47.6125 930.719 44.5569 926.708 Q41.5014 922.666 41.5014 914.677 L41.5014 906.465 L40.9285 906.465 Q36.8862 906.465 34.6901 909.139 Q32.4621 911.781 32.4621 916.587 Q32.4621 919.642 33.1941 922.539 Q33.9262 925.435 35.3903 928.109 L29.9795 928.109 Q28.7381 924.894 28.1334 921.87 Q27.4968 918.847 27.4968 915.982 Q27.4968 908.248 31.5072 904.428 Q35.5176 900.609 43.6657 900.609 Z" fill="#000000" fill-rule="nonzero" fill-opacity="1" /><path clip-path="url(#clip010)" d="M33.8307 867.889 Q33.2578 868.876 33.0032 870.054 Q32.7167 871.199 32.7167 872.6 Q32.7167 877.565 35.9632 880.239 Q39.1779 882.88 45.2253 882.88 L64.0042 882.88 L64.0042 888.769 L28.3562 888.769 L28.3562 882.88 L33.8944 882.88 Q30.6479 881.034 29.0883 878.074 Q27.4968 875.114 27.4968 870.881 Q27.4968 870.276 27.5923 869.544 Q27.656 868.812 27.8151 867.921 L33.8307 867.889 Z" fill="#000000" fill-rule="nonzero" fill-opacity="1" /><path clip-path="url(#clip010)" d="M44.7161 832.687 L47.5806 832.687 L47.5806 859.614 Q53.6281 859.232 56.8109 855.985 Q59.9619 852.707 59.9619 846.882 Q59.9619 843.509 59.1344 840.358 Q58.3069 837.175 56.6518 834.055 L62.1899 834.055 Q63.5267 837.207 64.227 840.517 Q64.9272 843.827 64.9272 847.232 Q64.9272 855.763 59.9619 860.76 Q54.9967 865.725 46.5303 865.725 Q37.7774 865.725 32.6531 861.014 Q27.4968 856.272 27.4968 848.251 Q27.4968 841.058 32.1438 836.888 Q36.7589 832.687 44.7161 832.687 M42.9973 838.543 Q38.1912 838.607 35.3266 841.249 Q32.4621 843.859 32.4621 848.187 Q32.4621 853.089 35.2312 856.049 Q38.0002 858.977 43.0292 859.423 L42.9973 838.543 Z" fill="#000000" fill-rule="nonzero" fill-opacity="1" /><path clip-path="url(#clip010)" d="M33.7671 799.617 L14.479 799.617 L14.479 793.761 L64.0042 793.761 L64.0042 799.617 L58.657 799.617 Q61.8398 801.463 63.3994 804.296 Q64.9272 807.097 64.9272 811.043 Q64.9272 817.505 59.771 821.579 Q54.6147 825.621 46.212 825.621 Q37.8093 825.621 32.6531 821.579 Q27.4968 817.505 27.4968 811.043 Q27.4968 807.097 29.0564 804.296 Q30.5842 801.463 33.7671 799.617 M46.212 819.573 Q52.6732 819.573 56.3653 816.932 Q60.0256 814.258 60.0256 809.611 Q60.0256 804.964 56.3653 802.291 Q52.6732 799.617 46.212 799.617 Q39.7508 799.617 36.0905 802.291 Q32.3984 804.964 32.3984 809.611 Q32.3984 814.258 36.0905 816.932 Q39.7508 819.573 46.212 819.573 Z" fill="#000000" fill-rule="nonzero" fill-opacity="1" /><path clip-path="url(#clip010)" d="M18.2347 755.184 L28.3562 755.184 L28.3562 743.121 L32.9077 743.121 L32.9077 755.184 L52.2594 755.184 Q56.6199 755.184 57.8613 754.007 Q59.1026 752.797 59.1026 749.137 L59.1026 743.121 L64.0042 743.121 L64.0042 749.137 Q64.0042 755.916 61.4897 758.495 Q58.9434 761.073 52.2594 761.073 L32.9077 761.073 L32.9077 765.37 L28.3562 765.37 L28.3562 761.073 L18.2347 761.073 L18.2347 755.184 Z" fill="#000000" fill-rule="nonzero" fill-opacity="1" /><path clip-path="url(#clip010)" d="M32.4621 721.605 Q32.4621 726.316 36.1542 729.053 Q39.8145 731.79 46.212 731.79 Q52.6095 731.79 56.3017 729.085 Q59.9619 726.348 59.9619 721.605 Q59.9619 716.926 56.2698 714.189 Q52.5777 711.452 46.212 711.452 Q39.8781 711.452 36.186 714.189 Q32.4621 716.926 32.4621 721.605 M27.4968 721.605 Q27.4968 713.966 32.4621 709.606 Q37.4273 705.245 46.212 705.245 Q54.9649 705.245 59.9619 709.606 Q64.9272 713.966 64.9272 721.605 Q64.9272 729.276 59.9619 733.636 Q54.9649 737.965 46.212 737.965 Q37.4273 737.965 32.4621 733.636 Q27.4968 729.276 27.4968 721.605 Z" fill="#000000" fill-rule="nonzero" fill-opacity="1" /><path clip-path="url(#clip010)" d="M41.3104 668.133 L58.7206 668.133 L58.7206 657.821 Q58.7206 652.633 56.5881 650.15 Q54.4238 647.636 49.9996 647.636 Q45.5436 647.636 43.4429 650.15 Q41.3104 652.633 41.3104 657.821 L41.3104 668.133 M21.7677 668.133 L36.0905 668.133 L36.0905 658.617 Q36.0905 653.906 34.34 651.614 Q32.5576 649.291 28.9291 649.291 Q25.3325 649.291 23.5501 651.614 Q21.7677 653.906 21.7677 658.617 L21.7677 668.133 M16.4842 674.563 L16.4842 658.139 Q16.4842 650.787 19.5397 646.808 Q22.5952 642.83 28.2289 642.83 Q32.5894 642.83 35.1675 644.867 Q37.7456 646.904 38.3822 650.85 Q39.4007 646.108 42.6472 643.498 Q45.8619 640.856 50.6998 640.856 Q57.0655 640.856 60.5348 645.185 Q64.0042 649.514 64.0042 657.503 L64.0042 674.563 L16.4842 674.563 Z" fill="#000000" fill-rule="nonzero" fill-opacity="1" /><path clip-path="url(#clip010)" d="M44.7161 599.607 L47.5806 599.607 L47.5806 626.533 Q53.6281 626.151 56.8109 622.905 Q59.9619 619.627 59.9619 613.802 Q59.9619 610.428 59.1344 607.277 Q58.3069 604.094 56.6518 600.975 L62.1899 600.975 Q63.5267 604.126 64.227 607.436 Q64.9272 610.746 64.9272 614.152 Q64.9272 622.682 59.9619 627.679 Q54.9967 632.645 46.5303 632.645 Q37.7774 632.645 32.6531 627.934 Q27.4968 623.191 27.4968 615.171 Q27.4968 607.977 32.1438 603.808 Q36.7589 599.607 44.7161 599.607 M42.9973 605.463 Q38.1912 605.527 35.3266 608.168 Q32.4621 610.778 32.4621 615.107 Q32.4621 620.009 35.2312 622.969 Q38.0002 625.897 43.0292 626.342 L42.9973 605.463 Z" fill="#000000" fill-rule="nonzero" fill-opacity="1" /><path clip-path="url(#clip010)" d="M42.4881 560.362 L64.0042 560.362 L64.0042 566.218 L42.679 566.218 Q37.6183 566.218 35.1038 568.192 Q32.5894 570.165 32.5894 574.112 Q32.5894 578.854 35.6131 581.592 Q38.6368 584.329 43.8567 584.329 L64.0042 584.329 L64.0042 590.217 L28.3562 590.217 L28.3562 584.329 L33.8944 584.329 Q30.6797 582.228 29.0883 579.395 Q27.4968 576.531 27.4968 572.807 Q27.4968 566.664 31.3163 563.513 Q35.1038 560.362 42.4881 560.362 Z" fill="#000000" fill-rule="nonzero" fill-opacity="1" /><path clip-path="url(#clip010)" d="M29.7248 523.027 L35.1993 523.027 Q33.8307 525.51 33.1623 528.024 Q32.4621 530.507 32.4621 533.053 Q32.4621 538.75 36.0905 541.901 Q39.6872 545.052 46.212 545.052 Q52.7369 545.052 56.3653 541.901 Q59.9619 538.75 59.9619 533.053 Q59.9619 530.507 59.2935 528.024 Q58.5933 525.51 57.2247 523.027 L62.6355 523.027 Q63.7814 525.478 64.3543 528.12 Q64.9272 530.73 64.9272 533.69 Q64.9272 541.742 59.8664 546.485 Q54.8057 551.227 46.212 551.227 Q37.491 551.227 32.4939 546.453 Q27.4968 541.647 27.4968 533.308 Q27.4968 530.602 28.0697 528.024 Q28.6108 525.446 29.7248 523.027 Z" fill="#000000" fill-rule="nonzero" fill-opacity="1" /><path clip-path="url(#clip010)" d="M42.4881 483.21 L64.0042 483.21 L64.0042 489.066 L42.679 489.066 Q37.6183 489.066 35.1038 491.039 Q32.5894 493.013 32.5894 496.959 Q32.5894 501.702 35.6131 504.439 Q38.6368 507.176 43.8567 507.176 L64.0042 507.176 L64.0042 513.065 L14.479 513.065 L14.479 507.176 L33.8944 507.176 Q30.6797 505.076 29.0883 502.243 Q27.4968 499.378 27.4968 495.655 Q27.4968 489.512 31.3163 486.361 Q35.1038 483.21 42.4881 483.21 Z" fill="#000000" fill-rule="nonzero" fill-opacity="1" /><path clip-path="url(#clip010)" d="M35.1993 443.774 Q31.2526 441.578 29.3747 438.522 Q27.4968 435.467 27.4968 431.329 Q27.4968 425.759 31.4117 422.735 Q35.2948 419.712 42.4881 419.712 L64.0042 419.712 L64.0042 425.6 L42.679 425.6 Q37.5546 425.6 35.072 427.414 Q32.5894 429.228 32.5894 432.952 Q32.5894 437.504 35.6131 440.146 Q38.6368 442.787 43.8567 442.787 L64.0042 442.787 L64.0042 448.676 L42.679 448.676 Q37.5228 448.676 35.072 450.49 Q32.5894 452.304 32.5894 456.092 Q32.5894 460.579 35.6449 463.221 Q38.6686 465.863 43.8567 465.863 L64.0042 465.863 L64.0042 471.751 L28.3562 471.751 L28.3562 465.863 L33.8944 465.863 Q30.616 463.858 29.0564 461.057 Q27.4968 458.256 27.4968 454.405 Q27.4968 450.522 29.4702 447.816 Q31.4436 445.079 35.1993 443.774 Z" fill="#000000" fill-rule="nonzero" fill-opacity="1" /><path clip-path="url(#clip010)" d="M46.0847 391.83 Q46.0847 398.928 47.7079 401.665 Q49.3312 404.402 53.2461 404.402 Q56.3653 404.402 58.2114 402.365 Q60.0256 400.296 60.0256 396.763 Q60.0256 391.893 56.5881 388.965 Q53.1188 386.005 47.3897 386.005 L46.0847 386.005 L46.0847 391.83 M43.6657 380.149 L64.0042 380.149 L64.0042 386.005 L58.5933 386.005 Q61.8398 388.01 63.3994 391.002 Q64.9272 393.994 64.9272 398.323 Q64.9272 403.797 61.8716 407.044 Q58.7843 410.259 53.6281 410.259 Q47.6125 410.259 44.5569 406.248 Q41.5014 402.206 41.5014 394.217 L41.5014 386.005 L40.9285 386.005 Q36.8862 386.005 34.6901 388.679 Q32.4621 391.321 32.4621 396.127 Q32.4621 399.182 33.1941 402.079 Q33.9262 404.975 35.3903 407.649 L29.9795 407.649 Q28.7381 404.434 28.1334 401.41 Q27.4968 398.387 27.4968 395.522 Q27.4968 387.788 31.5072 383.968 Q35.5176 380.149 43.6657 380.149 Z" fill="#000000" fill-rule="nonzero" fill-opacity="1" /><path clip-path="url(#clip010)" d="M33.8307 347.429 Q33.2578 348.416 33.0032 349.593 Q32.7167 350.739 32.7167 352.14 Q32.7167 357.105 35.9632 359.779 Q39.1779 362.42 45.2253 362.42 L64.0042 362.42 L64.0042 368.309 L28.3562 368.309 L28.3562 362.42 L33.8944 362.42 Q30.6479 360.574 29.0883 357.614 Q27.4968 354.654 27.4968 350.421 Q27.4968 349.816 27.5923 349.084 Q27.656 348.352 27.8151 347.461 L33.8307 347.429 Z" fill="#000000" fill-rule="nonzero" fill-opacity="1" /><path clip-path="url(#clip010)" d="M14.479 341.509 L14.479 335.621 L43.7294 335.621 L28.3562 318.147 L28.3562 310.667 L45.0344 329.573 L64.0042 309.871 L64.0042 317.51 L46.5939 335.621 L64.0042 335.621 L64.0042 341.509 L14.479 341.509 Z" fill="#000000" fill-rule="nonzero" fill-opacity="1" /><path clip-path="url(#clip010)" d="M14.479 283.358 L14.479 269.863 L19.0304 269.863 L19.0304 277.502 L68.0464 277.502 L68.0464 269.863 L72.5979 269.863 L72.5979 283.358 L14.479 283.358 Z" fill="#000000" fill-rule="nonzero" fill-opacity="1" /><path clip-path="url(#clip010)" d="M21.7677 250.702 L58.7206 250.702 L58.7206 242.936 Q58.7206 233.101 54.2646 228.549 Q49.8086 223.966 40.1964 223.966 Q30.6479 223.966 26.2237 228.549 Q21.7677 233.101 21.7677 242.936 L21.7677 250.702 M16.4842 257.131 L16.4842 243.923 Q16.4842 230.109 22.2451 223.648 Q27.9743 217.187 40.1964 217.187 Q52.4822 217.187 58.2432 223.68 Q64.0042 230.173 64.0042 243.923 L64.0042 257.131 L16.4842 257.131 Z" fill="#000000" fill-rule="nonzero" fill-opacity="1" /><path clip-path="url(#clip010)" d="M16.4842 206.938 L16.4842 200.509 L36.568 200.509 L16.4842 179.183 L16.4842 170.908 L38.6368 194.493 L64.0042 169.221 L64.0042 177.687 L41.1194 200.509 L64.0042 200.509 L64.0042 206.938 L16.4842 206.938 Z" fill="#000000" fill-rule="nonzero" fill-opacity="1" /><path clip-path="url(#clip010)" d="M16.4842 164.192 L16.4842 157.763 L36.568 157.763 L16.4842 136.438 L16.4842 128.162 L38.6368 151.747 L64.0042 126.475 L64.0042 134.942 L41.1194 157.763 L64.0042 157.763 L64.0042 164.192 L16.4842 164.192 Z" fill="#000000" fill-rule="nonzero" fill-opacity="1" /><path clip-path="url(#clip010)" d="M14.479 108.015 L72.5979 108.015 L72.5979 121.51 L68.0464 121.51 L68.0464 113.903 L19.0304 113.903 L19.0304 121.51 L14.479 121.51 L14.479 108.015 Z" fill="#000000" fill-rule="nonzero" fill-opacity="1" /><path clip-path="url(#clip012)" d="M349.682 1145.2 L349.682 1423.18 L386.178 1423.18 L386.178 1145.2 L349.682 1145.2 L349.682 1145.2  Z" fill="#009af9" fill-rule="evenodd" fill-opacity="1"/>
<polyline clip-path="url(#clip012)" style="stroke:#000000; stroke-linecap:round; stroke-linejoin:round; stroke-width:4; stroke-opacity:1; fill:none" points="349.682,1145.2 349.682,1423.18 386.178,1423.18 386.178,1145.2 349.682,1145.2 "/>
<path clip-path="url(#clip012)" d="M486.542 47.2441 L486.542 1423.18 L523.038 1423.18 L523.038 47.2441 L486.542 47.2441 L486.542 47.2441  Z" fill="#009af9" fill-rule="evenodd" fill-opacity="1"/>
<polyline clip-path="url(#clip012)" style="stroke:#000000; stroke-linecap:round; stroke-linejoin:round; stroke-width:4; stroke-opacity:1; fill:none" points="486.542,47.2441 486.542,1423.18 523.038,1423.18 523.038,47.2441 486.542,47.2441 "/>
<path clip-path="url(#clip012)" d="M623.403 753.204 L623.403 1423.18 L659.899 1423.18 L659.899 753.204 L623.403 753.204 L623.403 753.204  Z" fill="#009af9" fill-rule="evenodd" fill-opacity="1"/>
<polyline clip-path="url(#clip012)" style="stroke:#000000; stroke-linecap:round; stroke-linejoin:round; stroke-width:4; stroke-opacity:1; fill:none" points="623.403,753.204 623.403,1423.18 659.899,1423.18 659.899,753.204 623.403,753.204 "/>
<path clip-path="url(#clip012)" d="M760.263 756.378 L760.263 1423.18 L796.76 1423.18 L796.76 756.378 L760.263 756.378 L760.263 756.378  Z" fill="#009af9" fill-rule="evenodd" fill-opacity="1"/>
<polyline clip-path="url(#clip012)" style="stroke:#000000; stroke-linecap:round; stroke-linejoin:round; stroke-width:4; stroke-opacity:1; fill:none" points="760.263,756.378 760.263,1423.18 796.76,1423.18 796.76,756.378 760.263,756.378 "/>
<path clip-path="url(#clip012)" d="M897.124 1190.23 L897.124 1423.18 L933.62 1423.18 L933.62 1190.23 L897.124 1190.23 L897.124 1190.23  Z" fill="#009af9" fill-rule="evenodd" fill-opacity="1"/>
<polyline clip-path="url(#clip012)" style="stroke:#000000; stroke-linecap:round; stroke-linejoin:round; stroke-width:4; stroke-opacity:1; fill:none" points="897.124,1190.23 897.124,1423.18 933.62,1423.18 933.62,1190.23 897.124,1190.23 "/>
<path clip-path="url(#clip012)" d="M1033.98 77.342 L1033.98 1423.18 L1070.48 1423.18 L1070.48 77.342 L1033.98 77.342 L1033.98 77.342  Z" fill="#009af9" fill-rule="evenodd" fill-opacity="1"/>
<polyline clip-path="url(#clip012)" style="stroke:#000000; stroke-linecap:round; stroke-linejoin:round; stroke-width:4; stroke-opacity:1; fill:none" points="1033.98,77.342 1033.98,1423.18 1070.48,1423.18 1070.48,77.342 1033.98,77.342 "/>
<path clip-path="url(#clip012)" d="M1170.84 482.286 L1170.84 1423.18 L1207.34 1423.18 L1207.34 482.286 L1170.84 482.286 L1170.84 482.286  Z" fill="#009af9" fill-rule="evenodd" fill-opacity="1"/>
<polyline clip-path="url(#clip012)" style="stroke:#000000; stroke-linecap:round; stroke-linejoin:round; stroke-width:4; stroke-opacity:1; fill:none" points="1170.84,482.286 1170.84,1423.18 1207.34,1423.18 1207.34,482.286 1170.84,482.286 "/>
<path clip-path="url(#clip012)" d="M1307.71 587.664 L1307.71 1423.18 L1344.2 1423.18 L1344.2 587.664 L1307.71 587.664 L1307.71 587.664  Z" fill="#009af9" fill-rule="evenodd" fill-opacity="1"/>
<polyline clip-path="url(#clip012)" style="stroke:#000000; stroke-linecap:round; stroke-linejoin:round; stroke-width:4; stroke-opacity:1; fill:none" points="1307.71,587.664 1307.71,1423.18 1344.2,1423.18 1344.2,587.664 1307.71,587.664 "/>
<path clip-path="url(#clip012)" d="M1444.57 1208.14 L1444.57 1423.18 L1481.06 1423.18 L1481.06 1208.14 L1444.57 1208.14 L1444.57 1208.14  Z" fill="#009af9" fill-rule="evenodd" fill-opacity="1"/>
<polyline clip-path="url(#clip012)" style="stroke:#000000; stroke-linecap:round; stroke-linejoin:round; stroke-width:4; stroke-opacity:1; fill:none" points="1444.57,1208.14 1444.57,1423.18 1481.06,1423.18 1481.06,1208.14 1444.57,1208.14 "/>
<path clip-path="url(#clip012)" d="M1581.43 98.5645 L1581.43 1423.18 L1617.92 1423.18 L1617.92 98.5645 L1581.43 98.5645 L1581.43 98.5645  Z" fill="#009af9" fill-rule="evenodd" fill-opacity="1"/>
<polyline clip-path="url(#clip012)" style="stroke:#000000; stroke-linecap:round; stroke-linejoin:round; stroke-width:4; stroke-opacity:1; fill:none" points="1581.43,98.5645 1581.43,1423.18 1617.92,1423.18 1617.92,98.5645 1581.43,98.5645 "/>
<path clip-path="url(#clip012)" d="M1718.29 640.285 L1718.29 1423.18 L1754.78 1423.18 L1754.78 640.285 L1718.29 640.285 L1718.29 640.285  Z" fill="#009af9" fill-rule="evenodd" fill-opacity="1"/>
<polyline clip-path="url(#clip012)" style="stroke:#000000; stroke-linecap:round; stroke-linejoin:round; stroke-width:4; stroke-opacity:1; fill:none" points="1718.29,640.285 1718.29,1423.18 1754.78,1423.18 1754.78,640.285 1718.29,640.285 "/>
<path clip-path="url(#clip012)" d="M1855.15 733.294 L1855.15 1423.18 L1891.64 1423.18 L1891.64 733.294 L1855.15 733.294 L1855.15 733.294  Z" fill="#009af9" fill-rule="evenodd" fill-opacity="1"/>
<polyline clip-path="url(#clip012)" style="stroke:#000000; stroke-linecap:round; stroke-linejoin:round; stroke-width:4; stroke-opacity:1; fill:none" points="1855.15,733.294 1855.15,1423.18 1891.64,1423.18 1891.64,733.294 1855.15,733.294 "/>
<path clip-path="url(#clip012)" d="M1992.01 98.6318 L1992.01 1423.18 L2028.5 1423.18 L2028.5 98.6318 L1992.01 98.6318 L1992.01 98.6318  Z" fill="#009af9" fill-rule="evenodd" fill-opacity="1"/>
<polyline clip-path="url(#clip012)" style="stroke:#000000; stroke-linecap:round; stroke-linejoin:round; stroke-width:4; stroke-opacity:1; fill:none" points="1992.01,98.6318 1992.01,1423.18 2028.5,1423.18 2028.5,98.6318 1992.01,98.6318 "/>
<path clip-path="url(#clip012)" d="M2128.87 701.033 L2128.87 1423.18 L2165.36 1423.18 L2165.36 701.033 L2128.87 701.033 L2128.87 701.033  Z" fill="#009af9" fill-rule="evenodd" fill-opacity="1"/>
<polyline clip-path="url(#clip012)" style="stroke:#000000; stroke-linecap:round; stroke-linejoin:round; stroke-width:4; stroke-opacity:1; fill:none" points="2128.87,701.033 2128.87,1423.18 2165.36,1423.18 2165.36,701.033 2128.87,701.033 "/>
<circle clip-path="url(#clip012)" style="fill:#009af9; stroke:none; fill-opacity:0" cx="367.93" cy="1145.2" r="2"/>
<circle clip-path="url(#clip012)" style="fill:#009af9; stroke:none; fill-opacity:0" cx="504.79" cy="47.2441" r="2"/>
<circle clip-path="url(#clip012)" style="fill:#009af9; stroke:none; fill-opacity:0" cx="641.651" cy="753.204" r="2"/>
<circle clip-path="url(#clip012)" style="fill:#009af9; stroke:none; fill-opacity:0" cx="778.511" cy="756.378" r="2"/>
<circle clip-path="url(#clip012)" style="fill:#009af9; stroke:none; fill-opacity:0" cx="915.372" cy="1190.23" r="2"/>
<circle clip-path="url(#clip012)" style="fill:#009af9; stroke:none; fill-opacity:0" cx="1052.23" cy="77.342" r="2"/>
<circle clip-path="url(#clip012)" style="fill:#009af9; stroke:none; fill-opacity:0" cx="1189.09" cy="482.286" r="2"/>
<circle clip-path="url(#clip012)" style="fill:#009af9; stroke:none; fill-opacity:0" cx="1325.95" cy="587.664" r="2"/>
<circle clip-path="url(#clip012)" style="fill:#009af9; stroke:none; fill-opacity:0" cx="1462.81" cy="1208.14" r="2"/>
<circle clip-path="url(#clip012)" style="fill:#009af9; stroke:none; fill-opacity:0" cx="1599.67" cy="98.5645" r="2"/>
<circle clip-path="url(#clip012)" style="fill:#009af9; stroke:none; fill-opacity:0" cx="1736.54" cy="640.285" r="2"/>
<circle clip-path="url(#clip012)" style="fill:#009af9; stroke:none; fill-opacity:0" cx="1873.4" cy="733.294" r="2"/>
<circle clip-path="url(#clip012)" style="fill:#009af9; stroke:none; fill-opacity:0" cx="2010.26" cy="98.6318" r="2"/>
<circle clip-path="url(#clip012)" style="fill:#009af9; stroke:none; fill-opacity:0" cx="2147.12" cy="701.033" r="2"/>
<path clip-path="url(#clip012)" d="M386.178 609.061 L386.178 1423.18 L422.674 1423.18 L422.674 609.061 L386.178 609.061 L386.178 609.061  Z" fill="#e26f46" fill-rule="evenodd" fill-opacity="1"/>
<polyline clip-path="url(#clip012)" style="stroke:#000000; stroke-linecap:round; stroke-linejoin:round; stroke-width:4; stroke-opacity:1; fill:none" points="386.178,609.061 386.178,1423.18 422.674,1423.18 422.674,609.061 386.178,609.061 "/>
<path clip-path="url(#clip012)" d="M523.038 609.061 L523.038 1423.18 L559.535 1423.18 L559.535 609.061 L523.038 609.061 L523.038 609.061  Z" fill="#e26f46" fill-rule="evenodd" fill-opacity="1"/>
<polyline clip-path="url(#clip012)" style="stroke:#000000; stroke-linecap:round; stroke-linejoin:round; stroke-width:4; stroke-opacity:1; fill:none" points="523.038,609.061 523.038,1423.18 559.535,1423.18 559.535,609.061 523.038,609.061 "/>
<path clip-path="url(#clip012)" d="M659.899 609.061 L659.899 1423.18 L696.395 1423.18 L696.395 609.061 L659.899 609.061 L659.899 609.061  Z" fill="#e26f46" fill-rule="evenodd" fill-opacity="1"/>
<polyline clip-path="url(#clip012)" style="stroke:#000000; stroke-linecap:round; stroke-linejoin:round; stroke-width:4; stroke-opacity:1; fill:none" points="659.899,609.061 659.899,1423.18 696.395,1423.18 696.395,609.061 659.899,609.061 "/>
<path clip-path="url(#clip012)" d="M796.76 609.061 L796.76 1423.18 L833.256 1423.18 L833.256 609.061 L796.76 609.061 L796.76 609.061  Z" fill="#e26f46" fill-rule="evenodd" fill-opacity="1"/>
<polyline clip-path="url(#clip012)" style="stroke:#000000; stroke-linecap:round; stroke-linejoin:round; stroke-width:4; stroke-opacity:1; fill:none" points="796.76,609.061 796.76,1423.18 833.256,1423.18 833.256,609.061 796.76,609.061 "/>
<path clip-path="url(#clip012)" d="M933.62 609.061 L933.62 1423.18 L970.116 1423.18 L970.116 609.061 L933.62 609.061 L933.62 609.061  Z" fill="#e26f46" fill-rule="evenodd" fill-opacity="1"/>
<polyline clip-path="url(#clip012)" style="stroke:#000000; stroke-linecap:round; stroke-linejoin:round; stroke-width:4; stroke-opacity:1; fill:none" points="933.62,609.061 933.62,1423.18 970.116,1423.18 970.116,609.061 933.62,609.061 "/>
<path clip-path="url(#clip012)" d="M1070.48 609.061 L1070.48 1423.18 L1106.98 1423.18 L1106.98 609.061 L1070.48 609.061 L1070.48 609.061  Z" fill="#e26f46" fill-rule="evenodd" fill-opacity="1"/>
<polyline clip-path="url(#clip012)" style="stroke:#000000; stroke-linecap:round; stroke-linejoin:round; stroke-width:4; stroke-opacity:1; fill:none" points="1070.48,609.061 1070.48,1423.18 1106.98,1423.18 1106.98,609.061 1070.48,609.061 "/>
<path clip-path="url(#clip012)" d="M1207.34 609.061 L1207.34 1423.18 L1243.84 1423.18 L1243.84 609.061 L1207.34 609.061 L1207.34 609.061  Z" fill="#e26f46" fill-rule="evenodd" fill-opacity="1"/>
<polyline clip-path="url(#clip012)" style="stroke:#000000; stroke-linecap:round; stroke-linejoin:round; stroke-width:4; stroke-opacity:1; fill:none" points="1207.34,609.061 1207.34,1423.18 1243.84,1423.18 1243.84,609.061 1207.34,609.061 "/>
<path clip-path="url(#clip012)" d="M1344.2 609.061 L1344.2 1423.18 L1380.7 1423.18 L1380.7 609.061 L1344.2 609.061 L1344.2 609.061  Z" fill="#e26f46" fill-rule="evenodd" fill-opacity="1"/>
<polyline clip-path="url(#clip012)" style="stroke:#000000; stroke-linecap:round; stroke-linejoin:round; stroke-width:4; stroke-opacity:1; fill:none" points="1344.2,609.061 1344.2,1423.18 1380.7,1423.18 1380.7,609.061 1344.2,609.061 "/>
<path clip-path="url(#clip012)" d="M1481.06 609.061 L1481.06 1423.18 L1517.56 1423.18 L1517.56 609.061 L1481.06 609.061 L1481.06 609.061  Z" fill="#e26f46" fill-rule="evenodd" fill-opacity="1"/>
<polyline clip-path="url(#clip012)" style="stroke:#000000; stroke-linecap:round; stroke-linejoin:round; stroke-width:4; stroke-opacity:1; fill:none" points="1481.06,609.061 1481.06,1423.18 1517.56,1423.18 1517.56,609.061 1481.06,609.061 "/>
<path clip-path="url(#clip012)" d="M1617.92 601.696 L1617.92 1423.18 L1654.42 1423.18 L1654.42 601.696 L1617.92 601.696 L1617.92 601.696  Z" fill="#e26f46" fill-rule="evenodd" fill-opacity="1"/>
<polyline clip-path="url(#clip012)" style="stroke:#000000; stroke-linecap:round; stroke-linejoin:round; stroke-width:4; stroke-opacity:1; fill:none" points="1617.92,601.696 1617.92,1423.18 1654.42,1423.18 1654.42,601.696 1617.92,601.696 "/>
<path clip-path="url(#clip012)" d="M1754.78 609.061 L1754.78 1423.18 L1791.28 1423.18 L1791.28 609.061 L1754.78 609.061 L1754.78 609.061  Z" fill="#e26f46" fill-rule="evenodd" fill-opacity="1"/>
<polyline clip-path="url(#clip012)" style="stroke:#000000; stroke-linecap:round; stroke-linejoin:round; stroke-width:4; stroke-opacity:1; fill:none" points="1754.78,609.061 1754.78,1423.18 1791.28,1423.18 1791.28,609.061 1754.78,609.061 "/>
<path clip-path="url(#clip012)" d="M1891.64 609.061 L1891.64 1423.18 L1928.14 1423.18 L1928.14 609.061 L1891.64 609.061 L1891.64 609.061  Z" fill="#e26f46" fill-rule="evenodd" fill-opacity="1"/>
<polyline clip-path="url(#clip012)" style="stroke:#000000; stroke-linecap:round; stroke-linejoin:round; stroke-width:4; stroke-opacity:1; fill:none" points="1891.64,609.061 1891.64,1423.18 1928.14,1423.18 1928.14,609.061 1891.64,609.061 "/>
<path clip-path="url(#clip012)" d="M2028.5 609.061 L2028.5 1423.18 L2065 1423.18 L2065 609.061 L2028.5 609.061 L2028.5 609.061  Z" fill="#e26f46" fill-rule="evenodd" fill-opacity="1"/>
<polyline clip-path="url(#clip012)" style="stroke:#000000; stroke-linecap:round; stroke-linejoin:round; stroke-width:4; stroke-opacity:1; fill:none" points="2028.5,609.061 2028.5,1423.18 2065,1423.18 2065,609.061 2028.5,609.061 "/>
<path clip-path="url(#clip012)" d="M2165.36 609.061 L2165.36 1423.18 L2201.86 1423.18 L2201.86 609.061 L2165.36 609.061 L2165.36 609.061  Z" fill="#e26f46" fill-rule="evenodd" fill-opacity="1"/>
<polyline clip-path="url(#clip012)" style="stroke:#000000; stroke-linecap:round; stroke-linejoin:round; stroke-width:4; stroke-opacity:1; fill:none" points="2165.36,609.061 2165.36,1423.18 2201.86,1423.18 2201.86,609.061 2165.36,609.061 "/>
<circle clip-path="url(#clip012)" style="fill:#e26f46; stroke:none; fill-opacity:0" cx="404.426" cy="609.061" r="2"/>
<circle clip-path="url(#clip012)" style="fill:#e26f46; stroke:none; fill-opacity:0" cx="541.287" cy="609.061" r="2"/>
<circle clip-path="url(#clip012)" style="fill:#e26f46; stroke:none; fill-opacity:0" cx="678.147" cy="609.061" r="2"/>
<circle clip-path="url(#clip012)" style="fill:#e26f46; stroke:none; fill-opacity:0" cx="815.008" cy="609.061" r="2"/>
<circle clip-path="url(#clip012)" style="fill:#e26f46; stroke:none; fill-opacity:0" cx="951.868" cy="609.061" r="2"/>
<circle clip-path="url(#clip012)" style="fill:#e26f46; stroke:none; fill-opacity:0" cx="1088.73" cy="609.061" r="2"/>
<circle clip-path="url(#clip012)" style="fill:#e26f46; stroke:none; fill-opacity:0" cx="1225.59" cy="609.061" r="2"/>
<circle clip-path="url(#clip012)" style="fill:#e26f46; stroke:none; fill-opacity:0" cx="1362.45" cy="609.061" r="2"/>
<circle clip-path="url(#clip012)" style="fill:#e26f46; stroke:none; fill-opacity:0" cx="1499.31" cy="609.061" r="2"/>
<circle clip-path="url(#clip012)" style="fill:#e26f46; stroke:none; fill-opacity:0" cx="1636.17" cy="601.696" r="2"/>
<circle clip-path="url(#clip012)" style="fill:#e26f46; stroke:none; fill-opacity:0" cx="1773.03" cy="609.061" r="2"/>
<circle clip-path="url(#clip012)" style="fill:#e26f46; stroke:none; fill-opacity:0" cx="1909.89" cy="609.061" r="2"/>
<circle clip-path="url(#clip012)" style="fill:#e26f46; stroke:none; fill-opacity:0" cx="2046.75" cy="609.061" r="2"/>
<circle clip-path="url(#clip012)" style="fill:#e26f46; stroke:none; fill-opacity:0" cx="2183.61" cy="609.061" r="2"/>
<path clip-path="url(#clip012)" d="M422.674 1305.22 L422.674 1423.18 L459.17 1423.18 L459.17 1305.22 L422.674 1305.22 L422.674 1305.22  Z" fill="#3da44d" fill-rule="evenodd" fill-opacity="1"/>
<polyline clip-path="url(#clip012)" style="stroke:#000000; stroke-linecap:round; stroke-linejoin:round; stroke-width:4; stroke-opacity:1; fill:none" points="422.674,1305.22 422.674,1423.18 459.17,1423.18 459.17,1305.22 422.674,1305.22 "/>
<path clip-path="url(#clip012)" d="M559.535 319.445 L559.535 1423.18 L596.031 1423.18 L596.031 319.445 L559.535 319.445 L559.535 319.445  Z" fill="#3da44d" fill-rule="evenodd" fill-opacity="1"/>
<polyline clip-path="url(#clip012)" style="stroke:#000000; stroke-linecap:round; stroke-linejoin:round; stroke-width:4; stroke-opacity:1; fill:none" points="559.535,319.445 559.535,1423.18 596.031,1423.18 596.031,319.445 559.535,319.445 "/>
<path clip-path="url(#clip012)" d="M696.395 622.526 L696.395 1423.18 L732.891 1423.18 L732.891 622.526 L696.395 622.526 L696.395 622.526  Z" fill="#3da44d" fill-rule="evenodd" fill-opacity="1"/>
<polyline clip-path="url(#clip012)" style="stroke:#000000; stroke-linecap:round; stroke-linejoin:round; stroke-width:4; stroke-opacity:1; fill:none" points="696.395,622.526 696.395,1423.18 732.891,1423.18 732.891,622.526 696.395,622.526 "/>
<path clip-path="url(#clip012)" d="M833.256 1172.96 L833.256 1423.18 L869.752 1423.18 L869.752 1172.96 L833.256 1172.96 L833.256 1172.96  Z" fill="#3da44d" fill-rule="evenodd" fill-opacity="1"/>
<polyline clip-path="url(#clip012)" style="stroke:#000000; stroke-linecap:round; stroke-linejoin:round; stroke-width:4; stroke-opacity:1; fill:none" points="833.256,1172.96 833.256,1423.18 869.752,1423.18 869.752,1172.96 833.256,1172.96 "/>
<path clip-path="url(#clip012)" d="M970.116 793.761 L970.116 1423.18 L1006.61 1423.18 L1006.61 793.761 L970.116 793.761 L970.116 793.761  Z" fill="#3da44d" fill-rule="evenodd" fill-opacity="1"/>
<polyline clip-path="url(#clip012)" style="stroke:#000000; stroke-linecap:round; stroke-linejoin:round; stroke-width:4; stroke-opacity:1; fill:none" points="970.116,793.761 970.116,1423.18 1006.61,1423.18 1006.61,793.761 970.116,793.761 "/>
<path clip-path="url(#clip012)" d="M1106.98 234.817 L1106.98 1423.18 L1143.47 1423.18 L1143.47 234.817 L1106.98 234.817 L1106.98 234.817  Z" fill="#3da44d" fill-rule="evenodd" fill-opacity="1"/>
<polyline clip-path="url(#clip012)" style="stroke:#000000; stroke-linecap:round; stroke-linejoin:round; stroke-width:4; stroke-opacity:1; fill:none" points="1106.98,234.817 1106.98,1423.18 1143.47,1423.18 1143.47,234.817 1106.98,234.817 "/>
<path clip-path="url(#clip012)" d="M1243.84 1097.5 L1243.84 1423.18 L1280.33 1423.18 L1280.33 1097.5 L1243.84 1097.5 L1243.84 1097.5  Z" fill="#3da44d" fill-rule="evenodd" fill-opacity="1"/>
<polyline clip-path="url(#clip012)" style="stroke:#000000; stroke-linecap:round; stroke-linejoin:round; stroke-width:4; stroke-opacity:1; fill:none" points="1243.84,1097.5 1243.84,1423.18 1280.33,1423.18 1280.33,1097.5 1243.84,1097.5 "/>
<path clip-path="url(#clip012)" d="M1380.7 509.625 L1380.7 1423.18 L1417.19 1423.18 L1417.19 509.625 L1380.7 509.625 L1380.7 509.625  Z" fill="#3da44d" fill-rule="evenodd" fill-opacity="1"/>
<polyline clip-path="url(#clip012)" style="stroke:#000000; stroke-linecap:round; stroke-linejoin:round; stroke-width:4; stroke-opacity:1; fill:none" points="1380.7,509.625 1380.7,1423.18 1417.19,1423.18 1417.19,509.625 1380.7,509.625 "/>
<path clip-path="url(#clip012)" d="M1517.56 856.113 L1517.56 1423.18 L1554.05 1423.18 L1554.05 856.113 L1517.56 856.113 L1517.56 856.113  Z" fill="#3da44d" fill-rule="evenodd" fill-opacity="1"/>
<polyline clip-path="url(#clip012)" style="stroke:#000000; stroke-linecap:round; stroke-linejoin:round; stroke-width:4; stroke-opacity:1; fill:none" points="1517.56,856.113 1517.56,1423.18 1554.05,1423.18 1554.05,856.113 1517.56,856.113 "/>
<path clip-path="url(#clip012)" d="M1654.42 643.725 L1654.42 1423.18 L1690.91 1423.18 L1690.91 643.725 L1654.42 643.725 L1654.42 643.725  Z" fill="#3da44d" fill-rule="evenodd" fill-opacity="1"/>
<polyline clip-path="url(#clip012)" style="stroke:#000000; stroke-linecap:round; stroke-linejoin:round; stroke-width:4; stroke-opacity:1; fill:none" points="1654.42,643.725 1654.42,1423.18 1690.91,1423.18 1690.91,643.725 1654.42,643.725 "/>
<path clip-path="url(#clip012)" d="M1791.28 150.836 L1791.28 1423.18 L1827.78 1423.18 L1827.78 150.836 L1791.28 150.836 L1791.28 150.836  Z" fill="#3da44d" fill-rule="evenodd" fill-opacity="1"/>
<polyline clip-path="url(#clip012)" style="stroke:#000000; stroke-linecap:round; stroke-linejoin:round; stroke-width:4; stroke-opacity:1; fill:none" points="1791.28,150.836 1791.28,1423.18 1827.78,1423.18 1827.78,150.836 1791.28,150.836 "/>
<path clip-path="url(#clip012)" d="M1928.14 407.968 L1928.14 1423.18 L1964.64 1423.18 L1964.64 407.968 L1928.14 407.968 L1928.14 407.968  Z" fill="#3da44d" fill-rule="evenodd" fill-opacity="1"/>
<polyline clip-path="url(#clip012)" style="stroke:#000000; stroke-linecap:round; stroke-linejoin:round; stroke-width:4; stroke-opacity:1; fill:none" points="1928.14,407.968 1928.14,1423.18 1964.64,1423.18 1964.64,407.968 1928.14,407.968 "/>
<path clip-path="url(#clip012)" d="M2065 133.204 L2065 1423.18 L2101.5 1423.18 L2101.5 133.204 L2065 133.204 L2065 133.204  Z" fill="#3da44d" fill-rule="evenodd" fill-opacity="1"/>
<polyline clip-path="url(#clip012)" style="stroke:#000000; stroke-linecap:round; stroke-linejoin:round; stroke-width:4; stroke-opacity:1; fill:none" points="2065,133.204 2065,1423.18 2101.5,1423.18 2101.5,133.204 2065,133.204 "/>
<path clip-path="url(#clip012)" d="M2201.86 271.794 L2201.86 1423.18 L2238.36 1423.18 L2238.36 271.794 L2201.86 271.794 L2201.86 271.794  Z" fill="#3da44d" fill-rule="evenodd" fill-opacity="1"/>
<polyline clip-path="url(#clip012)" style="stroke:#000000; stroke-linecap:round; stroke-linejoin:round; stroke-width:4; stroke-opacity:1; fill:none" points="2201.86,271.794 2201.86,1423.18 2238.36,1423.18 2238.36,271.794 2201.86,271.794 "/>
<circle clip-path="url(#clip012)" style="fill:#3da44d; stroke:none; fill-opacity:0" cx="440.922" cy="1305.22" r="2"/>
<circle clip-path="url(#clip012)" style="fill:#3da44d; stroke:none; fill-opacity:0" cx="577.783" cy="319.445" r="2"/>
<circle clip-path="url(#clip012)" style="fill:#3da44d; stroke:none; fill-opacity:0" cx="714.643" cy="622.526" r="2"/>
<circle clip-path="url(#clip012)" style="fill:#3da44d; stroke:none; fill-opacity:0" cx="851.504" cy="1172.96" r="2"/>
<circle clip-path="url(#clip012)" style="fill:#3da44d; stroke:none; fill-opacity:0" cx="988.364" cy="793.761" r="2"/>
<circle clip-path="url(#clip012)" style="fill:#3da44d; stroke:none; fill-opacity:0" cx="1125.22" cy="234.817" r="2"/>
<circle clip-path="url(#clip012)" style="fill:#3da44d; stroke:none; fill-opacity:0" cx="1262.09" cy="1097.5" r="2"/>
<circle clip-path="url(#clip012)" style="fill:#3da44d; stroke:none; fill-opacity:0" cx="1398.95" cy="509.625" r="2"/>
<circle clip-path="url(#clip012)" style="fill:#3da44d; stroke:none; fill-opacity:0" cx="1535.81" cy="856.113" r="2"/>
<circle clip-path="url(#clip012)" style="fill:#3da44d; stroke:none; fill-opacity:0" cx="1672.67" cy="643.725" r="2"/>
<circle clip-path="url(#clip012)" style="fill:#3da44d; stroke:none; fill-opacity:0" cx="1809.53" cy="150.836" r="2"/>
<circle clip-path="url(#clip012)" style="fill:#3da44d; stroke:none; fill-opacity:0" cx="1946.39" cy="407.968" r="2"/>
<circle clip-path="url(#clip012)" style="fill:#3da44d; stroke:none; fill-opacity:0" cx="2083.25" cy="133.204" r="2"/>
<circle clip-path="url(#clip012)" style="fill:#3da44d; stroke:none; fill-opacity:0" cx="2220.11" cy="271.794" r="2"/>
<path clip-path="url(#clip010)" d="M305.865 300.469 L863.074 300.469 L863.074 93.1086 L305.865 93.1086  Z" fill="#ffffff" fill-rule="evenodd" fill-opacity="1"/>
<polyline clip-path="url(#clip010)" style="stroke:#000000; stroke-linecap:round; stroke-linejoin:round; stroke-width:4; stroke-opacity:1; fill:none" points="305.865,300.469 863.074,300.469 863.074,93.1086 305.865,93.1086 305.865,300.469 "/>
<path clip-path="url(#clip010)" d="M329.393 165.685 L470.558 165.685 L470.558 124.213 L329.393 124.213 L329.393 165.685  Z" fill="#009af9" fill-rule="evenodd" fill-opacity="1"/>
<polyline clip-path="url(#clip010)" style="stroke:#000000; stroke-linecap:round; stroke-linejoin:round; stroke-width:4; stroke-opacity:1; fill:none" points="329.393,165.685 470.558,165.685 470.558,124.213 329.393,124.213 329.393,165.685 "/>
<path clip-path="url(#clip010)" d="M494.085 127.669 L500.381 127.669 L515.705 156.581 L515.705 127.669 L520.242 127.669 L520.242 162.229 L513.946 162.229 L498.622 133.317 L498.622 162.229 L494.085 162.229 L494.085 127.669 Z" fill="#000000" fill-rule="nonzero" fill-opacity="1" /><path clip-path="url(#clip010)" d="M539.409 139.289 Q535.983 139.289 533.992 141.974 Q532.002 144.636 532.002 149.289 Q532.002 153.942 533.969 156.627 Q535.96 159.289 539.409 159.289 Q542.812 159.289 544.802 156.604 Q546.793 153.918 546.793 149.289 Q546.793 144.682 544.802 141.997 Q542.812 139.289 539.409 139.289 M539.409 135.678 Q544.964 135.678 548.136 139.289 Q551.307 142.9 551.307 149.289 Q551.307 155.655 548.136 159.289 Q544.964 162.9 539.409 162.9 Q533.83 162.9 530.659 159.289 Q527.511 155.655 527.511 149.289 Q527.511 142.9 530.659 139.289 Q533.83 135.678 539.409 135.678 Z" fill="#000000" fill-rule="nonzero" fill-opacity="1" /><path clip-path="url(#clip010)" d="M593.622 141.28 Q595.219 138.409 597.441 137.044 Q599.663 135.678 602.672 135.678 Q606.723 135.678 608.922 138.525 Q611.122 141.349 611.122 146.581 L611.122 162.229 L606.839 162.229 L606.839 146.719 Q606.839 142.993 605.52 141.187 Q604.2 139.382 601.492 139.382 Q598.182 139.382 596.26 141.581 Q594.339 143.78 594.339 147.576 L594.339 162.229 L590.057 162.229 L590.057 146.719 Q590.057 142.969 588.737 141.187 Q587.418 139.382 584.663 139.382 Q581.399 139.382 579.478 141.604 Q577.557 143.803 577.557 147.576 L577.557 162.229 L573.275 162.229 L573.275 136.303 L577.557 136.303 L577.557 140.331 Q579.015 137.946 581.052 136.812 Q583.089 135.678 585.89 135.678 Q588.714 135.678 590.682 137.113 Q592.673 138.548 593.622 141.28 Z" fill="#000000" fill-rule="nonzero" fill-opacity="1" /><path clip-path="url(#clip010)" d="M641.793 148.201 L641.793 150.284 L622.209 150.284 Q622.487 154.682 624.848 156.997 Q627.233 159.289 631.469 159.289 Q633.922 159.289 636.214 158.687 Q638.529 158.085 640.797 156.881 L640.797 160.909 Q638.506 161.881 636.098 162.391 Q633.691 162.9 631.214 162.9 Q625.01 162.9 621.376 159.289 Q617.765 155.678 617.765 149.52 Q617.765 143.155 621.191 139.428 Q624.64 135.678 630.473 135.678 Q635.705 135.678 638.737 139.057 Q641.793 142.414 641.793 148.201 M637.533 146.951 Q637.487 143.456 635.566 141.372 Q633.668 139.289 630.52 139.289 Q626.955 139.289 624.802 141.303 Q622.672 143.317 622.348 146.974 L637.533 146.951 Z" fill="#000000" fill-rule="nonzero" fill-opacity="1" /><path clip-path="url(#clip010)" d="M667.441 137.298 L667.441 141.28 Q665.635 140.284 663.806 139.798 Q662.001 139.289 660.149 139.289 Q656.006 139.289 653.714 141.928 Q651.422 144.544 651.422 149.289 Q651.422 154.034 653.714 156.673 Q656.006 159.289 660.149 159.289 Q662.001 159.289 663.806 158.803 Q665.635 158.293 667.441 157.298 L667.441 161.233 Q665.658 162.067 663.737 162.483 Q661.839 162.9 659.686 162.9 Q653.83 162.9 650.381 159.219 Q646.932 155.539 646.932 149.289 Q646.932 142.946 650.404 139.312 Q653.899 135.678 659.964 135.678 Q661.931 135.678 663.806 136.095 Q665.681 136.488 667.441 137.298 Z" fill="#000000" fill-rule="nonzero" fill-opacity="1" /><path clip-path="url(#clip010)" d="M696.399 146.581 L696.399 162.229 L692.14 162.229 L692.14 146.719 Q692.14 143.039 690.704 141.21 Q689.269 139.382 686.399 139.382 Q682.95 139.382 680.959 141.581 Q678.968 143.78 678.968 147.576 L678.968 162.229 L674.686 162.229 L674.686 126.21 L678.968 126.21 L678.968 140.331 Q680.496 137.993 682.556 136.835 Q684.64 135.678 687.348 135.678 Q691.816 135.678 694.107 138.456 Q696.399 141.21 696.399 146.581 Z" fill="#000000" fill-rule="nonzero" fill-opacity="1" /><path clip-path="url(#clip010)" d="M716.677 149.196 Q711.515 149.196 709.524 150.377 Q707.533 151.557 707.533 154.405 Q707.533 156.673 709.015 158.016 Q710.519 159.335 713.089 159.335 Q716.63 159.335 718.76 156.835 Q720.913 154.312 720.913 150.145 L720.913 149.196 L716.677 149.196 M725.172 147.437 L725.172 162.229 L720.913 162.229 L720.913 158.293 Q719.454 160.655 717.278 161.789 Q715.102 162.9 711.954 162.9 Q707.973 162.9 705.612 160.678 Q703.274 158.432 703.274 154.682 Q703.274 150.307 706.19 148.085 Q709.13 145.863 714.94 145.863 L720.913 145.863 L720.913 145.446 Q720.913 142.507 718.968 140.909 Q717.047 139.289 713.552 139.289 Q711.329 139.289 709.223 139.821 Q707.116 140.354 705.172 141.419 L705.172 137.483 Q707.51 136.581 709.709 136.141 Q711.908 135.678 713.991 135.678 Q719.616 135.678 722.394 138.594 Q725.172 141.511 725.172 147.437 Z" fill="#000000" fill-rule="nonzero" fill-opacity="1" /><path clip-path="url(#clip010)" d="M755.496 146.581 L755.496 162.229 L751.237 162.229 L751.237 146.719 Q751.237 143.039 749.801 141.21 Q748.366 139.382 745.496 139.382 Q742.047 139.382 740.056 141.581 Q738.065 143.78 738.065 147.576 L738.065 162.229 L733.783 162.229 L733.783 136.303 L738.065 136.303 L738.065 140.331 Q739.593 137.993 741.653 136.835 Q743.737 135.678 746.445 135.678 Q750.912 135.678 753.204 138.456 Q755.496 141.21 755.496 146.581 Z" fill="#000000" fill-rule="nonzero" fill-opacity="1" /><path clip-path="url(#clip010)" d="M763.991 136.303 L768.25 136.303 L768.25 162.229 L763.991 162.229 L763.991 136.303 M763.991 126.21 L768.25 126.21 L768.25 131.604 L763.991 131.604 L763.991 126.21 Z" fill="#000000" fill-rule="nonzero" fill-opacity="1" /><path clip-path="url(#clip010)" d="M793.69 137.067 L793.69 141.094 Q791.884 140.169 789.94 139.706 Q787.996 139.243 785.912 139.243 Q782.741 139.243 781.144 140.215 Q779.57 141.187 779.57 143.131 Q779.57 144.613 780.704 145.469 Q781.838 146.303 785.264 147.067 L786.722 147.391 Q791.259 148.363 793.158 150.145 Q795.079 151.905 795.079 155.076 Q795.079 158.687 792.209 160.793 Q789.361 162.9 784.361 162.9 Q782.278 162.9 780.01 162.483 Q777.764 162.09 775.264 161.28 L775.264 156.881 Q777.625 158.108 779.917 158.733 Q782.209 159.335 784.454 159.335 Q787.463 159.335 789.084 158.317 Q790.704 157.275 790.704 155.4 Q790.704 153.664 789.523 152.738 Q788.366 151.812 784.408 150.956 L782.926 150.608 Q778.968 149.775 777.209 148.062 Q775.449 146.326 775.449 143.317 Q775.449 139.659 778.042 137.669 Q780.635 135.678 785.403 135.678 Q787.764 135.678 789.847 136.025 Q791.931 136.372 793.69 137.067 Z" fill="#000000" fill-rule="nonzero" fill-opacity="1" /><path clip-path="url(#clip010)" d="M822.046 141.28 Q823.644 138.409 825.866 137.044 Q828.088 135.678 831.097 135.678 Q835.148 135.678 837.347 138.525 Q839.546 141.349 839.546 146.581 L839.546 162.229 L835.264 162.229 L835.264 146.719 Q835.264 142.993 833.944 141.187 Q832.625 139.382 829.917 139.382 Q826.606 139.382 824.685 141.581 Q822.764 143.78 822.764 147.576 L822.764 162.229 L818.482 162.229 L818.482 146.719 Q818.482 142.969 817.162 141.187 Q815.843 139.382 813.088 139.382 Q809.824 139.382 807.903 141.604 Q805.982 143.803 805.982 147.576 L805.982 162.229 L801.699 162.229 L801.699 136.303 L805.982 136.303 L805.982 140.331 Q807.44 137.946 809.477 136.812 Q811.514 135.678 814.315 135.678 Q817.139 135.678 819.107 137.113 Q821.097 138.548 822.046 141.28 Z" fill="#000000" fill-rule="nonzero" fill-opacity="1" /><path clip-path="url(#clip010)" d="M329.393 217.525 L470.558 217.525 L470.558 176.053 L329.393 176.053 L329.393 217.525  Z" fill="#e26f46" fill-rule="evenodd" fill-opacity="1"/>
<polyline clip-path="url(#clip010)" style="stroke:#000000; stroke-linecap:round; stroke-linejoin:round; stroke-width:4; stroke-opacity:1; fill:none" points="329.393,217.525 470.558,217.525 470.558,176.053 329.393,176.053 329.393,217.525 "/>
<path clip-path="url(#clip010)" d="M494.085 179.509 L515.937 179.509 L515.937 183.444 L498.761 183.444 L498.761 193.675 L515.219 193.675 L515.219 197.61 L498.761 197.61 L498.761 210.133 L516.354 210.133 L516.354 214.069 L494.085 214.069 L494.085 179.509 Z" fill="#000000" fill-rule="nonzero" fill-opacity="1" /><path clip-path="url(#clip010)" d="M526.4 201.129 Q526.4 205.828 528.321 208.513 Q530.265 211.175 533.645 211.175 Q537.025 211.175 538.969 208.513 Q540.914 205.828 540.914 201.129 Q540.914 196.43 538.969 193.768 Q537.025 191.083 533.645 191.083 Q530.265 191.083 528.321 193.768 Q526.4 196.43 526.4 201.129 M540.914 210.18 Q539.571 212.495 537.511 213.629 Q535.474 214.74 532.603 214.74 Q527.904 214.74 524.941 210.99 Q522.002 207.24 522.002 201.129 Q522.002 195.018 524.941 191.268 Q527.904 187.518 532.603 187.518 Q535.474 187.518 537.511 188.652 Q539.571 189.763 540.914 192.078 L540.914 188.143 L545.173 188.143 L545.173 223.93 L540.914 223.93 L540.914 210.18 Z" fill="#000000" fill-rule="nonzero" fill-opacity="1" /><path clip-path="url(#clip010)" d="M553.506 203.837 L553.506 188.143 L557.765 188.143 L557.765 203.675 Q557.765 207.356 559.201 209.208 Q560.636 211.036 563.506 211.036 Q566.955 211.036 568.946 208.837 Q570.96 206.638 570.96 202.842 L570.96 188.143 L575.219 188.143 L575.219 214.069 L570.96 214.069 L570.96 210.087 Q569.409 212.448 567.349 213.606 Q565.312 214.74 562.603 214.74 Q558.136 214.74 555.821 211.962 Q553.506 209.184 553.506 203.837 M564.224 187.518 L564.224 187.518 Z" fill="#000000" fill-rule="nonzero" fill-opacity="1" /><path clip-path="url(#clip010)" d="M595.774 201.036 Q590.612 201.036 588.622 202.217 Q586.631 203.397 586.631 206.245 Q586.631 208.513 588.112 209.856 Q589.617 211.175 592.186 211.175 Q595.728 211.175 597.858 208.675 Q600.01 206.152 600.01 201.985 L600.01 201.036 L595.774 201.036 M604.27 199.277 L604.27 214.069 L600.01 214.069 L600.01 210.133 Q598.552 212.495 596.376 213.629 Q594.2 214.74 591.052 214.74 Q587.071 214.74 584.71 212.518 Q582.372 210.272 582.372 206.522 Q582.372 202.147 585.288 199.925 Q588.228 197.703 594.038 197.703 L600.01 197.703 L600.01 197.286 Q600.01 194.347 598.066 192.749 Q596.145 191.129 592.649 191.129 Q590.427 191.129 588.321 191.661 Q586.214 192.194 584.27 193.259 L584.27 189.323 Q586.608 188.421 588.807 187.981 Q591.006 187.518 593.089 187.518 Q598.714 187.518 601.492 190.434 Q604.27 193.351 604.27 199.277 Z" fill="#000000" fill-rule="nonzero" fill-opacity="1" /><path clip-path="url(#clip010)" d="M613.043 178.05 L617.302 178.05 L617.302 214.069 L613.043 214.069 L613.043 178.05 Z" fill="#000000" fill-rule="nonzero" fill-opacity="1" /><path clip-path="url(#clip010)" d="M329.393 269.365 L470.558 269.365 L470.558 227.893 L329.393 227.893 L329.393 269.365  Z" fill="#3da44d" fill-rule="evenodd" fill-opacity="1"/>
<polyline clip-path="url(#clip010)" style="stroke:#000000; stroke-linecap:round; stroke-linejoin:round; stroke-width:4; stroke-opacity:1; fill:none" points="329.393,269.365 470.558,269.365 470.558,227.893 329.393,227.893 329.393,269.365 "/>
<path clip-path="url(#clip010)" d="M498.761 235.191 L498.761 248.177 L504.641 248.177 Q507.904 248.177 509.687 246.487 Q511.469 244.798 511.469 241.673 Q511.469 238.571 509.687 236.881 Q507.904 235.191 504.641 235.191 L498.761 235.191 M494.085 231.349 L504.641 231.349 Q510.451 231.349 513.414 233.987 Q516.4 236.603 516.4 241.673 Q516.4 246.788 513.414 249.404 Q510.451 252.02 504.641 252.02 L498.761 252.02 L498.761 265.909 L494.085 265.909 L494.085 231.349 Z" fill="#000000" fill-rule="nonzero" fill-opacity="1" /><path clip-path="url(#clip010)" d="M536.677 243.964 Q535.96 243.548 535.103 243.362 Q534.27 243.154 533.252 243.154 Q529.64 243.154 527.696 245.515 Q525.775 247.853 525.775 252.251 L525.775 265.909 L521.492 265.909 L521.492 239.983 L525.775 239.983 L525.775 244.011 Q527.117 241.649 529.27 240.515 Q531.423 239.358 534.502 239.358 Q534.941 239.358 535.474 239.427 Q536.006 239.474 536.654 239.589 L536.677 243.964 Z" fill="#000000" fill-rule="nonzero" fill-opacity="1" /><path clip-path="url(#clip010)" d="M550.15 242.969 Q546.724 242.969 544.733 245.654 Q542.742 248.316 542.742 252.969 Q542.742 257.622 544.71 260.307 Q546.701 262.969 550.15 262.969 Q553.552 262.969 555.543 260.284 Q557.534 257.598 557.534 252.969 Q557.534 248.362 555.543 245.677 Q553.552 242.969 550.15 242.969 M550.15 239.358 Q555.705 239.358 558.876 242.969 Q562.048 246.58 562.048 252.969 Q562.048 259.335 558.876 262.969 Q555.705 266.58 550.15 266.58 Q544.571 266.58 541.4 262.969 Q538.252 259.335 538.252 252.969 Q538.252 246.58 541.4 242.969 Q544.571 239.358 550.15 239.358 Z" fill="#000000" fill-rule="nonzero" fill-opacity="1" /><path clip-path="url(#clip010)" d="M573.228 262.02 L573.228 275.77 L568.946 275.77 L568.946 239.983 L573.228 239.983 L573.228 243.918 Q574.571 241.603 576.608 240.492 Q578.668 239.358 581.515 239.358 Q586.237 239.358 589.177 243.108 Q592.14 246.858 592.14 252.969 Q592.14 259.08 589.177 262.83 Q586.237 266.58 581.515 266.58 Q578.668 266.58 576.608 265.469 Q574.571 264.335 573.228 262.02 M587.719 252.969 Q587.719 248.27 585.774 245.608 Q583.853 242.923 580.474 242.923 Q577.094 242.923 575.149 245.608 Q573.228 248.27 573.228 252.969 Q573.228 257.668 575.149 260.353 Q577.094 263.015 580.474 263.015 Q583.853 263.015 585.774 260.353 Q587.719 257.668 587.719 252.969 Z" fill="#000000" fill-rule="nonzero" fill-opacity="1" /><path clip-path="url(#clip010)" d="M609.247 242.969 Q605.821 242.969 603.83 245.654 Q601.839 248.316 601.839 252.969 Q601.839 257.622 603.807 260.307 Q605.797 262.969 609.247 262.969 Q612.649 262.969 614.64 260.284 Q616.631 257.598 616.631 252.969 Q616.631 248.362 614.64 245.677 Q612.649 242.969 609.247 242.969 M609.247 239.358 Q614.802 239.358 617.973 242.969 Q621.145 246.58 621.145 252.969 Q621.145 259.335 617.973 262.969 Q614.802 266.58 609.247 266.58 Q603.668 266.58 600.497 262.969 Q597.348 259.335 597.348 252.969 Q597.348 246.58 600.497 242.969 Q603.668 239.358 609.247 239.358 Z" fill="#000000" fill-rule="nonzero" fill-opacity="1" /><path clip-path="url(#clip010)" d="M643.228 243.964 Q642.51 243.548 641.654 243.362 Q640.82 243.154 639.802 243.154 Q636.191 243.154 634.246 245.515 Q632.325 247.853 632.325 252.251 L632.325 265.909 L628.043 265.909 L628.043 239.983 L632.325 239.983 L632.325 244.011 Q633.668 241.649 635.82 240.515 Q637.973 239.358 641.052 239.358 Q641.492 239.358 642.024 239.427 Q642.557 239.474 643.205 239.589 L643.228 243.964 Z" fill="#000000" fill-rule="nonzero" fill-opacity="1" /><path clip-path="url(#clip010)" d="M651.908 232.622 L651.908 239.983 L660.681 239.983 L660.681 243.293 L651.908 243.293 L651.908 257.367 Q651.908 260.538 652.765 261.441 Q653.644 262.344 656.306 262.344 L660.681 262.344 L660.681 265.909 L656.306 265.909 Q651.376 265.909 649.501 264.08 Q647.626 262.228 647.626 257.367 L647.626 243.293 L644.501 243.293 L644.501 239.983 L647.626 239.983 L647.626 232.622 L651.908 232.622 Z" fill="#000000" fill-rule="nonzero" fill-opacity="1" /><path clip-path="url(#clip010)" d="M666.283 239.983 L670.543 239.983 L670.543 265.909 L666.283 265.909 L666.283 239.983 M666.283 229.89 L670.543 229.89 L670.543 235.284 L666.283 235.284 L666.283 229.89 Z" fill="#000000" fill-rule="nonzero" fill-opacity="1" /><path clip-path="url(#clip010)" d="M689.501 242.969 Q686.075 242.969 684.084 245.654 Q682.093 248.316 682.093 252.969 Q682.093 257.622 684.061 260.307 Q686.052 262.969 689.501 262.969 Q692.903 262.969 694.894 260.284 Q696.885 257.598 696.885 252.969 Q696.885 248.362 694.894 245.677 Q692.903 242.969 689.501 242.969 M689.501 239.358 Q695.056 239.358 698.228 242.969 Q701.399 246.58 701.399 252.969 Q701.399 259.335 698.228 262.969 Q695.056 266.58 689.501 266.58 Q683.922 266.58 680.751 262.969 Q677.603 259.335 677.603 252.969 Q677.603 246.58 680.751 242.969 Q683.922 239.358 689.501 239.358 Z" fill="#000000" fill-rule="nonzero" fill-opacity="1" /><path clip-path="url(#clip010)" d="M730.01 250.261 L730.01 265.909 L725.751 265.909 L725.751 250.399 Q725.751 246.719 724.315 244.89 Q722.88 243.062 720.01 243.062 Q716.561 243.062 714.57 245.261 Q712.579 247.46 712.579 251.256 L712.579 265.909 L708.297 265.909 L708.297 239.983 L712.579 239.983 L712.579 244.011 Q714.107 241.673 716.167 240.515 Q718.251 239.358 720.959 239.358 Q725.426 239.358 727.718 242.136 Q730.01 244.89 730.01 250.261 Z" fill="#000000" fill-rule="nonzero" fill-opacity="1" /><path clip-path="url(#clip010)" d="M750.287 252.876 Q745.125 252.876 743.135 254.057 Q741.144 255.237 741.144 258.085 Q741.144 260.353 742.625 261.696 Q744.13 263.015 746.699 263.015 Q750.241 263.015 752.371 260.515 Q754.524 257.992 754.524 253.825 L754.524 252.876 L750.287 252.876 M758.783 251.117 L758.783 265.909 L754.524 265.909 L754.524 261.973 Q753.065 264.335 750.889 265.469 Q748.713 266.58 745.565 266.58 Q741.584 266.58 739.223 264.358 Q736.885 262.112 736.885 258.362 Q736.885 253.987 739.801 251.765 Q742.741 249.543 748.551 249.543 L754.524 249.543 L754.524 249.126 Q754.524 246.187 752.579 244.589 Q750.658 242.969 747.162 242.969 Q744.94 242.969 742.834 243.501 Q740.727 244.034 738.783 245.099 L738.783 241.163 Q741.121 240.261 743.32 239.821 Q745.519 239.358 747.602 239.358 Q753.227 239.358 756.005 242.274 Q758.783 245.191 758.783 251.117 Z" fill="#000000" fill-rule="nonzero" fill-opacity="1" /><path clip-path="url(#clip010)" d="M767.556 229.89 L771.815 229.89 L771.815 265.909 L767.556 265.909 L767.556 229.89 Z" fill="#000000" fill-rule="nonzero" fill-opacity="1" /></svg>
