<?xml version="1.0" encoding="utf-8"?>
<svg xmlns="http://www.w3.org/2000/svg" xmlns:xlink="http://www.w3.org/1999/xlink" width="600" height="400" viewBox="0 0 2400 1600">
<defs>
  <clipPath id="clip930">
    <rect x="0" y="0" width="2400" height="1600"/>
  </clipPath>
</defs>
<path clip-path="url(#clip930)" d="M0 1600 L2400 1600 L2400 0 L0 0  Z" fill="#ffffff" fill-rule="evenodd" fill-opacity="1"/>
<defs>
  <clipPath id="clip931">
    <rect x="480" y="0" width="1681" height="1600"/>
  </clipPath>
</defs>
<path clip-path="url(#clip930)" d="M247.459 1423.18 L2182.22 1423.18 L2182.22 47.2441 L247.459 47.2441  Z" fill="#ffffff" fill-rule="evenodd" fill-opacity="1"/>
<defs>
  <clipPath id="clip932">
    <rect x="247" y="47" width="1936" height="1377"/>
  </clipPath>
</defs>
<polyline clip-path="url(#clip932)" style="stroke:#000000; stroke-linecap:round; stroke-linejoin:round; stroke-width:2; stroke-opacity:0.1; fill:none" points="247.459,1423.18 247.459,47.2441 "/>
<polyline clip-path="url(#clip932)" style="stroke:#000000; stroke-linecap:round; stroke-linejoin:round; stroke-width:2; stroke-opacity:0.1; fill:none" points="650.533,1423.18 650.533,47.2441 "/>
<polyline clip-path="url(#clip932)" style="stroke:#000000; stroke-linecap:round; stroke-linejoin:round; stroke-width:2; stroke-opacity:0.1; fill:none" points="1053.61,1423.18 1053.61,47.2441 "/>
<polyline clip-path="url(#clip932)" style="stroke:#000000; stroke-linecap:round; stroke-linejoin:round; stroke-width:2; stroke-opacity:0.1; fill:none" points="1456.68,1423.18 1456.68,47.2441 "/>
<polyline clip-path="url(#clip932)" style="stroke:#000000; stroke-linecap:round; stroke-linejoin:round; stroke-width:2; stroke-opacity:0.1; fill:none" points="1859.76,1423.18 1859.76,47.2441 "/>
<polyline clip-path="url(#clip930)" style="stroke:#000000; stroke-linecap:round; stroke-linejoin:round; stroke-width:4; stroke-opacity:1; fill:none" points="247.459,1423.18 2182.22,1423.18 "/>
<polyline clip-path="url(#clip930)" style="stroke:#000000; stroke-linecap:round; stroke-linejoin:round; stroke-width:4; stroke-opacity:1; fill:none" points="247.459,1423.18 247.459,1404.28 "/>
<polyline clip-path="url(#clip930)" style="stroke:#000000; stroke-linecap:round; stroke-linejoin:round; stroke-width:4; stroke-opacity:1; fill:none" points="650.533,1423.18 650.533,1404.28 "/>
<polyline clip-path="url(#clip930)" style="stroke:#000000; stroke-linecap:round; stroke-linejoin:round; stroke-width:4; stroke-opacity:1; fill:none" points="1053.61,1423.18 1053.61,1404.28 "/>
<polyline clip-path="url(#clip930)" style="stroke:#000000; stroke-linecap:round; stroke-linejoin:round; stroke-width:4; stroke-opacity:1; fill:none" points="1456.68,1423.18 1456.68,1404.28 "/>
<polyline clip-path="url(#clip930)" style="stroke:#000000; stroke-linecap:round; stroke-linejoin:round; stroke-width:4; stroke-opacity:1; fill:none" points="1859.76,1423.18 1859.76,1404.28 "/>
<path clip-path="url(#clip930)" d="M247.459 1454.1 Q243.848 1454.1 242.019 1457.66 Q240.213 1461.2 240.213 1468.33 Q240.213 1475.44 242.019 1479.01 Q243.848 1482.55 247.459 1482.55 Q251.093 1482.55 252.898 1479.01 Q254.727 1475.44 254.727 1468.33 Q254.727 1461.2 252.898 1457.66 Q251.093 1454.1 247.459 1454.1 M247.459 1450.39 Q253.269 1450.39 256.324 1455 Q259.403 1459.58 259.403 1468.33 Q259.403 1477.06 256.324 1481.67 Q253.269 1486.25 247.459 1486.25 Q241.649 1486.25 238.57 1481.67 Q235.514 1477.06 235.514 1468.33 Q235.514 1459.58 238.57 1455 Q241.649 1450.39 247.459 1450.39 Z" fill="#000000" fill-rule="nonzero" fill-opacity="1" /><path clip-path="url(#clip930)" d="M640.811 1451.02 L659.168 1451.02 L659.168 1454.96 L645.094 1454.96 L645.094 1463.43 Q646.112 1463.08 647.131 1462.92 Q648.149 1462.73 649.168 1462.73 Q654.955 1462.73 658.334 1465.9 Q661.714 1469.08 661.714 1474.49 Q661.714 1480.07 658.242 1483.17 Q654.769 1486.25 648.45 1486.25 Q646.274 1486.25 644.006 1485.88 Q641.76 1485.51 639.353 1484.77 L639.353 1480.07 Q641.436 1481.2 643.658 1481.76 Q645.881 1482.32 648.357 1482.32 Q652.362 1482.32 654.7 1480.21 Q657.038 1478.1 657.038 1474.49 Q657.038 1470.88 654.7 1468.77 Q652.362 1466.67 648.357 1466.67 Q646.482 1466.67 644.607 1467.08 Q642.756 1467.5 640.811 1468.38 L640.811 1451.02 Z" fill="#000000" fill-rule="nonzero" fill-opacity="1" /><path clip-path="url(#clip930)" d="M1028.3 1481.64 L1035.93 1481.64 L1035.93 1455.28 L1027.62 1456.95 L1027.62 1452.69 L1035.89 1451.02 L1040.56 1451.02 L1040.56 1481.64 L1048.2 1481.64 L1048.2 1485.58 L1028.3 1485.58 L1028.3 1481.64 Z" fill="#000000" fill-rule="nonzero" fill-opacity="1" /><path clip-path="url(#clip930)" d="M1067.65 1454.1 Q1064.04 1454.1 1062.21 1457.66 Q1060.4 1461.2 1060.4 1468.33 Q1060.4 1475.44 1062.21 1479.01 Q1064.04 1482.55 1067.65 1482.55 Q1071.28 1482.55 1073.09 1479.01 Q1074.92 1475.44 1074.92 1468.33 Q1074.92 1461.2 1073.09 1457.66 Q1071.28 1454.1 1067.65 1454.1 M1067.65 1450.39 Q1073.46 1450.39 1076.51 1455 Q1079.59 1459.58 1079.59 1468.33 Q1079.59 1477.06 1076.51 1481.67 Q1073.46 1486.25 1067.65 1486.25 Q1061.84 1486.25 1058.76 1481.67 Q1055.7 1477.06 1055.7 1468.33 Q1055.7 1459.58 1058.76 1455 Q1061.84 1450.39 1067.65 1450.39 Z" fill="#000000" fill-rule="nonzero" fill-opacity="1" /><path clip-path="url(#clip930)" d="M1431.87 1481.64 L1439.51 1481.64 L1439.51 1455.28 L1431.2 1456.95 L1431.2 1452.69 L1439.46 1451.02 L1444.14 1451.02 L1444.14 1481.64 L1451.78 1481.64 L1451.78 1485.58 L1431.87 1485.58 L1431.87 1481.64 Z" fill="#000000" fill-rule="nonzero" fill-opacity="1" /><path clip-path="url(#clip930)" d="M1461.27 1451.02 L1479.62 1451.02 L1479.62 1454.96 L1465.55 1454.96 L1465.55 1463.43 Q1466.57 1463.08 1467.59 1462.92 Q1468.6 1462.73 1469.62 1462.73 Q1475.41 1462.73 1478.79 1465.9 Q1482.17 1469.08 1482.17 1474.49 Q1482.17 1480.07 1478.7 1483.17 Q1475.22 1486.25 1468.9 1486.25 Q1466.73 1486.25 1464.46 1485.88 Q1462.22 1485.51 1459.81 1484.77 L1459.81 1480.07 Q1461.89 1481.2 1464.11 1481.76 Q1466.34 1482.32 1468.81 1482.32 Q1472.82 1482.32 1475.15 1480.21 Q1477.49 1478.1 1477.49 1474.49 Q1477.49 1470.88 1475.15 1468.77 Q1472.82 1466.67 1468.81 1466.67 Q1466.94 1466.67 1465.06 1467.08 Q1463.21 1467.5 1461.27 1468.38 L1461.27 1451.02 Z" fill="#000000" fill-rule="nonzero" fill-opacity="1" /><path clip-path="url(#clip930)" d="M1838.53 1481.64 L1854.85 1481.64 L1854.85 1485.58 L1832.91 1485.58 L1832.91 1481.64 Q1835.57 1478.89 1840.15 1474.26 Q1844.76 1469.61 1845.94 1468.27 Q1848.18 1465.74 1849.06 1464.01 Q1849.97 1462.25 1849.97 1460.56 Q1849.97 1457.8 1848.02 1456.07 Q1846.1 1454.33 1843 1454.33 Q1840.8 1454.33 1838.35 1455.09 Q1835.91 1455.86 1833.14 1457.41 L1833.14 1452.69 Q1835.96 1451.55 1838.41 1450.97 Q1840.87 1450.39 1842.91 1450.39 Q1848.28 1450.39 1851.47 1453.08 Q1854.66 1455.77 1854.66 1460.26 Q1854.66 1462.39 1853.85 1464.31 Q1853.07 1466.2 1850.96 1468.8 Q1850.38 1469.47 1847.28 1472.69 Q1844.18 1475.88 1838.53 1481.64 Z" fill="#000000" fill-rule="nonzero" fill-opacity="1" /><path clip-path="url(#clip930)" d="M1874.66 1454.1 Q1871.05 1454.1 1869.22 1457.66 Q1867.42 1461.2 1867.42 1468.33 Q1867.42 1475.44 1869.22 1479.01 Q1871.05 1482.55 1874.66 1482.55 Q1878.3 1482.55 1880.1 1479.01 Q1881.93 1475.44 1881.93 1468.33 Q1881.93 1461.2 1880.1 1457.66 Q1878.3 1454.1 1874.66 1454.1 M1874.66 1450.39 Q1880.47 1450.39 1883.53 1455 Q1886.61 1459.58 1886.61 1468.33 Q1886.61 1477.06 1883.53 1481.67 Q1880.47 1486.25 1874.66 1486.25 Q1868.85 1486.25 1865.78 1481.67 Q1862.72 1477.06 1862.72 1468.33 Q1862.72 1459.58 1865.78 1455 Q1868.85 1450.39 1874.66 1450.39 Z" fill="#000000" fill-rule="nonzero" fill-opacity="1" /><path clip-path="url(#clip930)" d="M964.841 1520.52 L1005.04 1520.52 L1005.04 1525.93 L988.171 1525.93 L988.171 1568.04 L981.71 1568.04 L981.71 1525.93 L964.841 1525.93 L964.841 1520.52 Z" fill="#000000" fill-rule="nonzero" fill-opacity="1" /><path clip-path="url(#clip930)" d="M1008.99 1532.4 L1014.84 1532.4 L1014.84 1568.04 L1008.99 1568.04 L1008.99 1532.4 M1008.99 1518.52 L1014.84 1518.52 L1014.84 1525.93 L1008.99 1525.93 L1008.99 1518.52 Z" fill="#000000" fill-rule="nonzero" fill-opacity="1" /><path clip-path="url(#clip930)" d="M1054.85 1539.24 Q1057.05 1535.29 1060.1 1533.41 Q1063.16 1531.54 1067.3 1531.54 Q1072.87 1531.54 1075.89 1535.45 Q1078.91 1539.33 1078.91 1546.53 L1078.91 1568.04 L1073.03 1568.04 L1073.03 1546.72 Q1073.03 1541.59 1071.21 1539.11 Q1069.4 1536.63 1065.67 1536.63 Q1061.12 1536.63 1058.48 1539.65 Q1055.84 1542.68 1055.84 1547.9 L1055.84 1568.04 L1049.95 1568.04 L1049.95 1546.72 Q1049.95 1541.56 1048.14 1539.11 Q1046.32 1536.63 1042.53 1536.63 Q1038.05 1536.63 1035.4 1539.68 Q1032.76 1542.71 1032.76 1547.9 L1032.76 1568.04 L1026.87 1568.04 L1026.87 1532.4 L1032.76 1532.4 L1032.76 1537.93 Q1034.77 1534.66 1037.57 1533.1 Q1040.37 1531.54 1044.22 1531.54 Q1048.1 1531.54 1050.81 1533.51 Q1053.55 1535.48 1054.85 1539.24 Z" fill="#000000" fill-rule="nonzero" fill-opacity="1" /><path clip-path="url(#clip930)" d="M1121.09 1548.76 L1121.09 1551.62 L1094.16 1551.62 Q1094.54 1557.67 1097.79 1560.85 Q1101.07 1564 1106.89 1564 Q1110.27 1564 1113.42 1563.17 Q1116.6 1562.35 1119.72 1560.69 L1119.72 1566.23 Q1116.57 1567.57 1113.26 1568.27 Q1109.95 1568.97 1106.54 1568.97 Q1098.01 1568.97 1093.01 1564 Q1088.05 1559.04 1088.05 1550.57 Q1088.05 1541.82 1092.76 1536.69 Q1097.5 1531.54 1105.52 1531.54 Q1112.72 1531.54 1116.89 1536.18 Q1121.09 1540.8 1121.09 1548.76 M1115.23 1547.04 Q1115.17 1542.23 1112.53 1539.37 Q1109.92 1536.5 1105.59 1536.5 Q1100.68 1536.5 1097.72 1539.27 Q1094.8 1542.04 1094.35 1547.07 L1115.23 1547.04 Z" fill="#000000" fill-rule="nonzero" fill-opacity="1" /><path clip-path="url(#clip930)" d="M1165.23 1536.5 Q1160.52 1536.5 1157.79 1540.19 Q1155.05 1543.85 1155.05 1550.25 Q1155.05 1556.65 1157.75 1560.34 Q1160.49 1564 1165.23 1564 Q1169.91 1564 1172.65 1560.31 Q1175.39 1556.62 1175.39 1550.25 Q1175.39 1543.92 1172.65 1540.23 Q1169.91 1536.5 1165.23 1536.5 M1165.23 1531.54 Q1172.87 1531.54 1177.23 1536.5 Q1181.59 1541.47 1181.59 1550.25 Q1181.59 1559 1177.23 1564 Q1172.87 1568.97 1165.23 1568.97 Q1157.56 1568.97 1153.2 1564 Q1148.87 1559 1148.87 1550.25 Q1148.87 1541.47 1153.2 1536.5 Q1157.56 1531.54 1165.23 1531.54 Z" fill="#000000" fill-rule="nonzero" fill-opacity="1" /><path clip-path="url(#clip930)" d="M1209.35 1518.52 L1209.35 1523.39 L1203.75 1523.39 Q1200.59 1523.39 1199.35 1524.66 Q1198.14 1525.93 1198.14 1529.24 L1198.14 1532.4 L1207.79 1532.4 L1207.79 1536.95 L1198.14 1536.95 L1198.14 1568.04 L1192.26 1568.04 L1192.26 1536.95 L1186.65 1536.95 L1186.65 1532.4 L1192.26 1532.4 L1192.26 1529.91 Q1192.26 1523.96 1195.02 1521.26 Q1197.79 1518.52 1203.81 1518.52 L1209.35 1518.52 Z" fill="#000000" fill-rule="nonzero" fill-opacity="1" /><path clip-path="url(#clip930)" d="M1241.65 1525.81 L1241.65 1562.76 L1249.42 1562.76 Q1259.25 1562.76 1263.81 1558.3 Q1268.39 1553.85 1268.39 1544.24 Q1268.39 1534.69 1263.81 1530.26 Q1259.25 1525.81 1249.42 1525.81 L1241.65 1525.81 M1235.22 1520.52 L1248.43 1520.52 Q1262.25 1520.52 1268.71 1526.28 Q1275.17 1532.01 1275.17 1544.24 Q1275.17 1556.52 1268.68 1562.28 Q1262.18 1568.04 1248.43 1568.04 L1235.22 1568.04 L1235.22 1520.52 Z" fill="#000000" fill-rule="nonzero" fill-opacity="1" /><path clip-path="url(#clip930)" d="M1301.36 1550.12 Q1294.27 1550.12 1291.53 1551.75 Q1288.79 1553.37 1288.79 1557.29 Q1288.79 1560.4 1290.83 1562.25 Q1292.9 1564.07 1296.43 1564.07 Q1301.3 1564.07 1304.23 1560.63 Q1307.19 1557.16 1307.19 1551.43 L1307.19 1550.12 L1301.36 1550.12 M1313.04 1547.71 L1313.04 1568.04 L1307.19 1568.04 L1307.19 1562.63 Q1305.18 1565.88 1302.19 1567.44 Q1299.2 1568.97 1294.87 1568.97 Q1289.4 1568.97 1286.15 1565.91 Q1282.94 1562.82 1282.94 1557.67 Q1282.94 1551.65 1286.95 1548.6 Q1290.99 1545.54 1298.98 1545.54 L1307.19 1545.54 L1307.19 1544.97 Q1307.19 1540.93 1304.51 1538.73 Q1301.87 1536.5 1297.07 1536.5 Q1294.01 1536.5 1291.11 1537.23 Q1288.22 1537.97 1285.54 1539.43 L1285.54 1534.02 Q1288.76 1532.78 1291.78 1532.17 Q1294.81 1531.54 1297.67 1531.54 Q1305.41 1531.54 1309.23 1535.55 Q1313.04 1539.56 1313.04 1547.71 Z" fill="#000000" fill-rule="nonzero" fill-opacity="1" /><path clip-path="url(#clip930)" d="M1339.94 1571.35 Q1337.46 1577.72 1335.1 1579.66 Q1332.75 1581.6 1328.8 1581.6 L1324.12 1581.6 L1324.12 1576.7 L1327.56 1576.7 Q1329.98 1576.7 1331.31 1575.56 Q1332.65 1574.41 1334.27 1570.14 L1335.32 1567.47 L1320.91 1532.4 L1327.11 1532.4 L1338.25 1560.28 L1349.39 1532.4 L1355.6 1532.4 L1339.94 1571.35 Z" fill="#000000" fill-rule="nonzero" fill-opacity="1" /><path clip-path="url(#clip930)" d="M1383.86 1518.52 L1397.36 1518.52 L1397.36 1523.07 L1389.72 1523.07 L1389.72 1572.09 L1397.36 1572.09 L1397.36 1576.64 L1383.86 1576.64 L1383.86 1518.52 Z" fill="#000000" fill-rule="nonzero" fill-opacity="1" /><path clip-path="url(#clip930)" d="M1439.47 1546.53 L1439.47 1568.04 L1433.61 1568.04 L1433.61 1546.72 Q1433.61 1541.66 1431.64 1539.14 Q1429.66 1536.63 1425.72 1536.63 Q1420.98 1536.63 1418.24 1539.65 Q1415.5 1542.68 1415.5 1547.9 L1415.5 1568.04 L1409.61 1568.04 L1409.61 1518.52 L1415.5 1518.52 L1415.5 1537.93 Q1417.6 1534.72 1420.43 1533.13 Q1423.3 1531.54 1427.02 1531.54 Q1433.17 1531.54 1436.32 1535.36 Q1439.47 1539.14 1439.47 1546.53 Z" fill="#000000" fill-rule="nonzero" fill-opacity="1" /><path clip-path="url(#clip930)" d="M1464.84 1518.52 L1464.84 1576.64 L1451.34 1576.64 L1451.34 1572.09 L1458.95 1572.09 L1458.95 1523.07 L1451.34 1523.07 L1451.34 1518.52 L1464.84 1518.52 Z" fill="#000000" fill-rule="nonzero" fill-opacity="1" /><polyline clip-path="url(#clip930)" style="stroke:#000000; stroke-linecap:round; stroke-linejoin:round; stroke-width:4; stroke-opacity:1; fill:none" points="247.459,1423.18 247.459,47.2441 "/>
<polyline clip-path="url(#clip930)" style="stroke:#000000; stroke-linecap:round; stroke-linejoin:round; stroke-width:4; stroke-opacity:1; fill:none" points="247.459,1384.24 266.356,1384.24 "/>
<polyline clip-path="url(#clip930)" style="stroke:#000000; stroke-linecap:round; stroke-linejoin:round; stroke-width:4; stroke-opacity:1; fill:none" points="247.459,1072.2 266.356,1072.2 "/>
<polyline clip-path="url(#clip930)" style="stroke:#000000; stroke-linecap:round; stroke-linejoin:round; stroke-width:4; stroke-opacity:1; fill:none" points="247.459,760.163 266.356,760.163 "/>
<polyline clip-path="url(#clip930)" style="stroke:#000000; stroke-linecap:round; stroke-linejoin:round; stroke-width:4; stroke-opacity:1; fill:none" points="247.459,448.126 266.356,448.126 "/>
<polyline clip-path="url(#clip930)" style="stroke:#000000; stroke-linecap:round; stroke-linejoin:round; stroke-width:4; stroke-opacity:1; fill:none" points="247.459,136.089 266.356,136.089 "/>
<path clip-path="url(#clip930)" d="M154.283 1370.04 Q150.672 1370.04 148.843 1373.6 Q147.038 1377.14 147.038 1384.27 Q147.038 1391.38 148.843 1394.94 Q150.672 1398.49 154.283 1398.49 Q157.917 1398.49 159.723 1394.94 Q161.552 1391.38 161.552 1384.27 Q161.552 1377.14 159.723 1373.6 Q157.917 1370.04 154.283 1370.04 M154.283 1366.33 Q160.093 1366.33 163.149 1370.94 Q166.227 1375.52 166.227 1384.27 Q166.227 1393 163.149 1397.61 Q160.093 1402.19 154.283 1402.19 Q148.473 1402.19 145.394 1397.61 Q142.339 1393 142.339 1384.27 Q142.339 1375.52 145.394 1370.94 Q148.473 1366.33 154.283 1366.33 Z" fill="#000000" fill-rule="nonzero" fill-opacity="1" /><path clip-path="url(#clip930)" d="M174.445 1395.64 L179.329 1395.64 L179.329 1401.52 L174.445 1401.52 L174.445 1395.64 Z" fill="#000000" fill-rule="nonzero" fill-opacity="1" /><path clip-path="url(#clip930)" d="M199.514 1370.04 Q195.903 1370.04 194.075 1373.6 Q192.269 1377.14 192.269 1384.27 Q192.269 1391.38 194.075 1394.94 Q195.903 1398.49 199.514 1398.49 Q203.149 1398.49 204.954 1394.94 Q206.783 1391.38 206.783 1384.27 Q206.783 1377.14 204.954 1373.6 Q203.149 1370.04 199.514 1370.04 M199.514 1366.33 Q205.324 1366.33 208.38 1370.94 Q211.459 1375.52 211.459 1384.27 Q211.459 1393 208.38 1397.61 Q205.324 1402.19 199.514 1402.19 Q193.704 1402.19 190.625 1397.61 Q187.57 1393 187.57 1384.27 Q187.57 1375.52 190.625 1370.94 Q193.704 1366.33 199.514 1366.33 Z" fill="#000000" fill-rule="nonzero" fill-opacity="1" /><path clip-path="url(#clip930)" d="M149.306 1085.55 L165.626 1085.55 L165.626 1089.48 L143.681 1089.48 L143.681 1085.55 Q146.343 1082.79 150.927 1078.16 Q155.533 1073.51 156.714 1072.17 Q158.959 1069.64 159.839 1067.91 Q160.741 1066.15 160.741 1064.46 Q160.741 1061.7 158.797 1059.97 Q156.876 1058.23 153.774 1058.23 Q151.575 1058.23 149.121 1058.99 Q146.691 1059.76 143.913 1061.31 L143.913 1056.59 Q146.737 1055.45 149.191 1054.87 Q151.644 1054.3 153.681 1054.3 Q159.052 1054.3 162.246 1056.98 Q165.44 1059.67 165.44 1064.16 Q165.44 1066.29 164.63 1068.21 Q163.843 1070.11 161.737 1072.7 Q161.158 1073.37 158.056 1076.59 Q154.954 1079.78 149.306 1085.55 Z" fill="#000000" fill-rule="nonzero" fill-opacity="1" /><path clip-path="url(#clip930)" d="M175.44 1083.6 L180.325 1083.6 L180.325 1089.48 L175.44 1089.48 L175.44 1083.6 Z" fill="#000000" fill-rule="nonzero" fill-opacity="1" /><path clip-path="url(#clip930)" d="M190.556 1054.92 L208.912 1054.92 L208.912 1058.86 L194.838 1058.86 L194.838 1067.33 Q195.857 1066.98 196.875 1066.82 Q197.894 1066.63 198.912 1066.63 Q204.699 1066.63 208.079 1069.81 Q211.459 1072.98 211.459 1078.39 Q211.459 1083.97 207.987 1087.07 Q204.514 1090.15 198.195 1090.15 Q196.019 1090.15 193.75 1089.78 Q191.505 1089.41 189.098 1088.67 L189.098 1083.97 Q191.181 1085.11 193.403 1085.66 Q195.625 1086.22 198.102 1086.22 Q202.107 1086.22 204.445 1084.11 Q206.783 1082 206.783 1078.39 Q206.783 1074.78 204.445 1072.68 Q202.107 1070.57 198.102 1070.57 Q196.227 1070.57 194.352 1070.99 Q192.5 1071.4 190.556 1072.28 L190.556 1054.92 Z" fill="#000000" fill-rule="nonzero" fill-opacity="1" /><path clip-path="url(#clip930)" d="M144.329 742.883 L162.686 742.883 L162.686 746.819 L148.612 746.819 L148.612 755.291 Q149.63 754.944 150.649 754.782 Q151.667 754.596 152.686 754.596 Q158.473 754.596 161.852 757.768 Q165.232 760.939 165.232 766.356 Q165.232 771.934 161.76 775.036 Q158.288 778.115 151.968 778.115 Q149.792 778.115 147.524 777.744 Q145.279 777.374 142.871 776.633 L142.871 771.934 Q144.954 773.068 147.177 773.624 Q149.399 774.18 151.876 774.18 Q155.88 774.18 158.218 772.073 Q160.556 769.967 160.556 766.356 Q160.556 762.744 158.218 760.638 Q155.88 758.531 151.876 758.531 Q150.001 758.531 148.126 758.948 Q146.274 759.365 144.329 760.244 L144.329 742.883 Z" fill="#000000" fill-rule="nonzero" fill-opacity="1" /><path clip-path="url(#clip930)" d="M174.445 771.564 L179.329 771.564 L179.329 777.443 L174.445 777.443 L174.445 771.564 Z" fill="#000000" fill-rule="nonzero" fill-opacity="1" /><path clip-path="url(#clip930)" d="M199.514 745.962 Q195.903 745.962 194.075 749.527 Q192.269 753.069 192.269 760.198 Q192.269 767.305 194.075 770.869 Q195.903 774.411 199.514 774.411 Q203.149 774.411 204.954 770.869 Q206.783 767.305 206.783 760.198 Q206.783 753.069 204.954 749.527 Q203.149 745.962 199.514 745.962 M199.514 742.258 Q205.324 742.258 208.38 746.865 Q211.459 751.448 211.459 760.198 Q211.459 768.925 208.38 773.531 Q205.324 778.115 199.514 778.115 Q193.704 778.115 190.625 773.531 Q187.57 768.925 187.57 760.198 Q187.57 751.448 190.625 746.865 Q193.704 742.258 199.514 742.258 Z" fill="#000000" fill-rule="nonzero" fill-opacity="1" /><path clip-path="url(#clip930)" d="M144.098 430.846 L166.32 430.846 L166.32 432.837 L153.774 465.406 L148.89 465.406 L160.695 434.781 L144.098 434.781 L144.098 430.846 Z" fill="#000000" fill-rule="nonzero" fill-opacity="1" /><path clip-path="url(#clip930)" d="M175.44 459.526 L180.325 459.526 L180.325 465.406 L175.44 465.406 L175.44 459.526 Z" fill="#000000" fill-rule="nonzero" fill-opacity="1" /><path clip-path="url(#clip930)" d="M190.556 430.846 L208.912 430.846 L208.912 434.781 L194.838 434.781 L194.838 443.253 Q195.857 442.906 196.875 442.744 Q197.894 442.559 198.912 442.559 Q204.699 442.559 208.079 445.73 Q211.459 448.901 211.459 454.318 Q211.459 459.897 207.987 462.999 Q204.514 466.077 198.195 466.077 Q196.019 466.077 193.75 465.707 Q191.505 465.337 189.098 464.596 L189.098 459.897 Q191.181 461.031 193.403 461.587 Q195.625 462.142 198.102 462.142 Q202.107 462.142 204.445 460.036 Q206.783 457.929 206.783 454.318 Q206.783 450.707 204.445 448.601 Q202.107 446.494 198.102 446.494 Q196.227 446.494 194.352 446.911 Q192.5 447.327 190.556 448.207 L190.556 430.846 Z" fill="#000000" fill-rule="nonzero" fill-opacity="1" /><path clip-path="url(#clip930)" d="M114.931 149.433 L122.57 149.433 L122.57 123.068 L114.26 124.734 L114.26 120.475 L122.524 118.809 L127.2 118.809 L127.2 149.433 L134.839 149.433 L134.839 153.369 L114.931 153.369 L114.931 149.433 Z" fill="#000000" fill-rule="nonzero" fill-opacity="1" /><path clip-path="url(#clip930)" d="M154.283 121.887 Q150.672 121.887 148.843 125.452 Q147.038 128.994 147.038 136.123 Q147.038 143.23 148.843 146.795 Q150.672 150.336 154.283 150.336 Q157.917 150.336 159.723 146.795 Q161.552 143.23 161.552 136.123 Q161.552 128.994 159.723 125.452 Q157.917 121.887 154.283 121.887 M154.283 118.184 Q160.093 118.184 163.149 122.79 Q166.227 127.373 166.227 136.123 Q166.227 144.85 163.149 149.457 Q160.093 154.04 154.283 154.04 Q148.473 154.04 145.394 149.457 Q142.339 144.85 142.339 136.123 Q142.339 127.373 145.394 122.79 Q148.473 118.184 154.283 118.184 Z" fill="#000000" fill-rule="nonzero" fill-opacity="1" /><path clip-path="url(#clip930)" d="M174.445 147.489 L179.329 147.489 L179.329 153.369 L174.445 153.369 L174.445 147.489 Z" fill="#000000" fill-rule="nonzero" fill-opacity="1" /><path clip-path="url(#clip930)" d="M199.514 121.887 Q195.903 121.887 194.075 125.452 Q192.269 128.994 192.269 136.123 Q192.269 143.23 194.075 146.795 Q195.903 150.336 199.514 150.336 Q203.149 150.336 204.954 146.795 Q206.783 143.23 206.783 136.123 Q206.783 128.994 204.954 125.452 Q203.149 121.887 199.514 121.887 M199.514 118.184 Q205.324 118.184 208.38 122.79 Q211.459 127.373 211.459 136.123 Q211.459 144.85 208.38 149.457 Q205.324 154.04 199.514 154.04 Q193.704 154.04 190.625 149.457 Q187.57 144.85 187.57 136.123 Q187.57 127.373 190.625 122.79 Q193.704 118.184 199.514 118.184 Z" fill="#000000" fill-rule="nonzero" fill-opacity="1" /><path clip-path="url(#clip930)" d="M20.1444 1095.14 L26.9239 1095.14 Q23.9002 1098.39 22.4043 1102.08 Q20.9083 1105.74 20.9083 1109.88 Q20.9083 1118.03 25.9054 1122.36 Q30.8707 1126.69 40.2919 1126.69 Q49.6813 1126.69 54.6784 1122.36 Q59.6436 1118.03 59.6436 1109.88 Q59.6436 1105.74 58.1477 1102.08 Q56.6518 1098.39 53.6281 1095.14 L60.3439 1095.14 Q62.6355 1098.52 63.7814 1102.31 Q64.9272 1106.06 64.9272 1110.26 Q64.9272 1121.05 58.3387 1127.26 Q51.7183 1133.47 40.2919 1133.47 Q28.8336 1133.47 22.2451 1127.26 Q15.6248 1121.05 15.6248 1110.26 Q15.6248 1106 16.7706 1102.24 Q17.8846 1098.46 20.1444 1095.14 Z" fill="#ff0000" fill-rule="nonzero" fill-opacity="1" /><path clip-path="url(#clip930)" d="M46.0847 1069.27 Q46.0847 1076.37 47.7079 1079.1 Q49.3312 1081.84 53.2461 1081.84 Q56.3653 1081.84 58.2114 1079.8 Q60.0256 1077.73 60.0256 1074.2 Q60.0256 1069.33 56.5881 1066.4 Q53.1188 1063.44 47.3897 1063.44 L46.0847 1063.44 L46.0847 1069.27 M43.6657 1057.59 L64.0042 1057.59 L64.0042 1063.44 L58.5933 1063.44 Q61.8398 1065.45 63.3994 1068.44 Q64.9272 1071.43 64.9272 1075.76 Q64.9272 1081.24 61.8716 1084.48 Q58.7843 1087.7 53.6281 1087.7 Q47.6125 1087.7 44.5569 1083.69 Q41.5014 1079.64 41.5014 1071.66 L41.5014 1063.44 L40.9285 1063.44 Q36.8862 1063.44 34.6901 1066.12 Q32.4621 1068.76 32.4621 1073.57 Q32.4621 1076.62 33.1941 1079.52 Q33.9262 1082.41 35.3903 1085.09 L29.9795 1085.09 Q28.7381 1081.87 28.1334 1078.85 Q27.4968 1075.83 27.4968 1072.96 Q27.4968 1065.23 31.5072 1061.41 Q35.5176 1057.59 43.6657 1057.59 Z" fill="#ff0000" fill-rule="nonzero" fill-opacity="1" /><path clip-path="url(#clip930)" d="M58.657 1039.86 L77.5631 1039.86 L77.5631 1045.75 L28.3562 1045.75 L28.3562 1039.86 L33.7671 1039.86 Q30.5842 1038.01 29.0564 1035.21 Q27.4968 1032.38 27.4968 1028.46 Q27.4968 1021.97 32.6531 1017.93 Q37.8093 1013.85 46.212 1013.85 Q54.6147 1013.85 59.771 1017.93 Q64.9272 1021.97 64.9272 1028.46 Q64.9272 1032.38 63.3994 1035.21 Q61.8398 1038.01 58.657 1039.86 M46.212 1019.93 Q39.7508 1019.93 36.0905 1022.61 Q32.3984 1025.25 32.3984 1029.9 Q32.3984 1034.54 36.0905 1037.22 Q39.7508 1039.86 46.212 1039.86 Q52.6732 1039.86 56.3653 1037.22 Q60.0256 1034.54 60.0256 1029.9 Q60.0256 1025.25 56.3653 1022.61 Q52.6732 1019.93 46.212 1019.93 Z" fill="#ff0000" fill-rule="nonzero" fill-opacity="1" /><path clip-path="url(#clip930)" d="M46.0847 987.946 Q46.0847 995.044 47.7079 997.781 Q49.3312 1000.52 53.2461 1000.52 Q56.3653 1000.52 58.2114 998.482 Q60.0256 996.413 60.0256 992.88 Q60.0256 988.01 56.5881 985.082 Q53.1188 982.122 47.3897 982.122 L46.0847 982.122 L46.0847 987.946 M43.6657 976.265 L64.0042 976.265 L64.0042 982.122 L58.5933 982.122 Q61.8398 984.127 63.3994 987.119 Q64.9272 990.111 64.9272 994.439 Q64.9272 999.914 61.8716 1003.16 Q58.7843 1006.38 53.6281 1006.38 Q47.6125 1006.38 44.5569 1002.36 Q41.5014 998.323 41.5014 990.334 L41.5014 982.122 L40.9285 982.122 Q36.8862 982.122 34.6901 984.795 Q32.4621 987.437 32.4621 992.243 Q32.4621 995.299 33.1941 998.195 Q33.9262 1001.09 35.3903 1003.77 L29.9795 1003.77 Q28.7381 1000.55 28.1334 997.527 Q27.4968 994.503 27.4968 991.639 Q27.4968 983.904 31.5072 980.085 Q35.5176 976.265 43.6657 976.265 Z" fill="#ff0000" fill-rule="nonzero" fill-opacity="1" /><path clip-path="url(#clip930)" d="M29.7248 938.549 L35.1993 938.549 Q33.8307 941.031 33.1623 943.546 Q32.4621 946.028 32.4621 948.575 Q32.4621 954.272 36.0905 957.423 Q39.6872 960.574 46.212 960.574 Q52.7369 960.574 56.3653 957.423 Q59.9619 954.272 59.9619 948.575 Q59.9619 946.028 59.2935 943.546 Q58.5933 941.031 57.2247 938.549 L62.6355 938.549 Q63.7814 940.999 64.3543 943.641 Q64.9272 946.251 64.9272 949.211 Q64.9272 957.264 59.8664 962.006 Q54.8057 966.749 46.212 966.749 Q37.491 966.749 32.4939 961.974 Q27.4968 957.168 27.4968 948.829 Q27.4968 946.124 28.0697 943.546 Q28.6108 940.968 29.7248 938.549 Z" fill="#ff0000" fill-rule="nonzero" fill-opacity="1" /><path clip-path="url(#clip930)" d="M28.3562 928.363 L28.3562 922.507 L64.0042 922.507 L64.0042 928.363 L28.3562 928.363 M14.479 928.363 L14.479 922.507 L21.895 922.507 L21.895 928.363 L14.479 928.363 Z" fill="#ff0000" fill-rule="nonzero" fill-opacity="1" /><path clip-path="url(#clip930)" d="M18.2347 904.46 L28.3562 904.46 L28.3562 892.397 L32.9077 892.397 L32.9077 904.46 L52.2594 904.46 Q56.6199 904.46 57.8613 903.283 Q59.1026 902.073 59.1026 898.413 L59.1026 892.397 L64.0042 892.397 L64.0042 898.413 Q64.0042 905.192 61.4897 907.77 Q58.9434 910.348 52.2594 910.348 L32.9077 910.348 L32.9077 914.645 L28.3562 914.645 L28.3562 910.348 L18.2347 910.348 L18.2347 904.46 Z" fill="#ff0000" fill-rule="nonzero" fill-opacity="1" /><path clip-path="url(#clip930)" d="M67.3143 869.863 Q73.68 872.345 75.6216 874.701 Q77.5631 877.056 77.5631 881.003 L77.5631 885.681 L72.6615 885.681 L72.6615 882.244 Q72.6615 879.825 71.5157 878.488 Q70.3699 877.151 66.1048 875.528 L63.4312 874.478 L28.3562 888.896 L28.3562 882.689 L56.238 871.549 L28.3562 860.41 L28.3562 854.203 L67.3143 869.863 Z" fill="#ff0000" fill-rule="nonzero" fill-opacity="1" /><path clip-path="url(#clip930)" d="M16.4842 825.143 L16.4842 818.714 L58.5933 818.714 L58.5933 795.575 L64.0042 795.575 L64.0042 825.143 L16.4842 825.143 Z" fill="#ff0000" fill-rule="nonzero" fill-opacity="1" /><path clip-path="url(#clip930)" d="M28.3562 789.082 L28.3562 783.225 L64.0042 783.225 L64.0042 789.082 L28.3562 789.082 M14.479 789.082 L14.479 783.225 L21.895 783.225 L21.895 789.082 L14.479 789.082 Z" fill="#ff0000" fill-rule="nonzero" fill-opacity="1" /><path clip-path="url(#clip930)" d="M35.1993 743.217 Q31.2526 741.021 29.3747 737.965 Q27.4968 734.91 27.4968 730.772 Q27.4968 725.202 31.4117 722.178 Q35.2948 719.154 42.4881 719.154 L64.0042 719.154 L64.0042 725.043 L42.679 725.043 Q37.5546 725.043 35.072 726.857 Q32.5894 728.671 32.5894 732.395 Q32.5894 736.947 35.6131 739.588 Q38.6368 742.23 43.8567 742.23 L64.0042 742.23 L64.0042 748.118 L42.679 748.118 Q37.5228 748.118 35.072 749.933 Q32.5894 751.747 32.5894 755.534 Q32.5894 760.022 35.6449 762.664 Q38.6686 765.306 43.8567 765.306 L64.0042 765.306 L64.0042 771.194 L28.3562 771.194 L28.3562 765.306 L33.8944 765.306 Q30.616 763.301 29.0564 760.5 Q27.4968 757.699 27.4968 753.848 Q27.4968 749.964 29.4702 747.259 Q31.4436 744.522 35.1993 743.217 Z" fill="#ff0000" fill-rule="nonzero" fill-opacity="1" /><path clip-path="url(#clip930)" d="M28.3562 707.473 L28.3562 701.617 L64.0042 701.617 L64.0042 707.473 L28.3562 707.473 M14.479 707.473 L14.479 701.617 L21.895 701.617 L21.895 707.473 L14.479 707.473 Z" fill="#ff0000" fill-rule="nonzero" fill-opacity="1" /><path clip-path="url(#clip930)" d="M18.2347 683.57 L28.3562 683.57 L28.3562 671.507 L32.9077 671.507 L32.9077 683.57 L52.2594 683.57 Q56.6199 683.57 57.8613 682.393 Q59.1026 681.183 59.1026 677.523 L59.1026 671.507 L64.0042 671.507 L64.0042 677.523 Q64.0042 684.302 61.4897 686.88 Q58.9434 689.458 52.2594 689.458 L32.9077 689.458 L32.9077 693.755 L28.3562 693.755 L28.3562 689.458 L18.2347 689.458 L18.2347 683.57 Z" fill="#ff0000" fill-rule="nonzero" fill-opacity="1" /><path clip-path="url(#clip930)" d="M46.0847 647.604 Q46.0847 654.702 47.7079 657.439 Q49.3312 660.176 53.2461 660.176 Q56.3653 660.176 58.2114 658.139 Q60.0256 656.07 60.0256 652.537 Q60.0256 647.668 56.5881 644.739 Q53.1188 641.779 47.3897 641.779 L46.0847 641.779 L46.0847 647.604 M43.6657 635.923 L64.0042 635.923 L64.0042 641.779 L58.5933 641.779 Q61.8398 643.785 63.3994 646.776 Q64.9272 649.768 64.9272 654.097 Q64.9272 659.571 61.8716 662.818 Q58.7843 666.033 53.6281 666.033 Q47.6125 666.033 44.5569 662.022 Q41.5014 657.98 41.5014 649.991 L41.5014 641.779 L40.9285 641.779 Q36.8862 641.779 34.6901 644.453 Q32.4621 647.095 32.4621 651.901 Q32.4621 654.956 33.1941 657.853 Q33.9262 660.749 35.3903 663.423 L29.9795 663.423 Q28.7381 660.208 28.1334 657.184 Q27.4968 654.161 27.4968 651.296 Q27.4968 643.562 31.5072 639.742 Q35.5176 635.923 43.6657 635.923 Z" fill="#ff0000" fill-rule="nonzero" fill-opacity="1" /><path clip-path="url(#clip930)" d="M18.2347 618.067 L28.3562 618.067 L28.3562 606.004 L32.9077 606.004 L32.9077 618.067 L52.2594 618.067 Q56.6199 618.067 57.8613 616.889 Q59.1026 615.68 59.1026 612.02 L59.1026 606.004 L64.0042 606.004 L64.0042 612.02 Q64.0042 618.799 61.4897 621.377 Q58.9434 623.955 52.2594 623.955 L32.9077 623.955 L32.9077 628.252 L28.3562 628.252 L28.3562 623.955 L18.2347 623.955 L18.2347 618.067 Z" fill="#ff0000" fill-rule="nonzero" fill-opacity="1" /><path clip-path="url(#clip930)" d="M28.3562 598.302 L28.3562 592.445 L64.0042 592.445 L64.0042 598.302 L28.3562 598.302 M14.479 598.302 L14.479 592.445 L21.895 592.445 L21.895 598.302 L14.479 598.302 Z" fill="#ff0000" fill-rule="nonzero" fill-opacity="1" /><path clip-path="url(#clip930)" d="M32.4621 566.378 Q32.4621 571.088 36.1542 573.825 Q39.8145 576.563 46.212 576.563 Q52.6095 576.563 56.3017 573.857 Q59.9619 571.12 59.9619 566.378 Q59.9619 561.699 56.2698 558.961 Q52.5777 556.224 46.212 556.224 Q39.8781 556.224 36.186 558.961 Q32.4621 561.699 32.4621 566.378 M27.4968 566.378 Q27.4968 558.739 32.4621 554.378 Q37.4273 550.018 46.212 550.018 Q54.9649 550.018 59.9619 554.378 Q64.9272 558.739 64.9272 566.378 Q64.9272 574.048 59.9619 578.409 Q54.9649 582.737 46.212 582.737 Q37.4273 582.737 32.4621 578.409 Q27.4968 574.048 27.4968 566.378 Z" fill="#ff0000" fill-rule="nonzero" fill-opacity="1" /><path clip-path="url(#clip930)" d="M42.4881 510.678 L64.0042 510.678 L64.0042 516.534 L42.679 516.534 Q37.6183 516.534 35.1038 518.507 Q32.5894 520.481 32.5894 524.428 Q32.5894 529.17 35.6131 531.907 Q38.6368 534.644 43.8567 534.644 L64.0042 534.644 L64.0042 540.533 L28.3562 540.533 L28.3562 534.644 L33.8944 534.644 Q30.6797 532.544 29.0883 529.711 Q27.4968 526.846 27.4968 523.123 Q27.4968 516.98 31.3163 513.829 Q35.1038 510.678 42.4881 510.678 Z" fill="#ff0000" fill-rule="nonzero" fill-opacity="1" /><path clip-path="url(#clip930)" d="M14.479 478.817 L14.479 465.322 L19.0304 465.322 L19.0304 472.961 L68.0464 472.961 L68.0464 465.322 L72.5979 465.322 L72.5979 478.817 L14.479 478.817 Z" fill="#ff0000" fill-rule="nonzero" fill-opacity="1" /><path clip-path="url(#clip930)" d="M14.479 453.068 L14.479 447.18 L43.7294 447.18 L28.3562 429.706 L28.3562 422.226 L45.0344 441.132 L64.0042 421.43 L64.0042 429.069 L46.5939 447.18 L64.0042 447.18 L64.0042 453.068 L14.479 453.068 Z" fill="#ff0000" fill-rule="nonzero" fill-opacity="1" /><path clip-path="url(#clip930)" d="M16.4842 419.075 L16.4842 412.582 L56.6518 402.588 L16.4842 392.626 L16.4842 385.4 L56.6518 375.406 L16.4842 365.444 L16.4842 358.919 L64.0042 370.855 L64.0042 378.939 L22.7544 388.965 L64.0042 399.087 L64.0042 407.171 L16.4842 419.075 Z" fill="#ff0000" fill-rule="nonzero" fill-opacity="1" /><path clip-path="url(#clip930)" d="M14.479 336.957 L72.5979 336.957 L72.5979 350.453 L68.0464 350.453 L68.0464 342.846 L19.0304 342.846 L19.0304 350.453 L14.479 350.453 L14.479 336.957 Z" fill="#ff0000" fill-rule="nonzero" fill-opacity="1" /><polyline clip-path="url(#clip932)" style="stroke:#ff0000; stroke-linecap:round; stroke-linejoin:round; stroke-width:4; stroke-opacity:1; fill:none" points="247.459,283.595 328.074,283.595 328.074,180.375 408.689,180.375 408.689,154.148 489.304,154.148 489.304,86.1857 569.918,86.1857 569.918,86.5806 650.533,86.5806 650.533,242.86 731.148,242.86 731.148,692.107 811.763,692.107 811.763,843.699 892.378,843.699 892.378,991.552 972.993,991.552 972.993,801.015 1053.61,801.015 1053.61,704.272 1134.22,704.272 1134.22,648.449 1214.84,648.449 1214.84,587.333 1295.45,587.333 1295.45,455.147 1376.07,455.147 1376.07,339.998 1456.68,339.998 1456.68,427.525 1537.3,427.525 1537.3,452.988 1617.91,452.988 1617.91,695.451 1698.53,695.451 1698.53,954.951 1779.14,954.951 1779.14,1205.81 1859.76,1205.81 1859.76,1368.18 1940.37,1368.18 1940.37,1384.24 2020.99,1384.24 2020.99,1138.43 2101.6,1138.43 2101.6,902.261 "/>
<polyline clip-path="url(#clip932)" style="stroke:#ff0000; stroke-linecap:round; stroke-linejoin:round; stroke-width:4; stroke-opacity:1; fill:none" points="2101.6,902.261 2182.22,902.261 "/>
<polyline clip-path="url(#clip932)" style="stroke:#ff0000; stroke-linecap:round; stroke-linejoin:round; stroke-width:4; stroke-opacity:1; fill:none" stroke-dasharray="16, 10" points="247.459,509.404 328.074,509.404 328.074,457.793 408.689,457.793 408.689,444.68 489.304,444.68 489.304,410.699 569.918,410.699 569.918,410.896 650.533,410.896 650.533,489.036 731.148,489.036 731.148,713.659 811.763,713.659 811.763,789.455 892.378,789.455 892.378,863.382 972.993,863.382 972.993,768.114 1053.61,768.114 1053.61,719.742 1134.22,719.742 1134.22,691.83 1214.84,691.83 1214.84,661.272 1295.45,661.272 1295.45,595.179 1376.07,595.179 1376.07,537.605 1456.68,537.605 1456.68,581.368 1537.3,581.368 1537.3,594.1 1617.91,594.1 1617.91,715.331 1698.53,715.331 1698.53,845.081 1779.14,845.081 1779.14,970.513 1859.76,970.513 1859.76,1051.69 1940.37,1051.69 1940.37,1059.73 2020.99,1059.73 2020.99,936.821 2101.6,936.821 2101.6,818.736 "/>
<polyline clip-path="url(#clip932)" style="stroke:#ff0000; stroke-linecap:round; stroke-linejoin:round; stroke-width:4; stroke-opacity:1; fill:none" stroke-dasharray="16, 10" points="2101.6,818.736 2182.22,818.736 "/>
<polyline clip-path="url(#clip932)" style="stroke:#ff0000; stroke-linecap:round; stroke-linejoin:round; stroke-width:4; stroke-opacity:1; fill:none" stroke-dasharray="16, 8, 2, 8" points="247.459,735.212 328.074,735.212 408.689,735.212 489.304,735.212 569.918,735.212 650.533,735.212 731.148,735.212 811.763,735.212 892.378,735.212 972.993,735.212 1053.61,735.212 1134.22,735.212 1214.84,735.212 1295.45,735.212 1376.07,735.212 1456.68,735.212 1537.3,735.212 1617.91,735.212 1698.53,735.212 1779.14,735.212 1859.76,735.212 1940.37,735.212 2020.99,735.212 2101.6,735.212 "/>
<polyline clip-path="url(#clip932)" style="stroke:#ff0000; stroke-linecap:round; stroke-linejoin:round; stroke-width:4; stroke-opacity:1; fill:none" stroke-dasharray="16, 8, 2, 8" points="2101.6,735.212 2182.22,735.212 "/>
<path clip-path="url(#clip930)" d="M843.934 196.789 L1585.74 196.789 L1585.74 93.1086 L843.934 93.1086  Z" fill="#ffffff" fill-rule="evenodd" fill-opacity="1"/>
<polyline clip-path="url(#clip930)" style="stroke:#000000; stroke-linecap:round; stroke-linejoin:round; stroke-width:4; stroke-opacity:1; fill:none" points="843.934,196.789 1585.74,196.789 1585.74,93.1086 843.934,93.1086 843.934,196.789 "/>
<polyline clip-path="url(#clip930)" style="stroke:#ff0000; stroke-linecap:round; stroke-linejoin:round; stroke-width:4; stroke-opacity:1; fill:none" points="865.432,144.949 994.416,144.949 "/>
<path clip-path="url(#clip930)" d="M1016.58 158.293 L1024.22 158.293 L1024.22 131.928 L1015.91 133.595 L1015.91 129.335 L1024.18 127.669 L1028.85 127.669 L1028.85 158.293 L1036.49 158.293 L1036.49 162.229 L1016.58 162.229 L1016.58 158.293 Z" fill="#000000" fill-rule="nonzero" fill-opacity="1" /><polyline clip-path="url(#clip930)" style="stroke:#ff0000; stroke-linecap:round; stroke-linejoin:round; stroke-width:4; stroke-opacity:1; fill:none" stroke-dasharray="16, 10" points="1105.53,144.949 1234.52,144.949 "/>
<path clip-path="url(#clip930)" d="M1267.96 130.747 Q1264.35 130.747 1262.52 134.312 Q1260.72 137.854 1260.72 144.983 Q1260.72 152.09 1262.52 155.655 Q1264.35 159.196 1267.96 159.196 Q1271.59 159.196 1273.4 155.655 Q1275.23 152.09 1275.23 144.983 Q1275.23 137.854 1273.4 134.312 Q1271.59 130.747 1267.96 130.747 M1267.96 127.044 Q1273.77 127.044 1276.83 131.65 Q1279.9 136.233 1279.9 144.983 Q1279.9 153.71 1276.83 158.317 Q1273.77 162.9 1267.96 162.9 Q1262.15 162.9 1259.07 158.317 Q1256.02 153.71 1256.02 144.983 Q1256.02 136.233 1259.07 131.65 Q1262.15 127.044 1267.96 127.044 Z" fill="#000000" fill-rule="nonzero" fill-opacity="1" /><path clip-path="url(#clip930)" d="M1288.12 156.349 L1293.01 156.349 L1293.01 162.229 L1288.12 162.229 L1288.12 156.349 Z" fill="#000000" fill-rule="nonzero" fill-opacity="1" /><path clip-path="url(#clip930)" d="M1303.24 127.669 L1321.59 127.669 L1321.59 131.604 L1307.52 131.604 L1307.52 140.076 Q1308.54 139.729 1309.56 139.567 Q1310.58 139.382 1311.59 139.382 Q1317.38 139.382 1320.76 142.553 Q1324.14 145.724 1324.14 151.141 Q1324.14 156.719 1320.67 159.821 Q1317.2 162.9 1310.88 162.9 Q1308.7 162.9 1306.43 162.53 Q1304.19 162.159 1301.78 161.418 L1301.78 156.719 Q1303.86 157.854 1306.09 158.409 Q1308.31 158.965 1310.78 158.965 Q1314.79 158.965 1317.13 156.858 Q1319.46 154.752 1319.46 151.141 Q1319.46 147.53 1317.13 145.423 Q1314.79 143.317 1310.78 143.317 Q1308.91 143.317 1307.03 143.733 Q1305.18 144.15 1303.24 145.03 L1303.24 127.669 Z" fill="#000000" fill-rule="nonzero" fill-opacity="1" /><polyline clip-path="url(#clip930)" style="stroke:#ff0000; stroke-linecap:round; stroke-linejoin:round; stroke-width:4; stroke-opacity:1; fill:none" stroke-dasharray="16, 8, 2, 8" points="1345.64,144.949 1474.62,144.949 "/>
<path clip-path="url(#clip930)" d="M1508.06 130.747 Q1504.45 130.747 1502.62 134.312 Q1500.82 137.854 1500.82 144.983 Q1500.82 152.09 1502.62 155.655 Q1504.45 159.196 1508.06 159.196 Q1511.7 159.196 1513.5 155.655 Q1515.33 152.09 1515.33 144.983 Q1515.33 137.854 1513.5 134.312 Q1511.7 130.747 1508.06 130.747 M1508.06 127.044 Q1513.87 127.044 1516.93 131.65 Q1520.01 136.233 1520.01 144.983 Q1520.01 153.71 1516.93 158.317 Q1513.87 162.9 1508.06 162.9 Q1502.25 162.9 1499.17 158.317 Q1496.12 153.71 1496.12 144.983 Q1496.12 136.233 1499.17 131.65 Q1502.25 127.044 1508.06 127.044 Z" fill="#000000" fill-rule="nonzero" fill-opacity="1" /><polyline clip-path="url(#clip930)" style="stroke:#000000; stroke-linecap:round; stroke-linejoin:round; stroke-width:4; stroke-opacity:1; fill:none" points="2182.22,1423.18 2182.22,47.2441 "/>
<polyline clip-path="url(#clip930)" style="stroke:#000000; stroke-linecap:round; stroke-linejoin:round; stroke-width:4; stroke-opacity:1; fill:none" points="2182.22,1269.17 2163.32,1269.17 "/>
<polyline clip-path="url(#clip930)" style="stroke:#000000; stroke-linecap:round; stroke-linejoin:round; stroke-width:4; stroke-opacity:1; fill:none" points="2182.22,1005.85 2163.32,1005.85 "/>
<polyline clip-path="url(#clip930)" style="stroke:#000000; stroke-linecap:round; stroke-linejoin:round; stroke-width:4; stroke-opacity:1; fill:none" points="2182.22,742.532 2163.32,742.532 "/>
<polyline clip-path="url(#clip930)" style="stroke:#000000; stroke-linecap:round; stroke-linejoin:round; stroke-width:4; stroke-opacity:1; fill:none" points="2182.22,479.214 2163.32,479.214 "/>
<polyline clip-path="url(#clip930)" style="stroke:#000000; stroke-linecap:round; stroke-linejoin:round; stroke-width:4; stroke-opacity:1; fill:none" points="2182.22,215.896 2163.32,215.896 "/>
<path clip-path="url(#clip930)" d="M2218.89 1282.51 L2226.53 1282.51 L2226.53 1256.15 L2218.22 1257.81 L2218.22 1253.55 L2226.48 1251.89 L2231.16 1251.89 L2231.16 1282.51 L2238.8 1282.51 L2238.8 1286.45 L2218.89 1286.45 L2218.89 1282.51 Z" fill="#000000" fill-rule="nonzero" fill-opacity="1" /><path clip-path="url(#clip930)" d="M2248.24 1280.57 L2253.12 1280.57 L2253.12 1286.45 L2248.24 1286.45 L2248.24 1280.57 Z" fill="#000000" fill-rule="nonzero" fill-opacity="1" /><path clip-path="url(#clip930)" d="M2277.48 1267.81 Q2280.83 1268.53 2282.71 1270.8 Q2284.61 1273.07 2284.61 1276.4 Q2284.61 1281.52 2281.09 1284.32 Q2277.57 1287.12 2271.09 1287.12 Q2268.91 1287.12 2266.6 1286.68 Q2264.3 1286.26 2261.85 1285.41 L2261.85 1280.89 Q2263.8 1282.03 2266.11 1282.61 Q2268.43 1283.18 2270.95 1283.18 Q2275.35 1283.18 2277.64 1281.45 Q2279.95 1279.71 2279.95 1276.4 Q2279.95 1273.35 2277.8 1271.63 Q2275.67 1269.9 2271.85 1269.9 L2267.82 1269.9 L2267.82 1266.05 L2272.04 1266.05 Q2275.49 1266.05 2277.31 1264.69 Q2279.14 1263.3 2279.14 1260.71 Q2279.14 1258.05 2277.24 1256.63 Q2275.37 1255.2 2271.85 1255.2 Q2269.93 1255.2 2267.73 1255.62 Q2265.53 1256.03 2262.89 1256.91 L2262.89 1252.74 Q2265.55 1252 2267.87 1251.63 Q2270.21 1251.26 2272.27 1251.26 Q2277.59 1251.26 2280.69 1253.69 Q2283.8 1256.1 2283.8 1260.22 Q2283.8 1263.09 2282.15 1265.08 Q2280.51 1267.05 2277.48 1267.81 Z" fill="#000000" fill-rule="nonzero" fill-opacity="1" /><path clip-path="url(#clip930)" d="M2218.89 1019.2 L2226.53 1019.2 L2226.53 992.829 L2218.22 994.496 L2218.22 990.237 L2226.48 988.57 L2231.16 988.57 L2231.16 1019.2 L2238.8 1019.2 L2238.8 1023.13 L2218.89 1023.13 L2218.89 1019.2 Z" fill="#000000" fill-rule="nonzero" fill-opacity="1" /><path clip-path="url(#clip930)" d="M2248.24 1017.25 L2253.12 1017.25 L2253.12 1023.13 L2248.24 1023.13 L2248.24 1017.25 Z" fill="#000000" fill-rule="nonzero" fill-opacity="1" /><path clip-path="url(#clip930)" d="M2276.16 992.644 L2264.35 1011.09 L2276.16 1011.09 L2276.16 992.644 M2274.93 988.57 L2280.81 988.57 L2280.81 1011.09 L2285.74 1011.09 L2285.74 1014.98 L2280.81 1014.98 L2280.81 1023.13 L2276.16 1023.13 L2276.16 1014.98 L2260.55 1014.98 L2260.55 1010.47 L2274.93 988.57 Z" fill="#000000" fill-rule="nonzero" fill-opacity="1" /><path clip-path="url(#clip930)" d="M2218.89 755.877 L2226.53 755.877 L2226.53 729.511 L2218.22 731.178 L2218.22 726.919 L2226.48 725.252 L2231.16 725.252 L2231.16 755.877 L2238.8 755.877 L2238.8 759.812 L2218.89 759.812 L2218.89 755.877 Z" fill="#000000" fill-rule="nonzero" fill-opacity="1" /><path clip-path="url(#clip930)" d="M2248.24 753.933 L2253.12 753.933 L2253.12 759.812 L2248.24 759.812 L2248.24 753.933 Z" fill="#000000" fill-rule="nonzero" fill-opacity="1" /><path clip-path="url(#clip930)" d="M2263.36 725.252 L2281.71 725.252 L2281.71 729.187 L2267.64 729.187 L2267.64 737.66 Q2268.66 737.312 2269.68 737.15 Q2270.69 736.965 2271.71 736.965 Q2277.5 736.965 2280.88 740.136 Q2284.26 743.308 2284.26 748.724 Q2284.26 754.303 2280.79 757.405 Q2277.31 760.484 2270.99 760.484 Q2268.82 760.484 2266.55 760.113 Q2264.3 759.743 2261.9 759.002 L2261.9 754.303 Q2263.98 755.437 2266.2 755.993 Q2268.43 756.548 2270.9 756.548 Q2274.91 756.548 2277.24 754.442 Q2279.58 752.335 2279.58 748.724 Q2279.58 745.113 2277.24 743.007 Q2274.91 740.9 2270.9 740.9 Q2269.03 740.9 2267.15 741.317 Q2265.3 741.734 2263.36 742.613 L2263.36 725.252 Z" fill="#000000" fill-rule="nonzero" fill-opacity="1" /><path clip-path="url(#clip930)" d="M2218.89 492.559 L2226.53 492.559 L2226.53 466.193 L2218.22 467.86 L2218.22 463.601 L2226.48 461.934 L2231.16 461.934 L2231.16 492.559 L2238.8 492.559 L2238.8 496.494 L2218.89 496.494 L2218.89 492.559 Z" fill="#000000" fill-rule="nonzero" fill-opacity="1" /><path clip-path="url(#clip930)" d="M2248.24 490.615 L2253.12 490.615 L2253.12 496.494 L2248.24 496.494 L2248.24 490.615 Z" fill="#000000" fill-rule="nonzero" fill-opacity="1" /><path clip-path="url(#clip930)" d="M2273.89 477.351 Q2270.74 477.351 2268.89 479.504 Q2267.06 481.656 2267.06 485.406 Q2267.06 489.133 2268.89 491.309 Q2270.74 493.462 2273.89 493.462 Q2277.04 493.462 2278.86 491.309 Q2280.72 489.133 2280.72 485.406 Q2280.72 481.656 2278.86 479.504 Q2277.04 477.351 2273.89 477.351 M2283.17 462.698 L2283.17 466.957 Q2281.41 466.124 2279.61 465.684 Q2277.82 465.244 2276.06 465.244 Q2271.43 465.244 2268.98 468.369 Q2266.55 471.494 2266.2 477.814 Q2267.57 475.8 2269.63 474.735 Q2271.69 473.647 2274.17 473.647 Q2279.37 473.647 2282.38 476.818 Q2285.42 479.966 2285.42 485.406 Q2285.42 490.73 2282.27 493.948 Q2279.12 497.165 2273.89 497.165 Q2267.89 497.165 2264.72 492.582 Q2261.55 487.976 2261.55 479.249 Q2261.55 471.054 2265.44 466.193 Q2269.33 461.309 2275.88 461.309 Q2277.64 461.309 2279.42 461.656 Q2281.23 462.004 2283.17 462.698 Z" fill="#000000" fill-rule="nonzero" fill-opacity="1" /><path clip-path="url(#clip930)" d="M2218.89 229.241 L2226.53 229.241 L2226.53 202.875 L2218.22 204.542 L2218.22 200.283 L2226.48 198.616 L2231.16 198.616 L2231.16 229.241 L2238.8 229.241 L2238.8 233.176 L2218.89 233.176 L2218.89 229.241 Z" fill="#000000" fill-rule="nonzero" fill-opacity="1" /><path clip-path="url(#clip930)" d="M2248.24 227.297 L2253.12 227.297 L2253.12 233.176 L2248.24 233.176 L2248.24 227.297 Z" fill="#000000" fill-rule="nonzero" fill-opacity="1" /><path clip-path="url(#clip930)" d="M2262.13 198.616 L2284.35 198.616 L2284.35 200.607 L2271.8 233.176 L2266.92 233.176 L2278.73 202.551 L2262.13 202.551 L2262.13 198.616 Z" fill="#000000" fill-rule="nonzero" fill-opacity="1" /><path clip-path="url(#clip930)" d="M2332.8 1050.01 L2339.07 1050.01 Q2337.32 1053.67 2336.46 1056.92 Q2335.6 1060.17 2335.6 1063.19 Q2335.6 1068.44 2337.64 1071.31 Q2339.68 1074.14 2343.43 1074.14 Q2346.59 1074.14 2348.21 1072.26 Q2349.8 1070.35 2350.79 1065.07 L2351.58 1061.18 Q2352.95 1053.99 2356.42 1050.58 Q2359.86 1047.15 2365.65 1047.15 Q2372.56 1047.15 2376.12 1051.79 Q2379.69 1056.41 2379.69 1065.35 Q2379.69 1068.73 2378.92 1072.55 Q2378.16 1076.33 2376.66 1080.41 L2370.04 1080.41 Q2372.24 1076.49 2373.35 1072.74 Q2374.47 1068.98 2374.47 1065.35 Q2374.47 1059.85 2372.3 1056.86 Q2370.14 1053.86 2366.13 1053.86 Q2362.63 1053.86 2360.65 1056.03 Q2358.68 1058.16 2357.69 1063.06 L2356.93 1066.98 Q2355.5 1074.17 2352.44 1077.38 Q2349.39 1080.6 2343.94 1080.6 Q2337.64 1080.6 2334.01 1076.18 Q2330.38 1071.72 2330.38 1063.92 Q2330.38 1060.58 2330.99 1057.11 Q2331.59 1053.64 2332.8 1050.01 Z" fill="#000000" fill-rule="nonzero" fill-opacity="1" /><path clip-path="url(#clip930)" d="M2373.42 1031.71 L2392.32 1031.71 L2392.32 1037.6 L2343.12 1037.6 L2343.12 1031.71 L2348.53 1031.71 Q2345.34 1029.86 2343.82 1027.06 Q2342.26 1024.23 2342.26 1020.32 Q2342.26 1013.82 2347.41 1009.78 Q2352.57 1005.71 2360.97 1005.71 Q2369.37 1005.71 2374.53 1009.78 Q2379.69 1013.82 2379.69 1020.32 Q2379.69 1024.23 2378.16 1027.06 Q2376.6 1029.86 2373.42 1031.71 M2360.97 1011.79 Q2354.51 1011.79 2350.85 1014.46 Q2347.16 1017.1 2347.16 1021.75 Q2347.16 1026.4 2350.85 1029.07 Q2354.51 1031.71 2360.97 1031.71 Q2367.43 1031.71 2371.12 1029.07 Q2374.79 1026.4 2374.79 1021.75 Q2374.79 1017.1 2371.12 1014.46 Q2367.43 1011.79 2360.97 1011.79 Z" fill="#000000" fill-rule="nonzero" fill-opacity="1" /><path clip-path="url(#clip930)" d="M2347.22 982.185 Q2347.22 986.896 2350.91 989.633 Q2354.57 992.371 2360.97 992.371 Q2367.37 992.371 2371.06 989.665 Q2374.72 986.928 2374.72 982.185 Q2374.72 977.507 2371.03 974.769 Q2367.34 972.032 2360.97 972.032 Q2354.64 972.032 2350.95 974.769 Q2347.22 977.507 2347.22 982.185 M2342.26 982.185 Q2342.26 974.547 2347.22 970.186 Q2352.19 965.826 2360.97 965.826 Q2369.72 965.826 2374.72 970.186 Q2379.69 974.547 2379.69 982.185 Q2379.69 989.856 2374.72 994.217 Q2369.72 998.545 2360.97 998.545 Q2352.19 998.545 2347.22 994.217 Q2342.26 989.856 2342.26 982.185 Z" fill="#000000" fill-rule="nonzero" fill-opacity="1" /><path clip-path="url(#clip930)" d="M2332.99 950.325 L2343.12 950.325 L2343.12 938.262 L2347.67 938.262 L2347.67 950.325 L2367.02 950.325 Q2371.38 950.325 2372.62 949.147 Q2373.86 947.938 2373.86 944.278 L2373.86 938.262 L2378.76 938.262 L2378.76 944.278 Q2378.76 951.057 2376.25 953.635 Q2373.7 956.213 2367.02 956.213 L2347.67 956.213 L2347.67 960.51 L2343.12 960.51 L2343.12 956.213 L2332.99 956.213 L2332.99 950.325 Z" fill="#000000" fill-rule="nonzero" fill-opacity="1" /><path clip-path="url(#clip930)" d="M2336.53 903.155 L2354.38 903.155 L2354.38 895.071 Q2354.38 890.583 2352.06 888.132 Q2349.74 885.681 2345.44 885.681 Q2341.17 885.681 2338.85 888.132 Q2336.53 890.583 2336.53 895.071 L2336.53 903.155 M2331.24 909.585 L2331.24 895.071 Q2331.24 887.082 2334.87 883.008 Q2338.47 878.902 2345.44 878.902 Q2352.47 878.902 2356.07 883.008 Q2359.67 887.082 2359.67 895.071 L2359.67 903.155 L2378.76 903.155 L2378.76 909.585 L2331.24 909.585 Z" fill="#000000" fill-rule="nonzero" fill-opacity="1" /><path clip-path="url(#clip930)" d="M2348.59 851.02 Q2348.02 852.007 2347.76 853.184 Q2347.48 854.33 2347.48 855.731 Q2347.48 860.696 2350.72 863.37 Q2353.94 866.011 2359.99 866.011 L2378.76 866.011 L2378.76 871.9 L2343.12 871.9 L2343.12 866.011 L2348.65 866.011 Q2345.41 864.165 2343.85 861.205 Q2342.26 858.245 2342.26 854.012 Q2342.26 853.407 2342.35 852.675 Q2342.42 851.943 2342.57 851.052 L2348.59 851.02 Z" fill="#000000" fill-rule="nonzero" fill-opacity="1" /><path clip-path="url(#clip930)" d="M2343.12 844.877 L2343.12 839.021 L2378.76 839.021 L2378.76 844.877 L2343.12 844.877 M2329.24 844.877 L2329.24 839.021 L2336.65 839.021 L2336.65 844.877 L2329.24 844.877 Z" fill="#000000" fill-rule="nonzero" fill-opacity="1" /><path clip-path="url(#clip930)" d="M2344.48 801.113 L2349.96 801.113 Q2348.59 803.596 2347.92 806.11 Q2347.22 808.593 2347.22 811.139 Q2347.22 816.836 2350.85 819.987 Q2354.45 823.138 2360.97 823.138 Q2367.5 823.138 2371.12 819.987 Q2374.72 816.836 2374.72 811.139 Q2374.72 808.593 2374.05 806.11 Q2373.35 803.596 2371.98 801.113 L2377.4 801.113 Q2378.54 803.564 2379.11 806.206 Q2379.69 808.815 2379.69 811.776 Q2379.69 819.828 2374.63 824.571 Q2369.57 829.313 2360.97 829.313 Q2352.25 829.313 2347.25 824.539 Q2342.26 819.733 2342.26 811.394 Q2342.26 808.688 2342.83 806.11 Q2343.37 803.532 2344.48 801.113 Z" fill="#000000" fill-rule="nonzero" fill-opacity="1" /><path clip-path="url(#clip930)" d="M2359.48 760.436 L2362.34 760.436 L2362.34 787.363 Q2368.39 786.981 2371.57 783.735 Q2374.72 780.456 2374.72 774.632 Q2374.72 771.258 2373.89 768.107 Q2373.07 764.924 2371.41 761.805 L2376.95 761.805 Q2378.29 764.956 2378.99 768.266 Q2379.69 771.576 2379.69 774.982 Q2379.69 783.512 2374.72 788.509 Q2369.76 793.474 2361.29 793.474 Q2352.54 793.474 2347.41 788.763 Q2342.26 784.021 2342.26 776 Q2342.26 768.807 2346.9 764.637 Q2351.52 760.436 2359.48 760.436 M2357.76 766.293 Q2352.95 766.356 2350.09 768.998 Q2347.22 771.608 2347.22 775.937 Q2347.22 780.838 2349.99 783.798 Q2352.76 786.726 2357.79 787.172 L2357.76 766.293 Z" fill="#000000" fill-rule="nonzero" fill-opacity="1" /><path clip-path="url(#clip930)" d="M2329.24 730.645 L2329.24 717.149 L2333.79 717.149 L2333.79 724.788 L2382.81 724.788 L2382.81 717.149 L2387.36 717.149 L2387.36 730.645 L2329.24 730.645 Z" fill="#000000" fill-rule="nonzero" fill-opacity="1" /><path clip-path="url(#clip930)" d="M2336.53 697.988 L2373.48 697.988 L2373.48 690.222 Q2373.48 680.387 2369.02 675.836 Q2364.57 671.253 2354.96 671.253 Q2345.41 671.253 2340.98 675.836 Q2336.53 680.387 2336.53 690.222 L2336.53 697.988 M2331.24 704.418 L2331.24 691.209 Q2331.24 677.395 2337 670.934 Q2342.73 664.473 2354.96 664.473 Q2367.24 664.473 2373 670.966 Q2378.76 677.459 2378.76 691.209 L2378.76 704.418 L2331.24 704.418 Z" fill="#000000" fill-rule="nonzero" fill-opacity="1" /><path clip-path="url(#clip930)" d="M2331.24 654.224 L2331.24 647.795 L2351.33 647.795 L2331.24 626.47 L2331.24 618.194 L2353.4 641.779 L2378.76 616.507 L2378.76 624.974 L2355.88 647.795 L2378.76 647.795 L2378.76 654.224 L2331.24 654.224 Z" fill="#000000" fill-rule="nonzero" fill-opacity="1" /><path clip-path="url(#clip930)" d="M2331.24 611.479 L2331.24 605.049 L2351.33 605.049 L2331.24 583.724 L2331.24 575.449 L2353.4 599.034 L2378.76 573.762 L2378.76 582.228 L2355.88 605.049 L2378.76 605.049 L2378.76 611.479 L2331.24 611.479 Z" fill="#000000" fill-rule="nonzero" fill-opacity="1" /><path clip-path="url(#clip930)" d="M2331.24 558.58 L2331.24 553.169 L2384.81 569.72 L2384.81 575.13 L2331.24 558.58 Z" fill="#000000" fill-rule="nonzero" fill-opacity="1" /><path clip-path="url(#clip930)" d="M2329.24 547.249 L2329.24 541.36 L2358.49 541.36 L2343.12 523.886 L2343.12 516.407 L2359.79 535.313 L2378.76 515.611 L2378.76 523.25 L2361.35 541.36 L2378.76 541.36 L2378.76 547.249 L2329.24 547.249 Z" fill="#000000" fill-rule="nonzero" fill-opacity="1" /><path clip-path="url(#clip930)" d="M2331.24 513.256 L2331.24 506.763 L2371.41 496.769 L2331.24 486.806 L2331.24 479.581 L2371.41 469.587 L2331.24 459.625 L2331.24 453.1 L2378.76 465.035 L2378.76 473.12 L2337.51 483.146 L2378.76 493.267 L2378.76 501.352 L2331.24 513.256 Z" fill="#000000" fill-rule="nonzero" fill-opacity="1" /><path clip-path="url(#clip930)" d="M2357.25 415.192 L2378.76 415.192 L2378.76 421.048 L2357.44 421.048 Q2352.38 421.048 2349.86 423.022 Q2347.35 424.995 2347.35 428.942 Q2347.35 433.684 2350.37 436.422 Q2353.4 439.159 2358.62 439.159 L2378.76 439.159 L2378.76 445.047 L2329.24 445.047 L2329.24 439.159 L2348.65 439.159 Q2345.44 437.058 2343.85 434.225 Q2342.26 431.361 2342.26 427.637 Q2342.26 421.494 2346.08 418.343 Q2349.86 415.192 2357.25 415.192 Z" fill="#000000" fill-rule="nonzero" fill-opacity="1" /><path clip-path="url(#clip930)" d="M2329.24 389.825 L2387.36 389.825 L2387.36 403.32 L2382.81 403.32 L2382.81 395.713 L2333.79 395.713 L2333.79 403.32 L2329.24 403.32 L2329.24 389.825 Z" fill="#000000" fill-rule="nonzero" fill-opacity="1" /><polyline clip-path="url(#clip932)" style="stroke:#000000; stroke-linecap:round; stroke-linejoin:round; stroke-width:4; stroke-opacity:1; fill:none" points="247.459,1186.83 328.074,1186.83 328.074,1290.05 408.689,1290.05 408.689,1316.28 489.304,1316.28 489.304,1384.24 569.918,1384.24 569.918,1383.84 650.533,1383.84 650.533,1227.56 731.148,1227.56 731.148,778.317 811.763,778.317 811.763,626.725 892.378,626.725 892.378,478.872 972.993,478.872 972.993,669.409 1053.61,669.409 1053.61,766.152 1134.22,766.152 1134.22,821.975 1214.84,821.975 1214.84,883.091 1295.45,883.091 1295.45,1015.28 1376.07,1015.28 1376.07,1130.43 1456.68,1130.43 1456.68,1042.9 1537.3,1042.9 1537.3,1017.44 1617.91,1017.44 1617.91,774.973 1698.53,774.973 1698.53,515.473 1779.14,515.473 1779.14,264.61 1859.76,264.61 1859.76,102.248 1940.37,102.248 1940.37,86.1857 2020.99,86.1857 2020.99,331.993 2101.6,331.993 2101.6,568.163 "/>
<polyline clip-path="url(#clip932)" style="stroke:#000000; stroke-linecap:round; stroke-linejoin:round; stroke-width:4; stroke-opacity:1; fill:none" points="2101.6,568.163 2182.22,568.163 "/>
</svg>
